SplineFontDB: 3.2
FontName: SeriousShannsBold
FullName: Serious Shanns Bold
FamilyName: Serious Shanns Bold
Weight: Bold
Copyright: https://github.com/kaBeech/serious-shanns/blob/main/LICENSE
Version: 6.0.0
ItalicAngle: 0
UnderlinePosition: 0
UnderlineWidth: 0
Ascent: 750
Descent: 250
InvalidEm: 0
sfntRevision: 0x00003333
LayerCount: 2
Layer: 0 0 "Back" 1
Layer: 1 0 "Fore" 0
XUID: [1021 45 630387186 1689187]
StyleMap: 0x0040
FSType: 0
OS2Version: 3
OS2_WeightWidthSlopeOnly: 0
OS2_UseTypoMetrics: 0
CreationTime: 1532631502
ModificationTime: 315532800
PfmFamily: 49
TTFWeight: 700
TTFWidth: 5
LineGap: 200
VLineGap: 0
Panose: 0 0 0 0 0 0 0 0 0 0
OS2TypoAscent: 750
OS2TypoAOffset: 0
OS2TypoDescent: -250
OS2TypoDOffset: 0
OS2TypoLinegap: 200
OS2WinAscent: 1000
OS2WinAOffset: 0
OS2WinDescent: 500
OS2WinDOffset: 0
HheadAscent: 750
HheadAOffset: 0
HheadDescent: -250
HheadDOffset: 0
OS2SubXSize: 317
OS2SubYSize: 293
OS2SubXOff: 0
OS2SubYOff: 37
OS2SupXSize: 317
OS2SupYSize: 293
OS2SupXOff: 0
OS2SupYOff: 171
OS2StrikeYSize: 0
OS2StrikeYPos: 132
OS2CapHeight: 650
OS2XHeight: 450
OS2Vendor: 'NONE'
OS2CodePages: 00000001.00000000
OS2UnicodeRanges: 00000001.00000000.00000000.00000000
MarkAttachClasses: 1
DEI: 91125
LangName: 1033 "" "" "Normal" "" "" "Version 0.2.0"
Encoding: UnicodeBmp
Compacted: 1
UnicodeInterp: none
NameList: AGL For New Fonts
DisplaySize: -48
AntiAlias: 1
FitToEm: 0
WinInfo: 0 16 14
BeginPrivate: 9
BlueValues 32 [-39 -6 502 523 708 718 765 769]
OtherBlues 11 [-297 -287]
BlueScale 9 0.0291667
BlueShift 1 2
StdHW 5 [110]
StdVW 5 [128]
StemSnapH 5 [110]
StemSnapV 9 [128 134]
ForceBold 4 true
EndPrivate
BeginChars: 65537 105

StartChar: .notdef
Encoding: 65536 -1 0
Width: 640
GlyphClass: 1
Flags: W
HStem: -280 78<172 468> 683 78<172 468>
VStem: 94 78<-202 683> 468 78<-202 683>
LayerCount: 2
Fore
SplineSet
94 -280 m 1
 94 761 l 1
 546 761 l 1
 546 -280 l 1
 94 -280 l 1
172 683 m 1
 172 -202 l 1
 468 -202 l 1
 468 683 l 1
 172 683 l 1
EndSplineSet
Validated: 1
EndChar

StartChar: exclam
Encoding: 33 33 1
Width: 640
GlyphClass: 2
Flags: W
HStem: -37.002 179.001<263.347 380.352>
VStem: 226.481 187.037<-3.98231 106.918> 260.479 122.001<248.311 379.795> 268.479 115.001<294.405 784.434>
LayerCount: 2
Fore
SplineSet
390.479492188 738 m 0x90
 390.479492188 732 389.147460938 694.665039062 386.48046875 625.998046875 c 0
 384.48046875 557.331054688 383.48046875 502.331054688 383.48046875 460.998046875 c 0
 383.48046875 441.665039062 383.813476562 421.33203125 384.48046875 399.999023438 c 0
 385.147460938 379.33203125 385.48046875 361.33203125 385.48046875 345.999023438 c 0
 385.48046875 330.666015625 384.813476562 320.333007812 383.48046875 315 c 0x90
 382.813476562 309.666992188 382.48046875 302.666992188 382.48046875 294 c 0xa0
 382.48046875 285.333007812 382.813476562 277.333007812 383.48046875 270 c 0x90
 381.48046875 251.333007812 374.147460938 237 361.48046875 227 c 0
 350.147460938 217.666992188 336.48046875 212.666992188 320.48046875 212 c 2
 316.48046875 212 l 2
 299.813476562 212 286.147460938 218 275.479492188 230 c 0
 265.479492188 240 260.479492188 253.333007812 260.479492188 270 c 0xa0
 260.479492188 278 261.8125 288.333007812 264.479492188 301 c 0
 266.479492188 314.333007812 267.8125 324 268.479492188 330 c 0
 269.147460938 336 269.479492188 346.333007812 269.479492188 361 c 2
 269.479492188 402 l 2
 269.479492188 415.333007812 269.147460938 435.666015625 268.479492188 462.999023438 c 0
 267.147460938 494.999023438 266.479492188 525.666015625 266.479492188 554.999023438 c 2
 266.479492188 623.999023438 l 2
 267.147460938 640.666015625 267.813476562 661.333007812 268.48046875 686 c 0
 269.147460938 710.666992188 269.48046875 727 269.48046875 735 c 1
 270.147460938 756.333007812 276.48046875 773 288.48046875 785 c 0
 299.813476562 796.333007812 314.147460938 802 331.479492188 802 c 2
 334.479492188 802 l 2
 350.479492188 802 363.8125 796.666992188 374.479492188 786 c 0
 385.147460938 775.333007812 390.479492188 759.333007812 390.479492188 738 c 0x90
312.48046875 -37.001953125 m 2
 289.147460938 -37.001953125 269.481445312 -29.0009765625 253.481445312 -13.0009765625 c 0
 235.481445312 5.666015625 226.481445312 27.9990234375 226.481445312 53.9990234375 c 0
 226.481445312 77.9990234375 236.481445312 98.33203125 256.481445312 114.999023438 c 0
 277.1484375 132.999023438 300.1484375 141.999023438 325.481445312 141.999023438 c 0
 350.815429688 141.999023438 371.815429688 133.999023438 388.481445312 117.999023438 c 0
 405.171875 101.30859375 413.518554688 81.2177734375 413.518554688 57.7255859375 c 0xc0
 413.518554688 44.673828125 412.948242188 17.443359375 389.48046875 -7.001953125 c 0
 372.813476562 -23.6689453125 350.813476562 -33.6689453125 323.48046875 -37.001953125 c 2
 312.48046875 -37.001953125 l 2
EndSplineSet
Validated: 1
EndChar

StartChar: quotedbl
Encoding: 34 34 2
Width: 640
GlyphClass: 2
Flags: W
VStem: 175.5 122<438.439 586.418> 178.5 127<442.249 783.227> 335.5 130<442.134 783.794>
LayerCount: 2
Fore
SplineSet
465.5 738 m 2x20
 465.5 719 l 2
 465.5 685 465.169921875 641.666992188 464.502929688 589 c 0
 463.169921875 533.666992188 461.169921875 495 458.502929688 473 c 0
 455.8359375 456.333007812 448.16796875 443.666015625 435.501953125 434.999023438 c 0
 424.834960938 426.999023438 413.16796875 422.999023438 400.5 422.999023438 c 0
 383.833984375 422.999023438 368.833984375 427.999023438 355.5 437.999023438 c 0
 342.833984375 447.33203125 336.5 459.999023438 336.5 475.999023438 c 2
 336.5 481.999023438 l 2
 337.833984375 504.666015625 338.5 531.999023438 338.5 563.999023438 c 0
 338.5 631.33203125 337.5 690.999023438 335.5 742.999023438 c 2
 335.5 745.999023438 l 2
 335.5 755.33203125 337.833984375 763.83203125 342.5 771.499023438 c 0
 347.16796875 779.166015625 353.834960938 784.666015625 362.501953125 787.999023438 c 0
 374.501953125 792.666015625 386.501953125 795.333007812 398.501953125 796 c 0
 408.501953125 796 416.66796875 795 423.001953125 793 c 0
 429.334960938 791 435.501953125 788.333007812 441.501953125 785 c 0
 448.834960938 781 454.66796875 774.833007812 459 766.5 c 0
 463.333984375 758.166992188 465.5 748.666992188 465.5 738 c 2x20
305.5 739 m 2x60
 305.5 697 l 2x60
 305.5 677.666992188 304.833984375 641.666992188 303.5 589 c 0
 302.16796875 533.666992188 300.16796875 495 297.5 473 c 0
 294.833984375 456.333007812 287.5 443.666015625 275.5 434.999023438 c 0
 264.833984375 426.999023438 253.166992188 422.999023438 240.5 422.999023438 c 0
 223.83203125 422.999023438 208.5 427.999023438 194.5 437.999023438 c 0
 181.83203125 447.33203125 175.5 459.999023438 175.5 475.999023438 c 0xa0
 175.5 477.999023438 175.83203125 480.33203125 176.5 482.999023438 c 0
 178 502.498046875 178.75 525.185546875 178.75 551.059570312 c 0
 178.75 559.684570312 178.666992188 568.665039062 178.5 577.999023438 c 2
 178.5 611.999023438 l 2
 177.83203125 679.33203125 176.5 724.33203125 174.5 746.999023438 c 0
 174.5 755.666015625 176.83203125 763.666015625 181.5 770.999023438 c 0
 186.83203125 778.999023438 193.5 784.666015625 201.5 787.999023438 c 0
 213.5 792.666015625 225.83203125 795.333007812 238.5 796 c 0
 248.5 796 256.666992188 795 263 793 c 0
 269.33203125 791 275.83203125 788 282.5 784 c 0
 289.166992188 780 294.5 774 298.5 766 c 0
 302.5 758 304.83203125 749 305.5 739 c 2x60
EndSplineSet
Validated: 1
EndChar

StartChar: numbersign
Encoding: 35 35 3
Width: 640
GlyphClass: 2
Flags: W
HStem: -13.999 20.9004G<146.333 154.333 372.998 380.998> 179.001 107.003<60.5032 120 268.003 340.999 486 553.621> 433.004 109<99.4746 171 317.999 387.003 531 576.404>
LayerCount: 2
Fore
SplineSet
387.002929688 433.00390625 m 1
 297.002929688 433.00390625 l 1
 268.002929688 286.00390625 l 1
 292.002929688 286.670898438 322.669921875 287.001953125 360.002929688 287.001953125 c 1
 369.3359375 334.334960938 378.3359375 383.00390625 387.002929688 433.00390625 c 1
171 431 m 1
 153 430.333007812 143.002929688 430.333007812 141.002929688 431 c 0
 123.002929688 431 109.002929688 435.334960938 99.0029296875 444.001953125 c 0
 87.669921875 454.001953125 81.669921875 466.668945312 81.0029296875 482.001953125 c 2
 81.0029296875 485.001953125 l 2
 81.0029296875 499.001953125 86.3330078125 511.334960938 97 522.001953125 c 0
 107.666992188 532.668945312 123.002929688 538.3359375 143.002929688 539.002929688 c 0
 154.3359375 539.669921875 170.668945312 540.002929688 192.001953125 540.002929688 c 1
 219.001953125 686.002929688 l 2
 225.001953125 706.669921875 235.334960938 720.669921875 250.001953125 728.002929688 c 0
 259.334960938 733.3359375 269.334960938 736.3359375 280.001953125 737.002929688 c 0
 284.668945312 737.002929688 289.33203125 736.3359375 293.999023438 735.002929688 c 0
 311.33203125 731.669921875 324.668945312 723.336914062 334.001953125 710.00390625 c 0
 340.668945312 700.670898438 344.001953125 689.670898438 344.001953125 677.00390625 c 0
 344.001953125 671.00390625 343.334960938 665.00390625 342.001953125 659.00390625 c 2
 317.999023438 542.00390625 l 1
 406.001953125 542.00390625 l 1
 431.001953125 678.00390625 l 2
 437.001953125 699.336914062 447.334960938 714.00390625 462.001953125 722.00390625 c 0
 471.334960938 727.336914062 481.334960938 730.00390625 492.001953125 730.00390625 c 0
 497.334960938 730.00390625 502.334960938 729.3359375 507.001953125 728.002929688 c 0
 524.334960938 724.669921875 537.66796875 716.337890625 547.000976562 703.004882812 c 0
 553.000976562 694.337890625 556.333007812 684.004882812 557 672.004882812 c 0
 557 665.337890625 556 658.337890625 554 651.004882812 c 0
 547.333007812 626.337890625 539.666992188 590.337890625 531 543.004882812 c 1
 549 542.337890625 564.333007812 537.004882812 577 527.004882812 c 0
 590.333007812 515.671875 597.333007812 503.004882812 598 489.004882812 c 0
 598 473.671875 593 460.671875 583 450.004882812 c 0
 573 439.337890625 558 433.670898438 538 433.00390625 c 2
 537 433.00390625 l 1
 511 433.00390625 l 1
 486 286.00390625 l 1
 513 286.00390625 l 2
 532.333007812 286.00390625 546 281.336914062 554 272.00390625 c 0
 562 262.670898438 566.666992188 251.00390625 568 237.00390625 c 2
 568 236.00390625 l 2
 568 220.00390625 564.333007812 207.336914062 557 198.00390625 c 0
 547.666992188 186.00390625 533 180.00390625 513 180.00390625 c 2
 468 180.00390625 l 1
 455.333007812 109.336914062 446 60.669921875 440 34.0029296875 c 0
 433.333007812 16.0029296875 421.666015625 2.669921875 404.999023438 -5.9970703125 c 0
 395.3984375 -11.3974609375 385.797851562 -14.0986328125 376.197265625 -14.0986328125 c 0
 372.998046875 -13.9990234375 l 0
 367.665039062 -13.9990234375 362.33203125 -13.33203125 356.999023438 -11.9990234375 c 0
 340.999023438 -8.666015625 328.999023438 1.6689453125 320.999023438 19.001953125 c 0
 316.999023438 28.3349609375 314.666015625 37.66796875 313.999023438 47.0009765625 c 0
 313.999023438 55.0009765625 315.33203125 63.333984375 317.999023438 72.0009765625 c 0
 323.999023438 96.0009765625 331.666015625 131.66796875 340.999023438 179.000976562 c 1
 293.999023438 179.000976562 l 2
 274.666015625 179.000976562 258.999023438 178.66796875 246.999023438 178.000976562 c 1
 228.999023438 88.0009765625 218.999023438 41.0009765625 216.999023438 37.0009765625 c 0
 210.999023438 20.333984375 199.666015625 7.0009765625 182.999023438 -2.9990234375 c 0
 170.999023438 -10.33203125 159.666015625 -13.9990234375 148.999023438 -13.9990234375 c 0
 143.666015625 -13.9990234375 138.333007812 -13.33203125 133 -11.9990234375 c 0
 117 -8.666015625 105 2.333984375 97 21.0009765625 c 0
 93 30.333984375 91 39.333984375 91 48.0009765625 c 0
 91 57.333984375 92.6669921875 66.6669921875 96 76 c 0
 100.666992188 92 108.666992188 125.666992188 120 177 c 1
 105 177 l 2
 85.6669921875 177 70.6669921875 181 60 189 c 0
 48 197.666992188 42 209.666992188 42 225 c 2
 42 228 l 2
 42 242 47 254.333007812 57 265 c 0
 67 275 82 280.666992188 102 282 c 0
 107.333007812 282 114.333007812 282.333007812 123 283 c 2
 142 283 l 1
 171 431 l 1
EndSplineSet
Validated: 1
EndChar

StartChar: dollar
Encoding: 36 36 4
Width: 640
GlyphClass: 2
Flags: W
HStem: -32.0029 106.998<199.386 258>
VStem: 69 118<485.148 581.759> 263 117.002<-87.3984 -32.0029 92.9971 317.997 456.997 612.974> 471.033 117.967<146.588 273.466>
LayerCount: 2
Fore
SplineSet
355.5 -130 m 0
 342.5 -140 327.333984375 -145.002929688 310 -145.002929688 c 2
 308 -145.002929688 l 2
 290 -145.002929688 276.333984375 -139.002929688 267 -127.002929688 c 0
 259.66796875 -118.3359375 256 -106.668945312 256 -92.001953125 c 0
 256 -88.6689453125 256.333984375 -82.8359375 257 -74.5029296875 c 0
 257.66796875 -66.169921875 258 -52.0029296875 258 -32.0029296875 c 1
 234 -31.3359375 211 -28.0029296875 189 -22.0029296875 c 0
 167 -16.0029296875 148 -8.0029296875 132 1.9970703125 c 0
 100 21.9970703125 76.333984375 45.9970703125 61 73.9970703125 c 0
 54.333984375 88.6640625 51 101.997070312 51 113.997070312 c 0
 51 117.997070312 51.333984375 121.6640625 52 124.997070312 c 0
 55.333984375 140.330078125 64.666015625 151.330078125 80 157.997070312 c 0
 88.666015625 161.997070312 95.333984375 164.497070312 100 165.497070312 c 0
 104.66796875 166.497070312 108.66796875 166.997070312 112 166.997070312 c 0
 115.333984375 166.997070312 118.333984375 166.6640625 121 165.997070312 c 0
 129 165.330078125 136.333984375 162.163085938 143 156.49609375 c 0
 149.66796875 150.829101562 156.66796875 143.329101562 164 133.99609375 c 0
 177.333984375 115.329101562 192.333984375 100.662109375 209 89.9951171875 c 0
 223 81.328125 240.333984375 76.328125 261 74.9951171875 c 1
 262.333984375 174.328125 263 263.661132812 263 342.994140625 c 1
 261 342.994140625 257.333984375 343.661132812 252 344.994140625 c 0
 248 345.661132812 242.66796875 345.994140625 236 345.994140625 c 0
 208.66796875 348.661132812 183.66796875 355.328125 161 365.995117188 c 0
 140.333984375 376.662109375 123.333984375 389.329101562 110 403.99609375 c 0
 96.66796875 418.663085938 86.5 434.330078125 79.5 450.997070312 c 0
 72.5 467.6640625 69 484.6640625 69 501.997070312 c 0
 69 526.6640625 72.833984375 550.331054688 80.5 572.998046875 c 0
 88.16796875 595.665039062 100 616.83203125 116 636.499023438 c 0
 132 656.166015625 153.333984375 672.999023438 180 686.999023438 c 0
 205.333984375 699.666015625 233.666992188 708.999023438 265 714.999023438 c 1
 265.666992188 728.33203125 266 743.999023438 266 761.999023438 c 1
 266.666992188 793.999023438 277.666992188 814.33203125 299 822.999023438 c 0
 306.33203125 825.666015625 315.33203125 826.999023438 326 826.999023438 c 0
 348 826.999023438 364 819.999023438 374 805.999023438 c 0
 381.33203125 795.999023438 385.33203125 782.33203125 386 764.999023438 c 2
 386 723.999023438 l 1
 401.33203125 722.666015625 421.666015625 718.999023438 446.999023438 712.999023438 c 0
 472.33203125 707.666015625 491.6640625 702.666015625 504.998046875 697.999023438 c 0
 520.331054688 692.666015625 531.6640625 683.666015625 538.99609375 670.999023438 c 0
 544.330078125 661.666015625 546.99609375 651.999023438 546.99609375 641.999023438 c 0
 546.99609375 638.666015625 546.6640625 635.333007812 545.99609375 632 c 0
 544.6640625 622 540.831054688 613.833007812 534.498046875 607.5 c 0
 528.1640625 601.166992188 520.33203125 597.333984375 510.999023438 596.000976562 c 0
 506.33203125 595.333984375 502.33203125 595.000976562 498.999023438 595.000976562 c 0
 495.666015625 595.000976562 491.83203125 595.16796875 487.5 595.500976562 c 0
 483.166992188 595.833984375 477.666992188 597.000976562 471 599.000976562 c 0
 463.666992188 600.333984375 455 603.333984375 445 608.000976562 c 0
 425 616.66796875 404.666992188 621.66796875 384 623.000976562 c 1
 382.666992188 558.333984375 381.666992188 497.000976562 381 439.000976562 c 1
 411 434.333984375 438.666992188 427.333984375 464 418.000976562 c 0
 488 408.000976562 507.83203125 396.000976562 523.5 382.000976562 c 0
 539.166992188 368.000976562 552.166992188 352.000976562 562.5 334.000976562 c 0
 572.83203125 316.000976562 579.83203125 298.333984375 583.5 281.000976562 c 0
 587.166992188 263.66796875 589 245.66796875 589 227.000976562 c 0
 589 195.66796875 583.5 166.16796875 572.5 138.500976562 c 0
 561.5 110.833984375 546.166992188 86.6669921875 526.5 66 c 0
 506.83203125 45.3330078125 484 27.666015625 458 12.9990234375 c 0
 433.33203125 -0.333984375 406.33203125 -10.6669921875 377 -18 c 1
 377 -52 377.666992188 -75.3330078125 379 -88 c 0
 376.33203125 -106 368.5 -120 355.5 -130 c 0
212 584.997070312 m 0
 195.333984375 569.6640625 187 551.6640625 187 530.997070312 c 0
 187 512.997070312 194.66796875 497.330078125 210 483.997070312 c 0
 223.333984375 471.997070312 241 462.997070312 263 456.997070312 c 1
 263.66796875 498.330078125 264 551.330078125 264 615.997070312 c 1
 243.333984375 607.997070312 226 597.6640625 212 584.997070312 c 0
441 136.997070312 m 0
 461.021484375 157.017578125 471.033203125 179.85546875 471.033203125 205.506835938 c 0
 471.033203125 214.470703125 470.65625 226.20703125 467.001953125 238.998046875 c 0
 464.334960938 248.331054688 459.334960938 258.6640625 452.001953125 269.997070312 c 0
 439.334960938 288.6640625 415.334960938 304.6640625 380.001953125 317.997070312 c 1
 379.334960938 241.330078125 378.834960938 191.330078125 378.501953125 167.997070312 c 0
 378.16796875 144.6640625 377.66796875 119.6640625 377.001953125 92.9970703125 c 1
 402.334960938 104.997070312 423.66796875 119.6640625 441 136.997070312 c 0
EndSplineSet
Validated: 1
EndChar

StartChar: percent
Encoding: 37 37 5
Width: 640
GlyphClass: 2
Flags: W
HStem: -40.0039 101.001<429.769 494.75> 158.997 98<432.895 500.971> 420 98.9961<141.256 207.686> 607.996 97.0039<143.148 212.395>
VStem: 37 96.001<530.28 596.587> 221 103.001<529.373 597.165> 316 104.999<72.8275 145.526> 508.001 94.999<71.4058 144.619>
LayerCount: 2
Fore
SplineSet
51.501953125 491.5 m 0xfd
 41.8349609375 511.833007812 37 533.333007812 37 556 c 2
 37 558 l 2
 37 600 49.5 635 74.5 663 c 0
 99.5 691 135.666992188 705 183 705 c 0
 223.666992188 705 257.333984375 693 284.000976562 669 c 0
 298.000976562 656.333007812 308.66796875 640 316.000976562 620 c 0
 321.333984375 604 324.000976562 586 324.000976562 566 c 0
 324.000976562 516 309.66796875 478.333007812 281.000976562 453 c 0
 255.66796875 431 218.000976562 420 168.000976562 420 c 0
 140.66796875 420 116.834960938 426.833007812 96.501953125 440.5 c 0
 76.1689453125 454.166992188 61.1689453125 471.166992188 51.501953125 491.5 c 0xfd
85 -45 m 0
 76.3330078125 -41 69.3330078125 -36.00390625 64 -30.00390625 c 0
 56.6669921875 -22.00390625 53 -12.50390625 53 -1.50390625 c 0
 53 9.49609375 56.3330078125 21.3291015625 63 33.99609375 c 0
 77 61.99609375 110.333007812 120.329101562 163 208.99609375 c 0
 276.333007812 387.663085938 333 477.330078125 333 477.997070312 c 0
 389.666992188 567.997070312 427.666992188 632.6640625 447 671.997070312 c 1
 447 664.6640625 447.333007812 664.997070312 448 672.997070312 c 1
 458.666992188 687.6640625 472.333984375 696.331054688 489.000976562 698.998046875 c 0
 493.66796875 700.331054688 498.334960938 700.998046875 503.001953125 700.998046875 c 0
 513.668945312 700.998046875 524.001953125 698.331054688 534.001953125 692.998046875 c 0
 549.334960938 685.665039062 558.001953125 675.33203125 560.001953125 661.999023438 c 0
 560.668945312 659.33203125 561.001953125 656.665039062 561.001953125 653.998046875 c 0
 561.001953125 642.665039062 556.668945312 630.33203125 548.001953125 616.999023438 c 0
 523.334960938 577.666015625 461.66796875 477.333007812 363.000976562 316 c 0
 262.333984375 154.666992188 195.666992188 45.6669921875 163 -11 c 0
 147.666992188 -37.6669921875 129.666992188 -51 109 -51 c 0
 101.666992188 -51 93.6669921875 -49 85 -45 c 0
209.5 597.49609375 m 0
 201.833007812 604.49609375 190 607.99609375 174 607.99609375 c 0
 161.333007812 607.99609375 152 604.329101562 146 596.99609375 c 0
 138.666992188 588.329101562 134.333984375 575.99609375 133.000976562 559.99609375 c 2
 133.000976562 556.99609375 l 2
 133.000976562 544.99609375 135.66796875 535.99609375 141.000976562 529.99609375 c 0
 146.333984375 523.99609375 158.666992188 520.329101562 178 518.99609375 c 2
 179 518.99609375 l 2
 191.666992188 518.99609375 201.333984375 522.329101562 208.000976562 528.99609375 c 0
 215.333984375 536.99609375 219.666992188 547.663085938 221 560.99609375 c 2
 221 563.99609375 l 2
 221 579.329101562 217.166992188 590.49609375 209.5 597.49609375 c 0
331.5 34.49609375 m 0
 321.166992188 55.49609375 316 77.9970703125 316 101.997070312 c 2
 316 103.997070312 l 2xfb
 316 147.997070312 329.666992188 184.497070312 357 213.497070312 c 0
 384.333007812 242.497070312 422.333007812 256.997070312 471 256.997070312 c 0
 509 256.997070312 541 244.6640625 567 219.997070312 c 0
 580.333007812 207.330078125 590 189.997070312 596 167.997070312 c 0
 600.666992188 151.997070312 603 134.330078125 603 114.997070312 c 0
 603 108.330078125 602.666992188 101.663085938 602 94.99609375 c 0
 600 50.99609375 587.333007812 17.49609375 564 -5.50390625 c 0
 540.666992188 -28.50390625 505.666992188 -40.00390625 459 -40.00390625 c 2
 454 -40.00390625 l 2
 426 -39.3369140625 401.166992188 -32.00390625 379.5 -18.00390625 c 0
 357.833007812 -4.00390625 341.833007812 13.49609375 331.5 34.49609375 c 0
466 60.9970703125 m 0
 466.666992188 60.9970703125 467.668945312 60.6640625 469.001953125 59.9970703125 c 0
 481.001953125 59.9970703125 489.668945312 63.6640625 495.001953125 70.9970703125 c 0
 502.334960938 79.6640625 506.66796875 91.6640625 508.000976562 106.997070312 c 2
 508.000976562 108.997070312 l 2
 508.000976562 124.997070312 505.000976562 136.997070312 499.000976562 144.997070312 c 0
 492.333984375 154.330078125 480.666992188 158.997070312 464 158.997070312 c 0
 451.333007812 158.997070312 441.666015625 154.6640625 434.999023438 145.997070312 c 0
 426.999023438 135.997070312 422.33203125 122.6640625 420.999023438 105.997070312 c 2
 420.999023438 102.997070312 l 2
 420.999023438 89.6640625 423.83203125 79.4970703125 429.499023438 72.4970703125 c 0
 435.166015625 65.4970703125 447.333007812 61.6640625 466 60.9970703125 c 0
EndSplineSet
Validated: 1
EndChar

StartChar: ampersand
Encoding: 38 38 6
Width: 640
GlyphClass: 2
Flags: W
HStem: -53.9932 118<207.518 333.751> 633.005 103<263.923 353.088>
VStem: 48.999 124.001<100.286 273.189> 135.999 119.001<504.635 620.91> 370 108<508.115 617.229>
LayerCount: 2
Fore
SplineSet
577.000976562 11 m 0xd8
 577.000976562 7.6669921875 576.666992188 4.0048828125 576 0.0048828125 c 0
 573.333007812 -23.328125 565.333007812 -38.6611328125 552 -45.994140625 c 0
 539.333007812 -50.6611328125 531.333007812 -52.994140625 528 -52.994140625 c 2
 527 -52.994140625 l 2
 518.333007812 -52.994140625 509 -50.6611328125 499 -45.994140625 c 0
 481.666992188 -37.3271484375 467 -22.3271484375 455 -0.994140625 c 0
 453 2.3388671875 449.833007812 9.8388671875 445.5 21.505859375 c 0
 441.166992188 33.1728515625 438 41.6728515625 436 47.005859375 c 1
 421 27.505859375 l 2
 417.666992188 23.1728515625 412 16.83984375 404 8.5068359375 c 0
 396 0.173828125 389.166992188 -6.326171875 383.5 -10.9931640625 c 0
 377.833007812 -15.66015625 370.165039062 -21.16015625 360.499023438 -27.4931640625 c 0
 350.83203125 -33.826171875 341.33203125 -38.4931640625 331.999023438 -41.4931640625 c 0
 322.665039062 -44.4931640625 311.999023438 -47.326171875 299.999023438 -49.9931640625 c 0
 287.999023438 -52.66015625 275.665039062 -53.9931640625 262.999023438 -53.9931640625 c 0
 222.999023438 -53.9931640625 186.499023438 -43.826171875 153.499023438 -23.4931640625 c 0
 120.499023438 -3.16015625 94.83203125 23.6728515625 76.4990234375 57.005859375 c 0
 58.166015625 90.3388671875 48.9990234375 126.338867188 48.9990234375 165.005859375 c 0xe8
 48.9990234375 223.005859375 59.666015625 272.672851562 80.9990234375 314.005859375 c 0
 106.33203125 362.672851562 145.999023438 400.672851562 199.999023438 428.005859375 c 1
 182.499023438 455.505859375 l 2
 175.499023438 466.505859375 170.165039062 475.005859375 166.499023438 481.005859375 c 0
 162.83203125 487.005859375 158.499023438 494.838867188 153.499023438 504.505859375 c 0
 148.499023438 514.172851562 144.999023438 522.672851562 142.999023438 530.005859375 c 0
 138.33203125 550.005859375 135.999023438 569.672851562 135.999023438 589.005859375 c 0
 135.999023438 601.672851562 137.665039062 614.505859375 140.999023438 627.505859375 c 0
 144.33203125 640.505859375 150.33203125 653.672851562 158.999023438 667.005859375 c 0
 167.665039062 680.338867188 178.333007812 692.171875 191 702.504882812 c 0
 203.666992188 712.837890625 220 721.004882812 240 727.004882812 c 0
 260 733.004882812 282.333007812 736.004882812 307 736.004882812 c 0
 327.666992188 736.004882812 348 732.837890625 368 726.504882812 c 0
 388 720.171875 406.333007812 710.671875 423 698.004882812 c 0
 439.666992188 685.337890625 453 668.670898438 463 648.00390625 c 0
 473 627.336914062 478 604.336914062 478 579.00390625 c 0
 478 556.336914062 475 535.169921875 469 515.502929688 c 0
 463 495.8359375 455.5 479.3359375 446.5 466.002929688 c 0
 437.5 452.669921875 426.333007812 440.169921875 413 428.502929688 c 0
 399.666992188 416.8359375 388.333007812 408.002929688 379.000976562 402.002929688 c 0
 369.66796875 396.002929688 360.000976562 390.669921875 350.000976562 386.002929688 c 1
 362.000976562 366.002929688 378.833007812 340.8359375 400.500976562 310.502929688 c 0
 422.16796875 280.169921875 438.000976562 257.669921875 448.000976562 243.002929688 c 1
 450.000976562 247.002929688 452.833007812 253.169921875 456.500976562 261.502929688 c 0
 460.16796875 269.8359375 463.834960938 278.002929688 467.500976562 286.002929688 c 0
 471.168945312 294.002929688 474.3359375 300.002929688 477.002929688 304.002929688 c 0
 490.3359375 324.002929688 503.668945312 336.3359375 517.000976562 341.002929688 c 0
 522.334960938 343.002929688 528.000976562 344.002929688 534.000976562 344.002929688 c 0
 543.334960938 344.002929688 552.66796875 341.669921875 562.000976562 337.002929688 c 0
 577.333007812 329.669921875 586.333007812 317.002929688 589.000976562 299.002929688 c 0
 589.66796875 295.002929688 590.334960938 290.669921875 591.000976562 286.002929688 c 0
 591.000976562 272.002929688 587.000976562 257.3359375 579.000976562 242.002929688 c 0
 575.668945312 235.3359375 566.000976562 222.168945312 550.000976562 202.501953125 c 0
 534.000976562 182.834960938 521.000976562 165.66796875 511.000976562 151.000976562 c 1
 518.334960938 139.000976562 528.16796875 122.16796875 540.500976562 100.500976562 c 0
 552.833007812 78.833984375 560.333007812 65.6669921875 563.000976562 61 c 0
 572.333007812 45 577.000976562 28.3330078125 577.000976562 11 c 0xd8
255 572.004882812 m 0xd8
 255 557.337890625 259 541.338867188 267 524.005859375 c 0
 275 506.672851562 284 491.672851562 294 479.005859375 c 1
 304.666992188 482.338867188 314.166992188 486.171875 322.5 490.504882812 c 0
 330.833007812 494.837890625 339 500.337890625 347 507.004882812 c 0
 355 513.671875 360.833007812 522.004882812 364.5 532.004882812 c 0
 368.166992188 542.004882812 370 554.337890625 370 569.004882812 c 0
 370 589.671875 363.666992188 605.504882812 351 616.504882812 c 0
 338.333007812 627.504882812 322.833007812 633.004882812 304.5 633.004882812 c 0
 286.166992188 633.004882812 273 627.337890625 265 616.004882812 c 0
 258.333007812 606.004882812 255 591.337890625 255 572.004882812 c 0xd8
173 174.005859375 m 0xe8
 173 142.005859375 181.504882812 115.673828125 198.504882812 95.0068359375 c 0
 215.504882812 74.33984375 237.336914062 64.0068359375 264.004882812 64.0068359375 c 0
 278.671875 64.0068359375 294.004882812 66.673828125 310.004882812 72.0068359375 c 0
 315.336914062 74.0068359375 321.170898438 77.173828125 327.50390625 81.5068359375 c 0
 333.836914062 85.83984375 338.668945312 89.33984375 342.002929688 92.0068359375 c 0
 345.3359375 94.673828125 349.668945312 99.0068359375 355.000976562 105.006835938 c 0
 360.334960938 111.006835938 364.000976562 115.173828125 366.000976562 117.506835938 c 0
 368.000976562 119.83984375 370.668945312 123.506835938 374.000976562 128.506835938 c 0
 377.334960938 133.506835938 379.66796875 136.673828125 381.000976562 138.006835938 c 0
 371.66796875 158.006835938 362.66796875 176.006835938 354.000976562 192.006835938 c 0
 346.000976562 207.33984375 331.000976562 230.672851562 309.000976562 262.005859375 c 0
 287.000976562 293.338867188 270.66796875 317.338867188 260.000976562 334.005859375 c 1
 245.333007812 326.672851562 232.666992188 318.005859375 222 308.005859375 c 0
 209.333007812 296.005859375 199.5 283.005859375 192.5 269.005859375 c 0
 185.5 255.005859375 180.5 240.338867188 177.5 225.005859375 c 0
 174.5 209.672851562 173 192.672851562 173 174.005859375 c 0xe8
EndSplineSet
Validated: 1
EndChar

StartChar: quotesingle
Encoding: 39 39 7
Width: 640
GlyphClass: 2
Flags: W
VStem: 255 130<452.314 772.656> 255 122<449.441 601.295>
LayerCount: 2
Fore
SplineSet
385 728 m 2x80
 385 687.000976562 l 2x80
 385 669.000976562 384.665039062 641.333984375 383.998046875 604.000976562 c 0
 382.665039062 546.000976562 380.33203125 506.000976562 377 484.000976562 c 0x40
 374.33203125 466.66796875 367 453.66796875 355 445.000976562 c 0
 344.33203125 437.66796875 332.665039062 434.000976562 319.998046875 434.000976562 c 0
 302.665039062 434.000976562 287.33203125 439.000976562 274 449.000976562 c 0
 261.33203125 458.333984375 255 471.333984375 255 488.000976562 c 0
 255 490.000976562 255.33203125 491.66796875 256 493.000976562 c 0
 257.33203125 519.66796875 258 549.66796875 258 583.000976562 c 0
 258 630.333984375 257 680.000976562 255 732.000976562 c 2
 255 735.000976562 l 2
 255 744.333984375 257 752.666992188 261 760 c 0
 265.666015625 768 272.333007812 774 281 778 c 0
 293 782.666992188 305.333007812 785 318 785 c 0
 328 785 336 784 342 782 c 0
 348.66796875 780 355 777.333007812 361 774 c 0
 368.333007812 770 374 763.666992188 378 755 c 0
 382 747 384.333007812 738 385 728 c 2x80
EndSplineSet
Validated: 1
EndChar

StartChar: parenleft
Encoding: 40 40 8
Width: 640
GlyphClass: 2
Flags: W
HStem: -144 109<388.685 466.53> 721 105.053<374.656 464.499>
VStem: 157.999 122.75<154.284 548.553>
LayerCount: 2
Fore
SplineSet
481.000976562 -93 m 0
 481.000976562 -107.666992188 475.331054688 -119.666992188 463.998046875 -129 c 0
 452.665039062 -138.333007812 440.665039062 -143.333007812 427.998046875 -144 c 0
 379.998046875 -144 336.998046875 -127 298.998046875 -93 c 0
 260.998046875 -59 230.331054688 -13 206.998046875 45 c 0
 183.665039062 103 168.333007812 169.666992188 160.999023438 245 c 0
 158.999023438 265.666992188 157.999023438 291.333984375 157.999023438 322.000976562 c 0
 157.999023438 352.66796875 159.999023438 391.000976562 163.999023438 437.000976562 c 0
 170.666015625 516.333984375 183.999023438 581.666992188 203.999023438 633 c 0
 212.666015625 656.333007812 224.333007812 679 239.000976562 701 c 0
 253.666992188 723 271.000976562 743.666992188 291.000976562 763 c 0
 310.333007812 781.666992188 332.000976562 797 356.000976562 809 c 0
 379.368164062 820.368164062 402.436523438 826.052734375 425.206054688 826.052734375 c 0
 426.471679688 826.052734375 427.736328125 826.03515625 429.000976562 826 c 0
 447.666992188 826 461.666992188 820.333007812 471.000976562 809 c 0
 478.333007812 800.333007812 482.000976562 788.333007812 482.000976562 773 c 0
 482.000976562 755 476.333007812 741.666992188 465.000976562 733 c 0
 454.333007812 725 441.666015625 721 426.999023438 721 c 0
 412.333007812 721 398.333007812 716.333007812 384.999023438 707 c 0
 371.666015625 698.333007812 359.666015625 686 348.999023438 670 c 0
 327.666015625 638 311.666015625 598 300.999023438 550 c 0
 292.333007812 514.666992188 286.333007812 467.666992188 282.999023438 409 c 0
 281.499023438 386 280.749023438 364.875976562 280.749023438 345.626953125 c 0
 280.749023438 339.208984375 280.833007812 333.000976562 280.999023438 327 c 0
 280.999023438 303 281.666015625 281.666992188 282.999023438 263 c 0
 286.333007812 223.666992188 293.333007812 185 303.999023438 147 c 0
 314.666015625 109 327.333007812 77 342.000976562 51 c 0
 356.000976562 24.3330078125 371.000976562 3 387.000976562 -13 c 0
 401.666992188 -27.6669921875 415.333984375 -35 428.000976562 -35 c 0
 444.000976562 -35 457.000976562 -39.3330078125 467.000976562 -48 c 0
 476.333984375 -56.6669921875 481.000976562 -71.6669921875 481.000976562 -93 c 0
EndSplineSet
Validated: 1
EndChar

StartChar: parenright
Encoding: 41 41 9
Width: 640
GlyphClass: 2
Flags: W
HStem: -144 109<173.412 251.235> 721.001 105.1<175.502 265.734>
VStem: 359.251 122.749<154.284 545.5>
LayerCount: 2
Fore
SplineSet
212 -144 m 0
 199.333007812 -144 187.333984375 -138.999023438 176.000976562 -128.999023438 c 0
 164.66796875 -119.666015625 159.000976562 -107.666015625 159.000976562 -92.9990234375 c 0
 159.000976562 -71.666015625 163.66796875 -56.666015625 173.000976562 -47.9990234375 c 0
 181.711914062 -39.2880859375 193.6171875 -34.93359375 208.71484375 -34.93359375 c 0
 209.793945312 -34.93359375 210.890625 -34.955078125 212.000976562 -35 c 0
 224.000976562 -35 237.333984375 -27.6669921875 252.000976562 -13 c 0
 268.66796875 3 284.000976562 24.3330078125 298.000976562 51 c 0
 312.000976562 77.6669921875 324.66796875 109.666992188 336.000976562 147 c 0
 346.66796875 185 353.66796875 223.666992188 357.000976562 263 c 0
 358.500976562 278 359.250976562 294.124023438 359.250976562 311.373046875 c 0
 359.250976562 317.124023438 359.16796875 322.999023438 359.000976562 329 c 0
 359.000976562 352.333007812 358.333984375 379 357.000976562 409 c 0
 353.66796875 467.666992188 347.66796875 514.666992188 339.000976562 550 c 0
 328.333984375 597.333007812 312.333984375 637.333007812 291.000976562 670 c 0
 281.000976562 686 269.000976562 698.333007812 255.000976562 707 c 0
 241.66796875 715.666992188 227.66796875 720.333984375 213.000976562 721.000976562 c 0
 198.333984375 721.000976562 185.66796875 725.000976562 175 733.000976562 c 0
 163.66796875 741.66796875 158 755.000976562 158 773.000976562 c 0
 158 783.000976562 159.66796875 792.000976562 163 800.000976562 c 0
 166.333007812 807.333984375 171.333007812 813.333984375 178 818.000976562 c 0
 186.399414062 823.400390625 196.149414062 826.100585938 207.25 826.100585938 c 0
 208.482421875 826.100585938 209.734375 826.067382812 211 826.000976562 c 0
 235.66796875 826.000976562 260 820.333984375 284 809.000976562 c 0
 308 797.000976562 329.66796875 781.66796875 349 763.000976562 c 0
 368.333007812 744.333984375 385.333007812 723.666992188 400 701 c 0
 414.66796875 679 426.66796875 656.333007812 436 633 c 0
 455.333007812 581.666992188 468.666015625 516.333984375 476 437.000976562 c 0
 480 391.000976562 482 352.66796875 482 322.000976562 c 0
 482 291.333984375 481 265.666992188 479 245 c 0
 471.666015625 169.666992188 456.333007812 103 433 45 c 0
 409.66796875 -13 378.66796875 -59 340 -93 c 0
 302.66796875 -127 260 -144 212 -144 c 0
EndSplineSet
Validated: 1
EndChar

StartChar: asterisk
Encoding: 42 42 10
Width: 640
GlyphClass: 2
Flags: W
HStem: 281.004 127.999<73.5334 216.975> 289.002 119.001<414.147 569.842> 294.001 101.002<413.002 528.874>
LayerCount: 2
Fore
SplineSet
233.001953125 102 m 2x20
 222.999023438 102 l 2
 218.33203125 102 212.499023438 102.670898438 205.499023438 104.00390625 c 0
 198.499023438 105.336914062 191.666015625 108 184.999023438 112 c 0
 178.33203125 116 172.33203125 122.00390625 166.999023438 130.00390625 c 0
 161.666015625 138.00390625 157.999023438 147.336914062 155.999023438 158.00390625 c 2
 155.999023438 165.00390625 l 2
 155.999023438 175.00390625 158.666015625 185.333984375 163.999023438 196.000976562 c 2
 218.999023438 285.00390625 l 1
 175.666015625 282.336914062 142.666015625 281.00390625 119.999023438 281.00390625 c 0
 99.9990234375 281.00390625 84.33203125 287.670898438 72.9990234375 301.00390625 c 0
 62.9990234375 313.00390625 57.666015625 327.00390625 56.9990234375 343.00390625 c 2
 56.9990234375 346.00390625 l 2
 56.9990234375 359.336914062 60.666015625 372.669921875 67.9990234375 386.002929688 c 0
 72.666015625 394.002929688 79.666015625 400.002929688 88.9990234375 404.002929688 c 0
 96.33203125 407.3359375 104.33203125 409.002929688 112.999023438 409.002929688 c 2
 117.999023438 409.002929688 l 2x80
 144.666015625 407.002929688 182.333007812 404.3359375 231 401.002929688 c 1
 207.666992188 439.669921875 188 470.002929688 172 492.002929688 c 0
 162.666992188 507.3359375 158 522.3359375 158 537.002929688 c 0
 158 539.669921875 158.333007812 542.336914062 159 545.00390625 c 0
 161 563.670898438 169 576.670898438 183 584.00390625 c 0
 191.666992188 589.336914062 201.5 592.00390625 212.5 592.00390625 c 0
 223.5 592.00390625 234.666992188 588.669921875 246 582.002929688 c 0
 257.333007812 575.3359375 266.333007812 565.669921875 273 553.002929688 c 0
 279.666992188 539.002929688 295.666992188 507.669921875 321 459.002929688 c 1
 340.333007812 493.669921875 356.333007812 524.669921875 369 552.002929688 c 0
 375 564.669921875 383.333007812 574.169921875 394 580.502929688 c 0
 404.666992188 586.8359375 415 590.002929688 425 590.002929688 c 0
 435.666992188 590.002929688 445.666992188 587.3359375 455 582.002929688 c 0
 463.666992188 577.3359375 470.666992188 570.502929688 476 561.502929688 c 0
 481.333007812 552.502929688 484 542.002929688 484 530.002929688 c 0
 484 516.669921875 480 504.336914062 472 493.00390625 c 0
 454 466.336914062 434 433.669921875 412 395.002929688 c 1x20
 458 395.669921875 491.333007812 399.002929688 512 405.002929688 c 0
 520.666992188 407.002929688 526.333984375 408.002929688 529.000976562 408.002929688 c 0x40
 541.66796875 408.002929688 552.66796875 403.669921875 562.000976562 395.002929688 c 0x20
 575.333984375 382.3359375 582.333984375 368.668945312 583.000976562 354.001953125 c 0
 583.000976562 339.334960938 579.333984375 325.334960938 572.000976562 312.001953125 c 0
 567.333984375 304.001953125 561.000976562 297.668945312 553.000976562 293.001953125 c 0
 547.000976562 290.334960938 540.66796875 289.001953125 534.000976562 289.001953125 c 0x40
 530.66796875 289.001953125 527.334960938 289.334960938 524.001953125 290.001953125 c 0
 510.114257812 292.779296875 487.432617188 294.16796875 455.956054688 294.16796875 c 0
 449.65625 294.16796875 443.005859375 294.112304688 436.001953125 294.000976562 c 2
 413.001953125 294.000976562 l 1
 470.001953125 196.000976562 l 2
 477.334960938 181.333984375 481.001953125 168.000976562 481.001953125 156.000976562 c 0
 481.001953125 153.333984375 480.668945312 150.666992188 480.001953125 148 c 0
 478.001953125 132 471.001953125 120.666992188 459.001953125 114 c 0
 449.668945312 108 438.001953125 105 424.001953125 105 c 0
 413.334960938 105 402.66796875 107.333007812 392.000976562 112 c 0
 378.66796875 118 369.66796875 128 365.000976562 142 c 0
 357.66796875 164 344.334960938 194.666992188 325.001953125 234 c 1
 300.334960938 184.666992188 284.66796875 151.666992188 278.000976562 135 c 0
 274.66796875 124.333007812 268.834960938 116.333007812 260.501953125 111 c 0
 252.168945312 105.666992188 243.001953125 102.666992188 233.001953125 102 c 2x20
EndSplineSet
Validated: 1
EndChar

StartChar: plus
Encoding: 43 43 11
Width: 640
GlyphClass: 2
Flags: W
HStem: 346 105.998<132.472 266 371 509.621>
VStem: 266 105<209.378 344.998 452.998 593.588>
LayerCount: 2
Fore
SplineSet
370.000976562 347 m 1
 371 249.999023438 l 2
 371 230.666015625 366.333007812 216.999023438 357 208.999023438 c 0
 347.666992188 200.33203125 336 195.665039062 322 194.998046875 c 2
 321 194.998046875 l 2
 305 194.998046875 292.666992188 198.665039062 284 205.998046875 c 0
 272 215.331054688 266 229.998046875 266 249.998046875 c 2
 266 344.998046875 l 1
 177 343.998046875 l 2
 157 343.998046875 142 349.331054688 132 359.998046875 c 0
 121.333007812 370.665039062 116 383.665039062 116 398.998046875 c 2
 116 401.998046875 l 2
 116 415.998046875 120.666992188 428.331054688 130 438.998046875 c 0
 140 449.665039062 154.333007812 454.998046875 173 454.998046875 c 0
 174.333007812 454.998046875 185 454.665039062 205 453.998046875 c 0
 225 453.331054688 245.333007812 452.998046875 266 452.998046875 c 1
 266 492.331054688 265 525.6640625 263 552.997070312 c 0
 263 571.6640625 269.333007812 585.331054688 282 593.998046875 c 0
 291.333007812 600.665039062 303.333007812 603.998046875 318 603.998046875 c 2
 322 603.998046875 l 2
 336 603.998046875 348 600.665039062 358 593.998046875 c 0
 369.333007812 585.998046875 375 572.998046875 375 554.998046875 c 2
 375 548.998046875 l 2
 373 514.998046875 371.666992188 482.665039062 371 451.998046875 c 1
 469 451.998046875 l 2
 488.333007812 451.998046875 502 447.331054688 510 437.998046875 c 0
 518 428.665039062 522.666992188 416.998046875 524 402.998046875 c 2
 524 401.998046875 l 2
 524 394.665039062 523.333007812 388.33203125 522 382.999023438 c 0
 520.666992188 376.999023438 518 370.999023438 514 364.999023438 c 0
 509.333007812 357.666015625 503 352.333007812 495 349 c 0
 489 347 482.333007812 346 475 346 c 2
 468 346 l 2
 458 347.333007812 443.666992188 348 425 348 c 0
 405.666992188 348 387.333984375 347.666992188 370.000976562 347 c 1
EndSplineSet
Validated: 1
EndChar

StartChar: comma
Encoding: 44 44 12
Width: 640
GlyphClass: 2
Flags: W
VStem: 205.001 229.998
LayerCount: 2
Fore
SplineSet
290.997070312 -223 m 0
 280.330078125 -227 270.999023438 -228.999023438 262.999023438 -228.999023438 c 0
 254.999023438 -228.999023438 247.999023438 -227.666015625 241.999023438 -224.999023438 c 0
 233.333007812 -222.33203125 225.333007812 -217.33203125 217.999023438 -209.999023438 c 0
 210.666015625 -202.666015625 206.333007812 -193.333007812 205.000976562 -182 c 2
 205.000976562 -176 l 2
 205.000976562 -166 208.333007812 -156 215.000976562 -146 c 0
 228.333007812 -127.333007812 247.000976562 -84.3330078125 271.000976562 -17 c 0
 295.000976562 49 310.000976562 96 316.000976562 124 c 0
 318.666992188 136 324.666992188 145.333007812 334.000976562 152 c 0
 343.333007812 159.333007812 353.666015625 163 364.999023438 163 c 2
 366.999023438 163 l 2
 374.999023438 163 383.333007812 162.333007812 391.999023438 161 c 0
 405.333007812 157 416.333007812 149 424.999023438 137 c 0
 431.666015625 127.666992188 434.999023438 117.333984375 434.999023438 106.000976562 c 0
 434.999023438 101.333984375 434.666015625 97.333984375 433.999023438 94.0009765625 c 0
 427.333007812 61.333984375 412.665039062 10.6669921875 389.998046875 -58 c 0
 367.331054688 -127.333007812 349.998046875 -170.333007812 337.998046875 -187 c 0
 325.331054688 -204.333007812 309.665039062 -216.333007812 290.997070312 -223 c 0
EndSplineSet
Validated: 1
EndChar

StartChar: hyphen
Encoding: 45 45 13
Width: 640
GlyphClass: 2
Flags: W
HStem: 230.001 111.999<171.44 470.172> 239.002 106<333.731 472.621>
LayerCount: 2
Fore
SplineSet
207 342 m 0x80
 245 342 290 342.333984375 342 343.000976562 c 0
 394.666992188 343.66796875 424.666992188 344.334960938 432 345.001953125 c 0
 451.333007812 345.001953125 465 340.334960938 473 331.001953125 c 0
 481 321.668945312 485.666992188 310.001953125 487 296.001953125 c 2
 487 295.001953125 l 2
 487 279.001953125 483.333007812 266.668945312 476 258.001953125 c 0
 466.666992188 246.001953125 452 239.668945312 432 239.001953125 c 0x40
 423.333007812 239.001953125 389.666015625 237.668945312 330.999023438 235.001953125 c 0
 272.33203125 232.334960938 231.33203125 230.66796875 207.999023438 230.000976562 c 0
 192.666015625 230.000976562 180.333007812 234.000976562 171 242.000976562 c 0
 159 251.333984375 153 265.666992188 153 285 c 2
 153 290 l 2
 153 308.666992188 159 322.666992188 171 332 c 0
 179.666992188 338.666992188 191.666992188 342 207 342 c 0x80
EndSplineSet
Validated: 1
EndChar

StartChar: period
Encoding: 46 46 14
Width: 640
GlyphClass: 2
Flags: W
HStem: -26 178.037<262.144 380.352>
VStem: 226.481 187.037<6.96988 117.608>
LayerCount: 2
Fore
SplineSet
312.481445312 -26 m 2
 289.1484375 -26 269.481445312 -18 253.481445312 -2 c 0
 235.481445312 16.6669921875 226.481445312 38.333984375 226.481445312 63.0009765625 c 0
 226.481445312 87.66796875 236.481445312 108.66796875 256.481445312 126.000976562 c 0
 276.411132812 143.357421875 298.508789062 152.037109375 322.776367188 152.037109375 c 0
 323.674804688 152.037109375 324.577148438 152.024414062 325.481445312 152.000976562 c 0
 350.815429688 152.000976562 371.815429688 144.000976562 388.481445312 128.000976562 c 0
 405.172851562 111.310546875 413.518554688 91.5283203125 413.518554688 68.6552734375 c 0
 413.518554688 55.5234375 412.8828125 28.376953125 389.481445312 4 c 0
 372.813476562 -12.6669921875 350.813476562 -22.6669921875 323.481445312 -26 c 2
 312.481445312 -26 l 2
EndSplineSet
Validated: 1
EndChar

StartChar: slash
Encoding: 47 47 15
Width: 640
GlyphClass: 2
Flags: W
HStem: 746.004 20G<512.917 523.583>
LayerCount: 2
Fore
SplineSet
136.25 -67 m 0
 126.916992188 -71.6669921875 117.58203125 -73.9970703125 108.249023438 -73.9970703125 c 0
 98.916015625 -73.9970703125 90.2490234375 -71.330078125 82.2490234375 -65.9970703125 c 0
 68.916015625 -57.9970703125 60.916015625 -42.6640625 58.2490234375 -19.9970703125 c 0
 57.58203125 -16.6640625 57.58203125 -12.9970703125 58.2490234375 -8.9970703125 c 0
 58.2490234375 9.0029296875 62.916015625 25.669921875 72.2490234375 41.0029296875 c 0
 169.58203125 201.002929688 252.915039062 343.002929688 322.248046875 467.002929688 c 1
 365.581054688 543.002929688 411.581054688 629.669921875 460.248046875 727.002929688 c 0
 466.915039062 739.669921875 475.58203125 749.002929688 486.249023438 755.002929688 c 0
 496.916015625 761.669921875 507.583007812 765.336914062 518.25 766.00390625 c 0
 528.916992188 766.00390625 539.583984375 763.670898438 550.250976562 759.00390625 c 0
 565.583984375 751.00390625 575.583984375 739.00390625 580.250976562 723.00390625 c 0
 581.583984375 718.336914062 582.250976562 713.669921875 582.250976562 709.002929688 c 0
 582.250976562 697.669921875 578.91796875 685.002929688 572.250976562 671.002929688 c 0
 554.91796875 636.3359375 506.250976562 552.668945312 426.250976562 420.001953125 c 0
 346.250976562 287.334960938 297.583984375 204.66796875 280.250976562 172.000976562 c 0
 269.583984375 151.333984375 252.250976562 116.333984375 228.250976562 67.0009765625 c 0
 204.250976562 17.66796875 189.250976562 -12.33203125 183.250976562 -22.9990234375 c 0
 170.583984375 -43.666015625 154.916992188 -58.3330078125 136.25 -67 c 0
EndSplineSet
Validated: 1
EndChar

StartChar: zero
Encoding: 48 48 16
Width: 640
GlyphClass: 2
Flags: W
HStem: -24.001 107.996<230.58 390.453> 611.995 106.005<246.512 397.238>
VStem: 61 120.999<228.996 530.163> 458.999 115.999<165.933 399.325 400.71 457.995>
LayerCount: 2
Fore
SplineSet
458.999023438 457.995117188 m 1
 386.33203125 330.662109375 302.666992188 221.995117188 208 131.995117188 c 1
 226 100.662109375 255.33203125 84.662109375 295.999023438 83.9951171875 c 0
 315.33203125 83.9951171875 332 85.4951171875 346 88.4951171875 c 0
 360 91.4951171875 373.333984375 96.328125 386 102.995117188 c 0
 411.333984375 116.328125 430.666015625 143.328125 443.999023438 183.995117188 c 0
 446.666015625 191.995117188 449.666015625 213.495117188 452.999023438 248.495117188 c 0
 456.33203125 283.495117188 458.666015625 323.995117188 459.998046875 369.995117188 c 0
 460.220703125 380 460.33203125 389.930664062 460.33203125 399.787109375 c 0
 460.33203125 419.486328125 459.888671875 438.888671875 458.999023438 457.995117188 c 1
381 599.997070312 m 0
 363.666992188 607.997070312 344.666015625 611.995117188 323.999023438 611.995117188 c 0
 287.33203125 611.995117188 258.83203125 602.828125 238.499023438 584.495117188 c 0
 218.166015625 566.162109375 202.333984375 534.995117188 191 490.995117188 c 0
 186.333984375 473.662109375 183 455.329101562 181 435.99609375 c 0
 179.666992188 415.99609375 179 393.329101562 179 367.99609375 c 0
 179 327.99609375 179.999023438 281.663085938 181.999023438 228.99609375 c 1
 268.666015625 339.663085938 348 453.330078125 420 569.997070312 c 1
 408.666992188 582.6640625 395.666992188 592.6640625 381 599.997070312 c 0
574.998046875 490.995117188 m 2
 574.998046875 489.998046875 l 2
 578.331054688 450.665039062 580 410.662109375 580 369.995117188 c 0
 580 329.328125 578.666992188 289.331054688 576 249.998046875 c 0
 573.333984375 210.665039062 569 179.665039062 563 156.998046875 c 0
 551 114.331054688 536 79.6640625 518 52.9970703125 c 0
 508.666992188 39.6640625 498.166992188 28.3310546875 486.5 18.998046875 c 0
 474.833984375 9.6650390625 462.666015625 2.33203125 449.999023438 -3.0009765625 c 0
 436.666015625 -8.333984375 421.666015625 -13.0009765625 404.999023438 -17.0009765625 c 0
 387.666015625 -20.333984375 370.666015625 -22.333984375 353.999023438 -23.0009765625 c 0
 337.33203125 -23.66796875 317.999023438 -24.0009765625 295.999023438 -24.0009765625 c 0
 259.999023438 -24.0009765625 226.666015625 -18.333984375 195.999023438 -7.0009765625 c 0
 167.33203125 4.33203125 142.999023438 20.4990234375 123 41.4990234375 c 0
 103 62.4990234375 87.666015625 87.666015625 77 116.999023438 c 0
 66.33203125 146.33203125 61 177.999023438 61 211.999023438 c 2
 61 217.999023438 l 2
 61 250.666015625 60.666015625 281.333007812 60 310 c 0
 60 330.666992188 60.5 356 61.5 386 c 0
 62.5 416 64.166015625 440.833007812 66.5 460.5 c 0
 68.83203125 480.166992188 72.33203125 501.333984375 77 524.000976562 c 0
 81.666015625 547.333984375 87.666015625 567.666992188 95 585 c 0
 112.33203125 628.333007812 141.33203125 661.333007812 181.999023438 684 c 0
 225.999023438 706.666992188 279.33203125 718 341.999023438 718 c 0
 373.33203125 718 402.666015625 713.333007812 429.998046875 704 c 0
 456.666015625 694.666992188 480.166015625 680.666992188 500.498046875 662 c 0
 520.831054688 643.333007812 537.498046875 619.5 550.498046875 590.5 c 0
 563.498046875 561.5 571.666015625 528.328125 574.998046875 490.995117188 c 2
EndSplineSet
Validated: 1
EndChar

StartChar: one
Encoding: 49 49 17
Width: 640
GlyphClass: 2
Flags: W
HStem: -9.00098 110.501<109.326 256.998 388.002 571.561> -5.00098 114.001<65.4389 256.998 388.002 456.524>
VStem: 256.998 131.004<107 552.809> 267.999 123.003<266.377 552.809>
LayerCount: 2
Fore
SplineSet
588.001953125 49.9990234375 m 1xa0
 588.001953125 46.9990234375 l 2
 588.001953125 31.666015625 583.33203125 18.666015625 573.999023438 7.9990234375 c 0
 563.999023438 -3.333984375 546.999023438 -9.0009765625 522.999023438 -9.0009765625 c 0xa0
 270.33203125 -7.0009765625 131.665039062 -5.66796875 106.998046875 -5.0009765625 c 0
 88.3310546875 -5.0009765625 74.3310546875 0.33203125 64.998046875 10.9990234375 c 0
 56.3310546875 21.666015625 51.998046875 34.666015625 51.998046875 49.9990234375 c 2
 51.998046875 52.9990234375 l 2
 51.998046875 67.666015625 55.998046875 80.3330078125 63.998046875 91 c 0
 73.3310546875 103 87.998046875 109 107.998046875 109 c 0
 135.998046875 109 185.665039062 108.333007812 256.998046875 107 c 1x60
 256.998046875 127 256.665039062 143.666992188 255.998046875 157 c 0
 255.331054688 163 254.998046875 180.333007812 254.998046875 209 c 0
 254.998046875 234.333007812 255.331054688 255 255.998046875 271 c 0
 255.998046875 289 257.331054688 325 259.998046875 379 c 0
 264.665039062 480.333007812 267.33203125 539.333007812 267.999023438 556 c 1
 224.666015625 526 191.666015625 507 168.999023438 499 c 0
 160.999023438 497 155.666015625 496 152.999023438 496 c 0
 140.999023438 496 128.999023438 501 116.999023438 511 c 0
 100.999023438 524.333007812 92.9990234375 538 92.9990234375 552 c 0
 92.9990234375 565.333007812 95.9990234375 576.833007812 101.999023438 586.5 c 0
 107.999023438 596.166992188 117.666015625 606 130.999023438 616 c 0
 149.666015625 630 174.333007812 648.666992188 205 672 c 1
 217.666992188 674 230.333984375 683 243.000976562 699 c 0
 254.333984375 707 266.000976562 714.333007812 278.000976562 721 c 0
 288.909179688 727.060546875 299.267578125 730.090820312 309.07421875 730.090820312 c 0
 310.055664062 730.090820312 311.03125 730.060546875 312.000976562 730 c 0
 330.66796875 730 349.334960938 723.333007812 368.001953125 710 c 0
 378.001953125 702.666992188 385.501953125 696 390.501953125 690 c 0
 395.501953125 684 398.001953125 678 398.001953125 672 c 2
 398.001953125 671 l 2
 397.334960938 655.666992188 395.001953125 603.166992188 391.001953125 513.5 c 0x50
 387.001953125 423.833007812 385.001953125 371.333007812 385.001953125 356 c 0
 385.001953125 292 385.334960938 238.666992188 386.001953125 196 c 0
 386.001953125 174 386.668945312 143 388.001953125 103 c 1
 424.001953125 102.333007812 447.001953125 102 457.001953125 102 c 0
 466.334960938 102 478.834960938 101.833007812 494.501953125 101.5 c 0
 510.168945312 101.166992188 520.3359375 101 525.002929688 101 c 0
 547.002929688 101 562.669921875 96.1669921875 572.002929688 86.5 c 0
 581.3359375 76.8330078125 586.668945312 65 588.001953125 51 c 2
 588.001953125 49.9990234375 l 1xa0
EndSplineSet
Validated: 1
EndChar

StartChar: two
Encoding: 50 50 18
Width: 640
GlyphClass: 2
Flags: W
HStem: -18.0029 108.432<188.591 502.107> -12.0029 113.999<505.311 562.623> 506.999 21G<136.667 141.667> 612.998 109.001<248.888 412.109>
VStem: 437 126<456.851 587.935>
LayerCount: 2
Fore
SplineSet
504.998046875 101 m 1xb8
 511.665039062 109.666992188 518.66796875 109.99609375 526.000976562 101.99609375 c 0
 528.000976562 101.99609375 531.833984375 101.829101562 537.500976562 101.49609375 c 0
 543.16796875 101.163085938 547.66796875 100.163085938 551.000976562 98.49609375 c 0
 554.333984375 96.8291015625 557.666015625 94.99609375 561 92.99609375 c 0
 566.333007812 89.6630859375 570 85.6630859375 572 80.99609375 c 0
 576 72.99609375 578 63.6630859375 578 52.99609375 c 0
 578 33.6630859375 573 17.330078125 563 3.9970703125 c 0
 555 -6.669921875 544.666015625 -12.0029296875 532 -12.0029296875 c 0x78
 484.666015625 -12.0029296875 408.666015625 -14.0029296875 304 -18.0029296875 c 0
 268.666015625 -19.3359375 232.333984375 -20.0029296875 195.000976562 -20.0029296875 c 0
 160.333984375 -20.0029296875 133.333984375 -18.669921875 114 -16.0029296875 c 0
 103.333984375 -14.669921875 94 -10.3369140625 86 -3.00390625 c 0
 80 2.3291015625 75.333984375 9.3291015625 72 17.99609375 c 0
 65.333984375 35.3291015625 62 59.3291015625 62 89.99609375 c 0
 62 120.663085938 68.333984375 151.663085938 81 182.99609375 c 0
 93.66796875 214.329101562 112.66796875 244.49609375 138.000976562 273.49609375 c 0
 163.333984375 302.49609375 193.666015625 325.99609375 229 343.99609375 c 0
 307 381.99609375 357 408.663085938 379 423.99609375 c 0
 405.666015625 442.663085938 423 462.330078125 431 482.997070312 c 0
 435 495.6640625 437 511.331054688 437 529.998046875 c 0
 437 559.331054688 428 580.331054688 410 592.998046875 c 0
 390.666015625 606.331054688 361.666015625 612.998046875 323 612.998046875 c 0
 297 612.998046875 272.166015625 605.665039062 248.5 590.998046875 c 0
 224.833007812 576.331054688 206.333007812 559.998046875 193 541.998046875 c 0
 186.333007812 532.665039062 179.333007812 524.83203125 172 518.499023438 c 0
 164.666015625 512.166015625 157 508.666015625 149 507.999023438 c 0
 146.333007812 507.999023438 143.333007812 507.666015625 140 506.999023438 c 0
 133.333007812 506.999023438 122.33203125 510.33203125 107 516.999023438 c 0
 92.33203125 524.999023438 83 536.33203125 79 550.999023438 c 0
 78.33203125 554.999023438 78 558.666015625 78 561.999023438 c 0
 78 573.33203125 81.666015625 586.999023438 89 602.999023438 c 0
 96.33203125 616.999023438 107 630.83203125 121 644.499023438 c 0
 135 658.166015625 151 670.999023438 169 682.999023438 c 0
 188.333007812 694.999023438 211.333007812 704.499023438 238 711.499023438 c 0
 264.666015625 718.499023438 291.666015625 721.999023438 319 721.999023438 c 0
 401 721.999023438 462.333007812 704.999023438 503 670.999023438 c 0
 543 636.999023438 563 585.999023438 563 517.999023438 c 0
 563 461.999023438 548 416.666015625 518 381.999023438 c 0
 496 357.33203125 456 330.33203125 398 300.999023438 c 0
 383.333007812 293.666015625 358 281.666015625 322 264.999023438 c 0
 292 250.999023438 267 233.83203125 247 213.499023438 c 0
 227 193.166015625 212.333007812 172.333007812 203 151 c 0
 195.666015625 133 190.666015625 113.666992188 188 93 c 1
 221.716796875 91.28515625 253.962890625 90.4287109375 284.740234375 90.4287109375 c 0
 289.868164062 90.4287109375 294.954101562 90.4521484375 299.998046875 90.5 c 0
 335.33203125 90.8330078125 362.665039062 91.3330078125 381.998046875 92 c 0
 401.998046875 93.3330078125 442.998046875 96.3330078125 504.998046875 101 c 1xb8
EndSplineSet
Validated: 1
EndChar

StartChar: three
Encoding: 51 51 19
Width: 640
GlyphClass: 2
Flags: W
HStem: -24.0166 108.017<237.507 397.542> 306 125<199.72 363.949> 520.002 21G<139.501 146.834> 613.001 109.001<232.846 397.21>
VStem: 423.502 126.997<479.219 589.309> 448.5 124<130.061 255.137>
LayerCount: 2
Fore
SplineSet
561.5 279.5 m 0xf8
 568.833007812 257.833007812 572.5 232.330078125 572.5 202.997070312 c 0
 572.5 133.6640625 550.166992188 78.3310546875 505.5 36.998046875 c 0
 460.23046875 -3.6787109375 395.268554688 -24.0166015625 310.61328125 -24.0166015625 c 0
 309.247070312 -24.0166015625 307.875976562 -24.01171875 306.5 -24.0009765625 c 0
 279.166992188 -24.0009765625 252.166992188 -20.333984375 225.5 -13.0009765625 c 0
 198.833007812 -5.66796875 176.333007812 3.6650390625 158 14.998046875 c 0
 139.666992188 26.3310546875 123.5 38.998046875 109.5 52.998046875 c 0
 95.5 66.998046875 85 80.8310546875 78 94.498046875 c 0
 71 108.165039062 67.5 120.998046875 67.5 132.998046875 c 0
 67.5 136.998046875 68.1669921875 140.998046875 69.5 144.998046875 c 0
 72.8330078125 161.665039062 81.8330078125 173.33203125 96.5 179.999023438 c 0
 107.166992188 185.33203125 117.166992188 187.999023438 126.5 187.999023438 c 0
 146.5 187.999023438 164.5 177.33203125 180.5 155.999023438 c 0
 195.166992188 136.666015625 214.166992188 119.833007812 237.5 105.5 c 0
 260.833007812 91.1669921875 285.5 84 311.5 84 c 0
 352.166992188 84 385.166992188 93.8330078125 410.5 113.5 c 0
 435.833007812 133.166992188 448.5 158 448.5 188 c 0xf4
 448.5 207.333007812 445.166992188 223.833007812 438.5 237.5 c 0
 431.833007812 251.166992188 421.333007812 263.166992188 407 273.5 c 0
 392.666992188 283.833007812 372.333984375 291.833007812 346.000976562 297.5 c 0
 319.66796875 303.166992188 287.500976562 306 249.500976562 306 c 0
 230.16796875 306 214.16796875 312.666992188 201.500976562 326 c 0
 188.16796875 339.333007812 181.500976562 354.333007812 181.500976562 371 c 0
 181.500976562 387.666992188 186.16796875 401.666992188 195.500976562 413 c 0
 206.16796875 425 221.500976562 431 241.500976562 431 c 0
 300.16796875 431 345.834960938 440.666992188 378.501953125 460 c 0
 408.501953125 478 423.501953125 504 423.501953125 538 c 2
 423.501953125 541 l 1
 423.501953125 545 l 2
 423.501953125 567.666992188 414.168945312 584.333984375 395.501953125 595.000976562 c 0
 373.501953125 607.000976562 341.501953125 613.000976562 299.501953125 613.000976562 c 0
 286.834960938 613.000976562 273.16796875 611.000976562 258.500976562 607.000976562 c 0
 254.500976562 605.66796875 249.833984375 603.16796875 244.500976562 599.500976562 c 0
 239.16796875 595.833984375 235.000976562 592.833984375 232.000976562 590.500976562 c 0
 229.000976562 588.16796875 225.000976562 584.334960938 220.000976562 579.001953125 c 0
 215.000976562 573.668945312 211.500976562 569.668945312 209.500976562 567.001953125 c 0
 205.500976562 554.334960938 201.833984375 549.66796875 198.500976562 553.000976562 c 1
 185.16796875 535.66796875 171.500976562 525.334960938 157.500976562 522.001953125 c 0
 153.500976562 520.668945312 149.16796875 520.001953125 144.500976562 520.001953125 c 0
 134.500976562 520.001953125 124.16796875 523.001953125 113.500976562 529.001953125 c 0
 98.833984375 536.334960938 89.833984375 548.001953125 86.5009765625 564.001953125 c 0
 85.833984375 568.001953125 85.5009765625 572.001953125 85.5009765625 576.001953125 c 0
 85.5009765625 588.001953125 88.833984375 601.001953125 95.5009765625 615.001953125 c 0
 109.500976562 643.668945312 131.16796875 668.001953125 160.500976562 688.001953125 c 0
 175.833984375 698.668945312 195.166992188 707.001953125 218.5 713.001953125 c 0
 241.833007812 719.001953125 267.166015625 722.001953125 294.499023438 722.001953125 c 0
 382.499023438 722.001953125 447.499023438 705.668945312 489.499023438 673.001953125 c 0
 530.166015625 640.334960938 550.499023438 592.66796875 550.499023438 530.000976562 c 2
 550.499023438 526.000976562 l 1
 550.499023438 523.000976562 l 2
 550.499023438 504.333984375 547.666015625 486.833984375 541.999023438 470.500976562 c 0
 536.33203125 454.16796875 528.665039062 440.334960938 518.998046875 429.001953125 c 0
 509.331054688 417.668945312 497.831054688 407.668945312 484.498046875 399.001953125 c 0
 471.165039062 390.334960938 457.498046875 383.66796875 443.498046875 379.000976562 c 1
 454.165039062 375.66796875 463.83203125 372.334960938 472.499023438 369.001953125 c 0
 493.166015625 360.334960938 511.333007812 348.66796875 527 334.000976562 c 0
 542.666992188 319.333984375 554.166992188 301.166992188 561.5 279.5 c 0xf8
EndSplineSet
Validated: 1
EndChar

StartChar: four
Encoding: 52 52 20
Width: 640
GlyphClass: 2
Flags: W
HStem: -23 21G<448 463.333> 218.999 90.001<190.216 391.999 493.001 561.169>
VStem: 385.001 98.999<456.567 587.448> 390.999 102.002<37.313 218 309 587.448> 391.999 109.002<-7.4969 213.685>
LayerCount: 2
Fore
SplineSet
499.000976562 59 m 0xd0
 500.333984375 51 501.000976562 43.6669921875 501.000976562 37 c 0xc8
 501.000976562 23.6669921875 498.333984375 12 493.000976562 2 c 0xd0
 484.333984375 -14.6669921875 471.666992188 -23 455 -23 c 0
 441 -23 427.166992188 -17.8330078125 413.5 -7.5 c 0
 399.833007812 2.8330078125 392.666015625 13.666015625 391.999023438 24.9990234375 c 0xc8
 391.33203125 32.9990234375 390.999023438 45.666015625 390.999023438 62.9990234375 c 2
 390.999023438 138.999023438 l 2xd0
 390.999023438 166.33203125 391.33203125 192.999023438 391.999023438 218.999023438 c 1xc8
 346.999023438 218.999023438 l 2
 248.33203125 218.999023438 178.665039062 214.666015625 137.998046875 205.999023438 c 0
 133.331054688 204.666015625 128.331054688 204.166015625 122.998046875 204.499023438 c 0
 117.665039062 204.83203125 112.33203125 205.665039062 106.999023438 206.998046875 c 0
 97.666015625 210.331054688 90.166015625 215.498046875 84.4990234375 222.498046875 c 0
 78.83203125 229.498046875 74.4990234375 237.498046875 71.4990234375 246.498046875 c 0
 68.4990234375 255.498046875 66.9990234375 264.665039062 66.9990234375 273.998046875 c 0
 66.9990234375 284.665039062 68.666015625 294.665039062 71.9990234375 303.998046875 c 0
 78.666015625 323.331054688 96.666015625 353.831054688 125.999023438 395.498046875 c 0
 155.33203125 437.165039062 193.999023438 488.998046875 241.999023438 550.998046875 c 0
 284.666015625 605.665039062 318.666015625 650.33203125 343.999023438 684.999023438 c 0
 353.33203125 697.666015625 363.999023438 707.499023438 375.999023438 714.499023438 c 0
 387.999023438 721.499023438 399.666015625 724.999023438 410.999023438 724.999023438 c 2
 417.999023438 724.999023438 l 2
 429.999023438 724.999023438 440.999023438 722.666015625 450.999023438 717.999023438 c 0
 463.666015625 711.33203125 471.333007812 699.999023438 474 683.999023438 c 2
 474 682.999023438 l 1
 478 659.666015625 481.333007812 624.166015625 484 576.499023438 c 0xe0
 486.666992188 528.83203125 488.333984375 488.33203125 489.000976562 454.999023438 c 0
 489.66796875 405.666015625 490.66796875 356.666015625 492.000976562 307.999023438 c 1
 502.000976562 307.33203125 513.000976562 306.999023438 525.000976562 306.999023438 c 0
 542.333984375 306.999023438 554.500976562 303.166015625 561.500976562 295.499023438 c 0
 568.500976562 287.83203125 572.333984375 277.999023438 573.000976562 265.999023438 c 2
 573.000976562 265 l 2
 573.000976562 251 569.66796875 240 563.000976562 232 c 0
 555.000976562 222 542.333984375 217 525.000976562 217 c 0
 513.66796875 217 503.000976562 217.333007812 493.000976562 218 c 1
 494.333984375 125.333007812 496.333984375 72.3330078125 499.000976562 59 c 0xd0
324.000976562 309 m 2
 391.999023438 309 l 1xc8
 391.999023438 424.333007812 389.66796875 517.666015625 385.000976562 588.999023438 c 1xe0
 290.333984375 469.666015625 225.000976562 375.333007812 189.000976562 306 c 1
 226.333984375 308 271.333984375 309 324.000976562 309 c 2
EndSplineSet
Validated: 1
EndChar

StartChar: five
Encoding: 53 53 21
Width: 640
GlyphClass: 2
Flags: W
HStem: -18.002 109.001<214.765 376.839> 407.998 113.043<251.316 420.675> 594.995 112.998<296.603 557.12> 605.995 103.998<190.501 519.887>
VStem: 68.501 119<466.431 602.995> 458.498 124.003<181.147 368.764>
LayerCount: 2
Fore
SplineSet
73.5009765625 561 m 0xdc
 74.833984375 581.666992188 75.4951171875 596.993164062 75.4951171875 606.993164062 c 1
 68.7734375 617.9921875 65.4130859375 630.672851562 65.4130859375 645.033203125 c 0
 65.4130859375 658.096679688 65.94140625 681.393554688 85.49609375 698.993164062 c 0
 94.8291015625 707.66015625 105.49609375 711.993164062 117.49609375 711.993164062 c 0
 142.163085938 711.993164062 204.163085938 711.326171875 303.497070312 709.993164062 c 0xdc
 404.163085938 708.66015625 478.497070312 707.993164062 526.497070312 707.993164062 c 0
 539.163085938 707.993164062 549.497070312 702.66015625 557.497070312 691.993164062 c 0
 567.497070312 678.66015625 572.497070312 662.327148438 572.497070312 642.994140625 c 0
 572.497070312 622.994140625 566.829101562 609.661132812 555.497070312 602.994140625 c 0
 552.163085938 600.994140625 548.830078125 599.327148438 545.497070312 597.994140625 c 0
 542.165039062 596.661132812 537.665039062 595.828125 531.997070312 595.495117188 c 0
 526.330078125 595.162109375 522.330078125 594.995117188 519.997070312 594.995117188 c 0xec
 517.665039062 594.995117188 513.997070312 595.162109375 508.997070312 595.495117188 c 0
 503.997070312 595.828125 500.830078125 595.995117188 499.497070312 595.995117188 c 1
 490.165039062 595.995117188 472.831054688 597.328125 447.498046875 599.995117188 c 0
 420.831054688 601.995117188 397.331054688 603.495117188 376.998046875 604.495117188 c 0
 356.665039062 605.495117188 329.333007812 605.995117188 294.999023438 605.995117188 c 0
 260.666015625 605.995117188 225.833007812 604.995117188 190.500976562 602.995117188 c 1
 188.366210938 562.998046875 187.299804688 535.798828125 187.299804688 521.3984375 c 0
 187.299804688 517.796875 187.366210938 514.99609375 187.500976562 512.995117188 c 0
 187.500976562 500.995117188 187.333007812 492.495117188 187.000976562 487.495117188 c 0
 186.666992188 482.495117188 186.833984375 475.328125 187.500976562 465.995117188 c 1
 205.500976562 479.328125 227.168945312 490.995117188 252.500976562 500.995117188 c 0
 287.500976562 514.358398438 326.751953125 521.041015625 370.254882812 521.041015625 c 0
 372.327148438 521.041015625 374.409179688 521.025390625 376.500976562 520.995117188 c 0
 411.168945312 520.995117188 442.168945312 515.328125 469.500976562 503.995117188 c 0
 494.833984375 492.662109375 515.666992188 476.829101562 532.000976562 456.49609375 c 0
 548.333007812 436.163085938 560.833007812 412.830078125 569.500976562 386.497070312 c 0
 578.166992188 360.1640625 582.500976562 331.6640625 582.500976562 300.997070312 c 0
 582.500976562 251.6640625 576.166992188 206.831054688 563.500976562 166.498046875 c 0
 550.833007812 126.165039062 532.666015625 92.498046875 508.999023438 65.498046875 c 0
 485.333007812 38.498046875 455.833007812 17.998046875 420.499023438 3.998046875 c 0
 384.499023438 -10.6689453125 345.499023438 -18.001953125 303.499023438 -18.001953125 c 0
 270.166015625 -18.001953125 239.166015625 -14.6689453125 210.499023438 -8.001953125 c 0
 182.499023438 -1.3349609375 159.833007812 7.33203125 142.499023438 17.9990234375 c 0
 125.166015625 28.666015625 110.499023438 40.3330078125 98.4990234375 53 c 0
 86.4990234375 65.6669921875 76.4990234375 79 68.4990234375 93 c 0
 61.166015625 109 57.4990234375 122.666992188 57.4990234375 134 c 0
 57.4990234375 138 58.166015625 142 59.4990234375 146 c 0
 62.83203125 160.666992188 72.1650390625 172 87.498046875 180 c 0
 95.498046875 183.333007812 101.998046875 185.666015625 106.998046875 186.999023438 c 0
 111.998046875 188.33203125 116.331054688 188.999023438 119.998046875 188.999023438 c 0
 123.665039062 188.999023438 126.498046875 188.666015625 128.498046875 187.999023438 c 0
 137.165039062 187.33203125 145.165039062 183.665039062 152.498046875 176.998046875 c 0
 158.498046875 171.665039062 164.831054688 164.33203125 171.498046875 154.999023438 c 0
 201.498046875 112.33203125 241.831054688 90.9990234375 292.498046875 90.9990234375 c 0
 343.165039062 90.9990234375 383.165039062 108.33203125 412.498046875 142.999023438 c 0
 443.165039062 178.999023438 458.498046875 227.666015625 458.498046875 288.999023438 c 0
 458.498046875 326.33203125 449.165039062 355.665039062 430.498046875 376.998046875 c 0
 413.165039062 397.665039062 385.833007812 407.998046875 348.499023438 407.998046875 c 0
 331.166015625 407.998046875 312.833007812 405.998046875 293.500976562 401.998046875 c 0
 284.166992188 399.998046875 271.166992188 395.331054688 254.500976562 387.998046875 c 0
 250.500976562 385.998046875 245.333007812 382.665039062 239.000976562 377.998046875 c 0
 232.666992188 373.331054688 228.500976562 369.998046875 226.500976562 367.998046875 c 0
 215.166992188 358.665039062 205.833984375 350.665039062 198.500976562 343.998046875 c 0
 183.168945312 331.331054688 165.500976562 323.998046875 145.500976562 321.998046875 c 2
 138.500976562 321.998046875 l 2
 129.168945312 321.998046875 120.16796875 323.998046875 111.500976562 327.998046875 c 0
 97.5009765625 333.998046875 86.833984375 346.665039062 79.5009765625 365.998046875 c 0
 73.5009765625 382.665039062 69.833984375 403.33203125 68.5009765625 427.999023438 c 0
 68.1669921875 433.33203125 68.0009765625 438.666015625 68.0009765625 444 c 0
 68.0009765625 449.333007812 68.1669921875 454.666015625 68.5009765625 460 c 0
 68.5009765625 483.333007812 70.16796875 517 73.5009765625 561 c 0xdc
EndSplineSet
Validated: 1
EndChar

StartChar: six
Encoding: 54 54 22
Width: 640
GlyphClass: 2
Flags: W
HStem: -22.002 107.997<246.312 387.935> 379.996 114.002<242.445 423.642>
VStem: 55 116<167.545 324.488> 461.999 123.001<163.55 341.372>
LayerCount: 2
Fore
SplineSet
569.999023438 361 m 0
 579.999023438 329.666992188 585 293.331054688 585 251.998046875 c 0
 585 213.998046875 578.333007812 178.331054688 565 144.998046875 c 0
 539 76.998046875 493.666992188 28.3310546875 429 -1.001953125 c 0
 396.478515625 -15.03125 361.823242188 -22.0458984375 325.032226562 -22.0458984375 c 0
 323.359375 -22.0458984375 321.681640625 -22.03125 320 -22.001953125 c 0
 273.333007812 -22.001953125 232 -14.001953125 196 1.998046875 c 0
 162 18.6650390625 134.833007812 41.998046875 114.5 71.998046875 c 0
 94.1669921875 101.998046875 79.1669921875 136.831054688 69.5 176.498046875 c 0
 59.8330078125 216.165039062 55 259.665039062 55 306.998046875 c 0
 55 366.998046875 60.8330078125 420.498046875 72.5 467.498046875 c 0
 84.1669921875 514.498046875 99.833984375 553.831054688 119.500976562 585.498046875 c 0
 139.16796875 617.165039062 164.000976562 643.665039062 194.000976562 664.998046875 c 0
 225.333984375 686.998046875 259.333984375 703.665039062 296.000976562 714.998046875 c 0
 332.66796875 726.331054688 373.000976562 733.6640625 417.000976562 736.997070312 c 2
 428.000976562 736.997070312 l 2
 443.333984375 736.997070312 456.666992188 734.330078125 468 728.997070312 c 0
 483.333007812 721.6640625 492.333007812 709.997070312 495 693.997070312 c 2
 495 689.997070312 l 2
 495 679.997070312 490 669.6640625 480 658.997070312 c 0
 469.333007812 648.330078125 457 640.997070312 443 636.997070312 c 0
 435 634.997070312 422.666992188 632.497070312 406 629.497070312 c 0
 389.333007812 626.497070312 375.333007812 623.6640625 364 620.997070312 c 0
 352.666992188 618.330078125 339.666992188 614.330078125 325 608.997070312 c 0
 295.666992188 598.330078125 266 577.997070312 236 547.997070312 c 0
 220.666992188 531.997070312 206.666992188 510.330078125 194 482.997070312 c 0
 188 468.997070312 182.666992188 455.997070312 178 443.997070312 c 1
 196 456.6640625 216.333007812 466.6640625 239 473.997070312 c 0
 276.333007812 486.6640625 318.333007812 493.331054688 365 493.998046875 c 0
 400.333007812 493.998046875 431.666015625 489.331054688 458.999023438 479.998046875 c 0
 484.999023438 470.665039062 507.499023438 456.33203125 526.499023438 436.999023438 c 0
 545.499023438 417.666015625 559.999023438 392.333007812 569.999023438 361 c 0
270 94.9970703125 m 0
 285.333007812 88.9970703125 301.666015625 85.9951171875 318.999023438 85.9951171875 c 2
 320.999023438 85.9951171875 l 1
 321.999023438 85.9951171875 l 2
 345.33203125 85.9951171875 367.999023438 93.662109375 389.999023438 108.995117188 c 0
 411.999023438 124.328125 429.499023438 143.828125 442.499023438 167.495117188 c 0
 455.499023438 191.162109375 461.999023438 215.329101562 461.999023438 239.99609375 c 0
 461.999023438 297.329101562 450.999023438 335.329101562 428.999023438 353.99609375 c 0
 417.666015625 363.329101562 404.833007812 369.99609375 390.5 373.99609375 c 0
 376.166992188 377.99609375 358 379.99609375 336 379.99609375 c 0
 302 379.99609375 270.333007812 372.49609375 241 357.49609375 c 0
 211.666992188 342.49609375 188 323.329101562 170 299.99609375 c 1
 170 274.663085938 170.333007812 253.663085938 171 236.99609375 c 0
 173.666992188 208.99609375 183.333984375 181.663085938 200.000976562 154.99609375 c 0
 208.66796875 141.663085938 218.66796875 129.830078125 230.000976562 119.497070312 c 0
 241.333984375 109.1640625 254.666992188 100.997070312 270 94.9970703125 c 0
EndSplineSet
Validated: 1
EndChar

StartChar: seven
Encoding: 55 55 23
Width: 640
GlyphClass: 2
Flags: W
HStem: -23 21G<145 152.667> 601 113.001<106.735 435.001>
LayerCount: 2
Fore
SplineSet
248.001953125 601 m 0
 182.001953125 599.666992188 139.333984375 596.669921875 120.000976562 592.002929688 c 0
 116.000976562 590.669921875 111.500976562 590.002929688 106.500976562 590.002929688 c 0
 101.500976562 590.002929688 96.333984375 591.002929688 91.0009765625 593.002929688 c 0
 82.333984375 596.3359375 75.6669921875 601.3359375 71 608.002929688 c 0
 61.6669921875 620.002929688 56.6669921875 633.669921875 56 649.002929688 c 1
 56 642.3359375 56 642.668945312 56 650.001953125 c 0
 56 664.001953125 60 675.668945312 68 685.001953125 c 0
 76 694.334960938 89.6669921875 700.66796875 109 704.000976562 c 0
 145 710.66796875 205.333007812 714.000976562 290 714.000976562 c 0
 324.666992188 714.000976562 372.333984375 712.66796875 433.000976562 710.000976562 c 0
 490.333984375 708.000976562 520.333984375 707.000976562 523.000976562 707.000976562 c 0
 531.66796875 707.000976562 540.16796875 705.16796875 548.500976562 701.500976562 c 0
 556.833984375 697.833984375 564.666992188 692.000976562 572 684.000976562 c 0
 579.333007812 675.333984375 583.333007812 664.000976562 584 650.000976562 c 0
 584 638.000976562 580.333007812 624.66796875 573 610.000976562 c 0
 563.666992188 590.000976562 546.666992188 560.500976562 522 521.500976562 c 0
 497.333007812 482.500976562 471.333007812 442.66796875 444 402.000976562 c 0
 415.333007812 361.333984375 380.333007812 307.166992188 339 239.5 c 0
 297.666992188 171.833007812 258.666992188 102.666015625 222 31.9990234375 c 0
 212.666992188 12.666015625 199.666992188 -1.6669921875 183 -11 c 0
 170.333007812 -19 158.333007812 -23 147 -23 c 0
 143 -23 139 -22.6669921875 135 -22 c 0
 117 -18 104.333007812 -8 97 8 c 0
 93.6669921875 15.3330078125 92 23.166015625 92 31.4990234375 c 0
 92 39.83203125 94.3330078125 48.9990234375 99 58.9990234375 c 0
 133 125.666015625 170.666992188 191.999023438 212 257.999023438 c 0
 254.666992188 323.999023438 289.833984375 376.33203125 317.500976562 414.999023438 c 0
 345.16796875 453.666015625 369.500976562 489.333007812 390.500976562 522 c 0
 411.500976562 554.666992188 426.333984375 581 435.000976562 601 c 1
 406.333984375 601.666015625 376.41796875 602 345.251953125 602 c 0
 314.084960938 602 281.66796875 601.666015625 248.001953125 601 c 0
EndSplineSet
Validated: 1
EndChar

StartChar: eight
Encoding: 56 56 24
Width: 640
GlyphClass: 2
Flags: W
HStem: -28.001 110<224.184 405.638> 621.999 96.002<241.764 378.08>
VStem: 49.499 111.003<137.082 263.615> 76.499 121.003<482.059 579.145> 429.501 117.001<478.907 573.656> 473.502 116.999<140 269.94>
LayerCount: 2
Fore
SplineSet
238.501953125 96.9990234375 m 0xe4
 261.834960938 86.9990234375 286.834960938 81.9990234375 313.501953125 81.9990234375 c 0
 332.168945312 81.9990234375 351.001953125 84.666015625 370.001953125 89.9990234375 c 0
 389.001953125 95.33203125 406.334960938 102.999023438 422.001953125 112.999023438 c 0
 437.668945312 122.999023438 450.168945312 135.666015625 459.501953125 150.999023438 c 0
 468.834960938 166.33203125 473.501953125 182.999023438 473.501953125 200.999023438 c 0
 473.501953125 210.999023438 472.501953125 220.33203125 470.501953125 228.999023438 c 0
 468.501953125 237.666015625 464.501953125 247.666015625 458.501953125 258.999023438 c 0
 452.501953125 270.33203125 444.168945312 280.999023438 433.501953125 290.999023438 c 0
 422.834960938 300.999023438 408.001953125 311.33203125 389.001953125 321.999023438 c 0
 370.001953125 332.666015625 347.501953125 342.333007812 321.501953125 351 c 1
 273.501953125 339 234.501953125 318.666992188 204.501953125 290 c 0
 175.168945312 261.333007812 160.501953125 230.666015625 160.501953125 197.999023438 c 0
 160.501953125 175.999023438 167.501953125 155.999023438 181.501953125 137.999023438 c 0
 196.834960938 119.999023438 215.834960938 106.33203125 238.501953125 96.9990234375 c 0xe4
231.000976562 591.499023438 m 0
 208.666992188 571.166015625 197.501953125 549.333007812 197.501953125 526 c 0
 197.501953125 507.333007812 207.168945312 490.666015625 226.501953125 475.999023438 c 0
 246.501953125 460.666015625 280.168945312 444.999023438 327.501953125 428.999023438 c 1
 354.834960938 439.666015625 378.668945312 453.666015625 399.000976562 470.999023438 c 0
 419.333984375 488.33203125 429.500976562 503.33203125 429.500976562 515.999023438 c 0xd8
 429.500976562 532.666015625 424.333984375 548.999023438 414.000976562 564.999023438 c 0
 403.668945312 580.999023438 389.168945312 594.499023438 370.500976562 605.499023438 c 0
 351.833984375 616.499023438 332.166992188 621.999023438 311.500976562 621.999023438 c 2
 309.500976562 621.999023438 l 2
 279.500976562 621.999023438 253.333007812 611.83203125 231.000976562 591.499023438 c 0
587.000976562 246 m 0
 589.333984375 234 590.500976562 221.33203125 590.500976562 207.999023438 c 0
 590.500976562 185.999023438 587.500976562 164.33203125 581.500976562 142.999023438 c 0
 575.500976562 121.666015625 565.500976562 100.499023438 551.500976562 79.4990234375 c 0
 537.500976562 58.4990234375 520.166992188 40.33203125 499.500976562 24.9990234375 c 0
 478.833007812 9.666015625 451.666015625 -3.0009765625 417.999023438 -13.0009765625 c 0
 384.333007812 -23.0009765625 347.665039062 -28.0009765625 307.998046875 -28.0009765625 c 0
 268.331054688 -28.0009765625 232.831054688 -23.333984375 201.498046875 -14.0009765625 c 0
 171.498046875 -4.66796875 147.331054688 7.4990234375 128.998046875 22.4990234375 c 0
 110.665039062 37.4990234375 95.33203125 55.166015625 82.9990234375 75.4990234375 c 0
 70.666015625 95.83203125 61.9990234375 116.33203125 56.9990234375 136.999023438 c 0
 51.9990234375 157.666015625 49.4990234375 179.333007812 49.4990234375 202 c 0xe4
 49.4990234375 224.666992188 55.4990234375 249.166992188 67.4990234375 275.5 c 0
 79.4990234375 301.833007812 97.166015625 326.333007812 120.499023438 349 c 0
 136.499023438 365 153.833007812 377.666992188 172.499023438 387 c 1
 145.833007812 402.333007812 124.499023438 420.666015625 108.499023438 441.999023438 c 0
 87.166015625 469.999023438 76.4990234375 498.666015625 76.4990234375 527.999023438 c 0
 76.4990234375 536.666015625 77.166015625 545.666015625 78.4990234375 554.999023438 c 0
 79.83203125 564.33203125 82.6650390625 575.33203125 86.998046875 587.999023438 c 0
 91.3310546875 600.666015625 96.8310546875 612.83203125 103.498046875 624.499023438 c 0
 110.165039062 636.166015625 119.33203125 647.833007812 130.999023438 659.5 c 0
 142.666015625 671.166992188 155.833007812 681.000976562 170.500976562 689.000976562 c 0
 187.166992188 697.66796875 207.500976562 704.66796875 231.500976562 710.000976562 c 0
 255.500976562 715.333984375 281.833007812 718.000976562 310.500976562 718.000976562 c 0
 339.166992188 718.000976562 365.500976562 715.333984375 389.500976562 710.000976562 c 0
 413.500976562 704.66796875 433.833007812 698.000976562 450.500976562 690.000976562 c 0
 467.166992188 681.333984375 481.333984375 671.166992188 493.000976562 659.5 c 0
 504.668945312 647.833007812 513.834960938 636.166015625 520.501953125 624.499023438 c 0
 527.168945312 612.83203125 532.501953125 600.499023438 536.501953125 587.499023438 c 0
 540.501953125 574.499023438 543.168945312 563.166015625 544.501953125 553.499023438 c 0
 545.834960938 543.83203125 546.501953125 534.33203125 546.501953125 524.999023438 c 0
 546.501953125 515.666015625 545.334960938 506.833007812 543.001953125 498.5 c 0
 540.668945312 490.166992188 537.836914062 482.666015625 534.502929688 475.999023438 c 0
 531.169921875 469.33203125 526.501953125 462.5 520.501953125 455.5 c 0
 514.501953125 448.5 509.002929688 442.666992188 504.002929688 438 c 0
 499.002929688 433.333007812 492.669921875 428 485.002929688 422 c 0
 477.336914062 416 471.168945312 411.666992188 466.501953125 409 c 0
 461.834960938 406.333007812 455.834960938 402.333007812 448.501953125 397 c 1
 467.168945312 389 483.501953125 380 497.501953125 370 c 0
 516.834960938 356.666992188 532.334960938 343.166992188 544.001953125 329.5 c 0
 555.668945312 315.833007812 565.168945312 301.5 572.501953125 286.5 c 0
 579.834960938 271.5 584.668945312 258 587.000976562 246 c 0
EndSplineSet
Validated: 1
EndChar

StartChar: nine
Encoding: 57 57 25
Width: 640
GlyphClass: 2
Flags: W
HStem: -22.9951 21G<179.667 188.667> 223.002 113.005<231.64 413.074> 630.006 108.993<248.431 395.932>
VStem: 55 122.002<391.618 557.824> 471.002 113.998<379.658 542.364>
LayerCount: 2
Fore
SplineSet
197 555.004882812 m 0
 183.66796875 532.337890625 177.001953125 509.006835938 177.001953125 485.006835938 c 0
 177.001953125 385.673828125 224 336.006835938 318 336.006835938 c 0
 348 336.006835938 377.001953125 342.006835938 405.001953125 354.006835938 c 0
 433.001953125 366.006835938 455.001953125 381.33984375 471.001953125 400.006835938 c 1
 471.001953125 409.006835938 l 2
 471.001953125 427.006835938 470.001953125 450.673828125 468.001953125 480.006835938 c 0
 465.3359375 508.006835938 455.66796875 535.33984375 439.000976562 562.006835938 c 0
 430.333984375 575.33984375 420.500976562 587.172851562 409.500976562 597.505859375 c 0
 398.500976562 607.838867188 385.16796875 615.838867188 369.500976562 621.505859375 c 0
 353.833984375 627.172851562 337.66796875 630.005859375 321 630.005859375 c 2
 318 630.005859375 l 2
 294 630.005859375 271.16796875 623.172851562 249.5 609.505859375 c 0
 227.833007812 595.838867188 210.333007812 577.671875 197 555.004882812 c 0
197 -22 m 0
 193.66796875 -22 190.333984375 -22.328125 187.000976562 -22.9951171875 c 0
 172.333984375 -22.9951171875 159.333984375 -19.9951171875 148.000976562 -13.9951171875 c 0
 132.66796875 -6.662109375 124.000976562 5.0048828125 122.000976562 21.0048828125 c 0
 122.000976562 22.337890625 121.66796875 23.337890625 121.000976562 24.0048828125 c 0
 121.000976562 34.671875 126.16796875 45.171875 136.500976562 55.5048828125 c 0
 146.833984375 65.837890625 158.333984375 73.0048828125 171.000976562 77.0048828125 c 0
 179.000976562 79.0048828125 192.16796875 81.671875 210.500976562 85.0048828125 c 0
 228.833984375 88.337890625 245.000976562 91.6708984375 259.000976562 95.00390625 c 0
 273.000976562 98.3369140625 288.333984375 102.669921875 305.000976562 108.002929688 c 0
 340.333984375 120.002929688 371.333984375 139.002929688 398.000976562 165.002929688 c 0
 415.333984375 183.002929688 431.000976562 203.669921875 445.000976562 227.002929688 c 0
 450.333984375 236.3359375 455.000976562 245.668945312 459.000976562 255.001953125 c 1
 444.333984375 247.001953125 428.333984375 240.668945312 411.000976562 236.001953125 c 0
 378.333984375 228.001953125 338.000976562 223.668945312 290.000976562 223.001953125 c 0
 256.000976562 223.001953125 223.66796875 230.001953125 193.000976562 244.001953125 c 0
 163.66796875 258.001953125 139.16796875 276.668945312 119.500976562 300.001953125 c 0
 99.833984375 323.334960938 84.1669921875 350.16796875 72.5 380.500976562 c 0
 60.8330078125 410.833984375 55 441.666992188 55 473 c 0
 55 511 61.5 546.5 74.5 579.5 c 0
 87.5 612.5 105.166992188 640.666992188 127.5 664 c 0
 149.833007812 687.333007812 177.666015625 705.666015625 211 718.999023438 c 0
 245 732.33203125 281 738.999023438 319 738.999023438 c 0
 413 738.999023438 481.33203125 706.999023438 524 642.999023438 c 0
 564 582.999023438 584.33203125 498.33203125 585 388.999023438 c 0
 585 331.666015625 578.33203125 280.999023438 565 236.999023438 c 0
 551.666015625 192.999023438 533.833007812 155.83203125 511.5 125.499023438 c 0
 489.16796875 95.166015625 461.66796875 69.3330078125 429 48 c 0
 395 26.6669921875 358.833007812 10.5 320.5 -0.5 c 0
 282.16796875 -11.5 241 -18.6669921875 197 -22 c 0
EndSplineSet
Validated: 1
EndChar

StartChar: colon
Encoding: 58 58 26
Width: 640
GlyphClass: 2
Flags: W
HStem: 27.001 180<262.159 376.079> 295.001 179<272.565 372.156>
VStem: 243 155<49.1377 186.712 322.001 455.644>
LayerCount: 2
Fore
SplineSet
395 404 m 0
 395 384.666992188 392 364.668945312 386 344.001953125 c 0
 382 327.334960938 373 314.66796875 359 306.000976562 c 0
 347 298.66796875 335 295.000976562 323 295.000976562 c 2
 320 295.000976562 l 2
 300 296.333984375 284 300.333984375 272 307.000976562 c 0
 255.333007812 317.000976562 246 332.000976562 244 352.000976562 c 1
 242.666992188 364.000976562 242 376.000976562 242 388.000976562 c 0
 242 400.66796875 242.333007812 412.334960938 243 423.001953125 c 0
 243.666992188 433.668945312 247 443.001953125 253 451.001953125 c 0
 259 458.334960938 266.333007812 463.66796875 275 467.000976562 c 0
 283.666992188 470.333984375 291.333984375 472.333984375 298.000976562 473.000976562 c 0
 304.66796875 473.66796875 309.66796875 474.000976562 313.000976562 474.000976562 c 0
 324.333984375 474.000976562 334.000976562 473.333984375 342.000976562 472.000976562 c 0
 349.333984375 470.66796875 356.666992188 468.000976562 364 464.000976562 c 0
 372 460.000976562 379 454.000976562 385 446.000976562 c 0
 390.333007812 438.000976562 393.333007812 428.66796875 394 418.000976562 c 0
 394.666992188 413.333984375 395 408.666992188 395 404 c 0
398 124.001953125 m 0
 398 108.001953125 395.66796875 91.6689453125 391.000976562 75.001953125 c 0
 387.000976562 58.3349609375 376.66796875 46.001953125 360.000976562 38.001953125 c 0
 346.000976562 31.3349609375 332.66796875 27.66796875 320.000976562 27.0009765625 c 0
 303.333984375 27.0009765625 287.000976562 32.0009765625 271.000976562 42.0009765625 c 0
 255.000976562 52.0009765625 246.333984375 66.0009765625 245.000976562 84.0009765625 c 0
 244.333984375 102.66796875 243.666992188 113.334960938 243 116.001953125 c 0
 243 118.668945312 243.333007812 124.668945312 244 134.001953125 c 0
 244.666992188 143.334960938 245.333984375 150.66796875 246.000976562 156.000976562 c 0
 246.000976562 166.66796875 249.000976562 176.000976562 255.000976562 184.000976562 c 0
 261.000976562 192.000976562 269.000976562 197.333984375 279.000976562 200.000976562 c 0
 292.333984375 204.66796875 305.333984375 207.000976562 318.000976562 207.000976562 c 0
 330.000976562 207.000976562 340.66796875 205.66796875 350.000976562 203.000976562 c 0
 359.333984375 200.333984375 368.666992188 194.333984375 378 185.000976562 c 0
 387.333007812 176.333984375 393 165.333984375 395 152.000976562 c 0
 397 142.66796875 398 133.334960938 398 124.001953125 c 0
EndSplineSet
Validated: 1
EndChar

StartChar: semicolon
Encoding: 59 59 27
Width: 640
GlyphClass: 2
Flags: W
HStem: 253 180.001<293.717 402.135>
VStem: 272.025 153<275.988 416.875>
LayerCount: 2
Fore
SplineSet
425.025390625 363 m 2
 425.025390625 343.666992188 422.024414062 323.333984375 416.024414062 302.000976562 c 0
 412.024414062 285.333984375 403.024414062 272.666992188 389.024414062 264 c 0
 377.024414062 256.666992188 365.024414062 253 353.024414062 253 c 0
 343.69140625 253 333.357421875 255 322.025390625 259 c 0
 310.692382812 263 300.359375 269 291.025390625 277 c 0
 281.025390625 286.333007812 275.359375 297.333007812 274.025390625 310 c 1
 272.693359375 322 272.025390625 334.333007812 272.025390625 347 c 0
 272.025390625 359.666992188 272.359375 371 273.025390625 381 c 0
 273.693359375 391.666992188 277.025390625 401 283.025390625 409 c 0
 289.025390625 417 296.359375 422.333007812 305.025390625 425 c 0
 319.693359375 429.666992188 333.693359375 432.333984375 347.025390625 433.000976562 c 0
 357.025390625 433.000976562 365.359375 432.000976562 372.025390625 430.000976562 c 0
 379.359375 428.66796875 387.025390625 426.000976562 395.025390625 422.000976562 c 0
 403.025390625 418.000976562 409.693359375 412.333984375 415.025390625 405.000976562 c 0
 420.359375 396.333984375 423.692382812 386.666992188 425.025390625 376 c 2
 425.025390625 363 l 2
405.024414062 79 m 2
 405.025390625 73 l 2
 403.025390625 51 381.357421875 -36.6669921875 340.025390625 -190 c 0
 335.357421875 -206.666992188 326.69140625 -219 314.024414062 -227 c 0
 302.69140625 -234.333007812 291.357421875 -238 280.025390625 -238 c 0
 262.692382812 -238 247.025390625 -233 233.025390625 -223 c 0
 220.9921875 -214.133789062 214.974609375 -202.258789062 214.974609375 -187.375976562 c 0
 214.974609375 -168.400390625 225.478515625 -113.73046875 235.025390625 -65.9990234375 c 0
 248.357421875 0.0009765625 259.025390625 49.333984375 267.025390625 82.0009765625 c 0
 269.692382812 93.333984375 273.359375 103.000976562 278.025390625 111.000976562 c 0
 283.359375 119.000976562 289.359375 124.000976562 296.025390625 126.000976562 c 0
 305.359375 129.333984375 314.359375 131.333984375 323.025390625 132.000976562 c 0
 326.359375 132.000976562 329.692382812 131.66796875 333.025390625 131.000976562 c 0
 347.025390625 131.000976562 361.357421875 127.66796875 376.025390625 121.000976562 c 0
 385.357421875 117.000976562 392.69140625 110.66796875 398.024414062 102.000976562 c 0
 402.69140625 95.333984375 405.024414062 87.6669921875 405.024414062 79 c 2
EndSplineSet
Validated: 1
EndChar

StartChar: less
Encoding: 60 60 28
Width: 640
GlyphClass: 2
Flags: W
HStem: -25 21G<510.667 517.667>
LayerCount: 2
Fore
SplineSet
516 -25 m 0
 505.333007812 -25 493.333007812 -22.662109375 480 -17.9951171875 c 0
 462 -12.662109375 440.333007812 -0.662109375 415 18.0048828125 c 0
 389.666992188 36.671875 362.666992188 58.671875 334 84.0048828125 c 0
 305.333007812 109.337890625 277 135.004882812 249 161.004882812 c 0
 221 187.004882812 191.666992188 213.671875 161 241.004882812 c 0
 130.333007812 268.337890625 104.333007812 290.004882812 83 306.004882812 c 0
 72.3330078125 314.004882812 65 325.004882812 61 339.004882812 c 0
 59.6669921875 345.004882812 59 351.671875 59 359.004882812 c 0
 59 365.671875 60 372.671875 62 380.004882812 c 0
 66 394.004882812 73.3330078125 404.004882812 84 410.004882812 c 0
 121.333007812 438.004882812 165.666015625 473.004882812 216.999023438 515.004882812 c 0
 267.666015625 557.671875 314.333007812 596.004882812 357 630.004882812 c 0
 399.666992188 664.671875 438 692.004882812 472 712.004882812 c 0
 485.333007812 720.671875 498.666015625 725.004882812 511.999023438 725.004882812 c 0
 521.999023438 725.004882812 530.666015625 722.671875 537.999023438 718.004882812 c 0
 552.666015625 709.337890625 563.333007812 697.670898438 570 683.00390625 c 0
 573.333007812 676.336914062 575 669.00390625 575 661.00390625 c 0
 575 653.00390625 572.666992188 644.670898438 568 636.00390625 c 0
 560 622.670898438 543.666992188 607.670898438 519 591.00390625 c 0
 482.333007812 565.00390625 429 524.670898438 359 470.00390625 c 0
 289 415.336914062 241.666992188 378.669921875 217 360.002929688 c 1
 239.666992188 342.002929688 265.666992188 319.669921875 295 293.002929688 c 0
 325 266.3359375 352 241.668945312 376 219.001953125 c 0
 400 196.334960938 426 173.001953125 454 149.001953125 c 0
 482 125.001953125 506.666992188 106.334960938 528 93.001953125 c 0
 550 79.001953125 565 65.6689453125 573 53.001953125 c 0
 578.333007812 45.001953125 581 36.6689453125 581 28.001953125 c 0
 581 21.3349609375 579.666992188 14.66796875 577 8.0009765625 c 0
 568.333007812 -10.666015625 551 -21.3330078125 525 -24 c 0
 522.333007812 -24.6669921875 519.333007812 -25 516 -25 c 0
EndSplineSet
Validated: 1
EndChar

StartChar: equal
Encoding: 61 61 29
Width: 640
GlyphClass: 2
Flags: W
HStem: 235 107<132.504 509.621> 435 106<134.565 509.621>
LayerCount: 2
Fore
SplineSet
469 541 m 0
 488.333007812 541 502 536.333007812 510 527 c 0
 518 517.666992188 522.66796875 506 524 492 c 2
 524 491 l 2
 524 483.666992188 523.333007812 477 522 471 c 0
 520.66796875 465 518 459 514 453 c 0
 510 447 503.66796875 442 495 438 c 0
 489 435.333007812 482.66796875 434.333007812 476 435 c 2
 468 435 l 2
 444 435.666992188 419.333007812 436 394 436 c 2
 284 433 l 2
 237.333007812 431.666992188 203 431 181 431 c 0
 161.66796875 431 146 436 134 446 c 0
 122 456 116 468.666992188 116 484 c 2
 116 487 l 2
 116 501 120.66796875 513.666992188 130 525 c 0
 140 535.666992188 154.333007812 541 173 541 c 2
 177 541 l 2
 216.599609375 539.799804688 259.91796875 539.200195312 306.95703125 539.200195312 c 0
 338.318359375 539.200195312 371.33203125 539.466796875 406 540 c 0
 440.66796875 540.666992188 461.66796875 541 469 541 c 0
476 239 m 2
 468 239 l 2
 452.66796875 239.666992188 438.66796875 240 426 240 c 0
 398 240 355 239.333007812 297 238 c 0
 239 236 199.66796875 235 179 235 c 0
 158.333007812 235 142.666015625 240.333007812 132 251 c 0
 121.33203125 261.666992188 116 274.666992188 116 290 c 2
 116 292 l 2
 116 306 121.33203125 318 132 328 c 0
 142.666015625 337.333007812 157.666015625 342 177 342 c 2
 195 342 l 2
 209.228515625 341.77734375 224.94140625 341.666015625 242.13671875 341.666015625 c 0
 276.5 341.666015625 316.7890625 342.110351562 363 342.999023438 c 2
 469 344.999023438 l 2
 488.33203125 344.999023438 502 340.33203125 510 330.999023438 c 0
 518 321.666015625 522.666015625 309.999023438 524 295.999023438 c 2
 524 294.999023438 l 2
 524 287.666015625 523.33203125 281.333007812 522 276 c 0
 520.666015625 270 518 264 514 258 c 0
 510 251.333007812 503.666015625 246 495 242 c 0
 489.666015625 240 483.333007812 239 476 239 c 2
EndSplineSet
Validated: 1
EndChar

StartChar: greater
Encoding: 62 62 30
Width: 640
GlyphClass: 2
Flags: W
HStem: -18 21G<123.334 134.667>
LayerCount: 2
Fore
SplineSet
128.000976562 -18 m 0
 118.66796875 -18 109.999023438 -15.6708984375 101.999023438 -11.00390625 c 0
 94.666015625 -6.3369140625 87.9990234375 -1.00390625 81.9990234375 4.99609375 c 0
 76.666015625 10.99609375 72.666015625 17.6630859375 69.9990234375 24.99609375 c 0
 66.666015625 31.6630859375 64.666015625 38.6630859375 63.9990234375 45.99609375 c 0
 63.9990234375 53.99609375 66.666015625 62.3291015625 71.9990234375 70.99609375 c 0
 79.9990234375 84.3291015625 95.9990234375 99.3291015625 119.999023438 115.99609375 c 0
 156.666015625 141.99609375 210.333007812 182.329101562 281 236.99609375 c 0
 351 291.663085938 398.333007812 328.330078125 423 346.997070312 c 1
 400.333007812 364.997070312 374 387.330078125 344 413.997070312 c 0
 314 440.6640625 287.333007812 465.331054688 264 487.998046875 c 0
 240 510.665039062 214 533.998046875 186 557.998046875 c 0
 158 581.998046875 133.333007812 600.665039062 112 613.998046875 c 0
 90 627.998046875 75 641.331054688 67 653.998046875 c 0
 61.6669921875 661.998046875 59 670.665039062 59 679.998046875 c 0
 59 686.665039062 60.3330078125 692.998046875 63 698.998046875 c 0
 71.6669921875 717.665039062 89 728.33203125 115 730.999023438 c 0
 118.333007812 731.666015625 121.333007812 731.999023438 124 731.999023438 c 0
 134.666992188 731.999023438 146.666992188 729.666015625 160 724.999023438 c 0
 178 719.666015625 199.666992188 707.666015625 225 688.999023438 c 0
 250.333007812 670.33203125 277.333007812 648.33203125 306 622.999023438 c 0
 334.666992188 597.666015625 363 571.999023438 391 545.999023438 c 0
 419 519.999023438 448.333007812 493.33203125 479 465.999023438 c 0
 509.666992188 438.666015625 535.666992188 417.333007812 557 402 c 0
 567.666992188 394 575 382.666992188 579 368 c 0
 580.333007812 362 581 355.333007812 581 348 c 0
 581 341.333007812 580 334.333007812 578 327 c 0
 574 313 566.666992188 303 556 297 c 0
 518.666992188 269.666992188 474.333984375 234.666992188 423.000976562 192 c 0
 372.333984375 149.333007812 325.666992188 111 283 77 c 0
 240.333007812 43 202 15.6669921875 168 -5 c 0
 154.666992188 -13.6669921875 141.333984375 -18 128.000976562 -18 c 0
EndSplineSet
Validated: 1
EndChar

StartChar: question
Encoding: 63 63 31
Width: 640
GlyphClass: 2
Flags: W
HStem: -26.002 178.001<239.893 356.37> 508.999 21G<160.334 175.001> 625 109.069<261.464 390.065>
VStem: 204.004 187<7.88811 117.73> 237.004 125.996<216.992 316.186> 415.039 124.961<484.855 602.144>
LayerCount: 2
Fore
SplineSet
307 201 m 0xec
 301 201 294.669921875 201.665039062 288.00390625 202.998046875 c 0
 254.669921875 211.665039062 237.669921875 232.33203125 237.00390625 264.999023438 c 0
 237.00390625 274.33203125 238.669921875 284.33203125 242.00390625 294.999023438 c 0
 246.669921875 314.33203125 253.669921875 332.33203125 263.00390625 348.999023438 c 0
 272.3359375 365.666015625 282.668945312 379.999023438 294.001953125 391.999023438 c 0
 304.668945312 403.999023438 316.001953125 414.999023438 328.001953125 424.999023438 c 0
 340.001953125 435.666015625 351.3359375 445.333007812 362.001953125 454 c 0
 372.668945312 462.666992188 382.001953125 471.666992188 390.001953125 481 c 0
 406.692382812 498.975585938 415.0390625 517.568359375 415.0390625 536.779296875 c 0
 415.0390625 554.662109375 413.403320312 586.278320312 390.000976562 605 c 0
 372.8203125 618.36328125 348.046875 625.045898438 315.6796875 625.045898438 c 0
 314.13671875 625.045898438 312.578125 625.030273438 311.000976562 625 c 0
 303.000976562 625 295.333984375 623.333007812 288.000976562 620 c 0
 280.000976562 616 272.66796875 611.666992188 266.000976562 607 c 0
 260.000976562 602.333007812 253.333984375 595.666015625 246.000976562 586.999023438 c 0
 238.66796875 578.33203125 233.000976562 570.999023438 229.000976562 564.999023438 c 0
 225.000976562 558.999023438 219.66796875 551.666015625 213.000976562 542.999023438 c 0
 207.000976562 533.666015625 200.333984375 525.999023438 193.000976562 519.999023438 c 0
 186.333984375 513.999023438 179.000976562 510.33203125 171.000976562 508.999023438 c 2
 162.000976562 508.999023438 l 2
 158.66796875 508.999023438 154.66796875 509.666015625 150.000976562 510.999023438 c 0
 145.333984375 512.33203125 138.66796875 514.665039062 130 517.998046875 c 0
 115.333007812 525.998046875 106 537.331054688 102 551.998046875 c 2
 100 563.998046875 l 2
 100 575.331054688 103.666992188 588.998046875 111 604.998046875 c 0
 118.333007812 619.665039062 127.666015625 633.665039062 139 646.998046875 c 0
 150.33203125 660.998046875 164 674.665039062 180 687.998046875 c 0
 196 701.998046875 215 713.331054688 237 721.998046875 c 0
 257.426757812 730.045898438 279.00390625 734.069335938 301.731445312 734.069335938 c 0
 303.48046875 734.069335938 305.236328125 734.045898438 307 733.998046875 c 0
 382.33203125 733.998046875 440 716.331054688 480 680.998046875 c 0
 520 645.665039062 540 592.665039062 540 521.998046875 c 0
 540 502.665039062 536.666015625 484.998046875 530 468.998046875 c 0
 524 452.998046875 516 438.998046875 506 426.998046875 c 0
 496 415.665039062 485 405.33203125 473 395.999023438 c 2
 437 367.999023438 l 2
 425 358.666015625 414 349.333007812 404 340 c 0
 394 330.666992188 385.33203125 319 378 305 c 0
 370.666015625 291.666992188 365.666015625 276.666992188 363 260 c 0
 359.666015625 240 352.333007812 224.666992188 341 214 c 0
 332.333007812 205.333007812 321 201 307 201 c 0xec
290.00390625 -26.001953125 m 2
 266.669921875 -26.001953125 247.00390625 -18.0029296875 231.00390625 -2.0029296875 c 0
 213.00390625 16.6640625 204.00390625 38.3310546875 204.00390625 62.998046875 c 0
 204.00390625 87.6650390625 213.669921875 108.33203125 233.00390625 124.999023438 c 0
 253.669921875 142.999023438 277.336914062 151.999023438 304.00390625 151.999023438 c 0
 328.671875 151.999023438 349.00390625 143.999023438 365.00390625 127.999023438 c 0
 382.336914062 110.666015625 391.00390625 89.9990234375 391.00390625 65.9990234375 c 0xf4
 391.00390625 41.33203125 382.671875 20.6650390625 366.00390625 3.998046875 c 0
 349.336914062 -12.6689453125 327.669921875 -22.6689453125 301.00390625 -26.001953125 c 2
 290.00390625 -26.001953125 l 2
EndSplineSet
Validated: 1
EndChar

StartChar: at
Encoding: 64 64 32
Width: 640
GlyphClass: 2
Flags: W
HStem: -141.995 110<253.143 406.131> 105.006 104.999<282.361 342.78> 369.005 101.001<294.14 394.622> 601.005 113.998<275.093 413.154>
VStem: 50 110.996<95.6791 430.758> 173 100.998<212.861 350.422> 355 104.799<217.922 335.271> 492.997 97.0029<192.56 481.464>
LayerCount: 2
Fore
SplineSet
393 148 m 1
 373.66796875 119.333007812 346 105.005859375 310 105.005859375 c 0
 266.66796875 105.005859375 233 118.672851562 209 146.005859375 c 0
 185 173.338867188 173 214.005859375 173 268.005859375 c 0
 173 294.672851562 176 319.005859375 182 341.005859375 c 0
 188 363.672851562 196 383.005859375 206 399.005859375 c 0
 216.66796875 415.005859375 229 428.672851562 243 440.005859375 c 0
 268.333007812 460.005859375 298 470.005859375 332 470.005859375 c 0
 352.66796875 470.005859375 373 466.338867188 393 459.005859375 c 0
 410.333007812 452.338867188 424 443.005859375 434 431.005859375 c 0
 442 421.672851562 446 412.672851562 446 404.005859375 c 0
 446 399.338867188 444.66796875 394.338867188 442 389.005859375 c 0
 439.333007812 383.672851562 435.666015625 378.672851562 431 374.005859375 c 0
 426.33203125 369.338867188 421 366.005859375 415 364.005859375 c 0
 406.33203125 361.338867188 399.665039062 360.005859375 394.998046875 360.005859375 c 0
 386.998046875 360.005859375 377.33203125 361.338867188 365.998046875 364.005859375 c 0
 362.665039062 364.672851562 357.665039062 366.005859375 350.998046875 368.005859375 c 0
 343.665039062 369.338867188 336.665039062 369.671875 329.998046875 369.004882812 c 0
 323.33203125 368.337890625 316.6640625 366.004882812 309.997070312 362.004882812 c 0
 303.330078125 358.004882812 297.330078125 352.671875 291.997070312 346.004882812 c 0
 286.6640625 339.337890625 282.33203125 330.337890625 278.998046875 319.004882812 c 0
 275.665039062 307.671875 273.998046875 294.671875 273.998046875 280.004882812 c 0
 273.998046875 272.004882812 274.665039062 264.337890625 275.998046875 257.004882812 c 0
 276.665039062 249.671875 278.33203125 242.004882812 281 234.004882812 c 0
 286.33203125 218.004882812 295 210.004882812 307 210.004882812 c 0
 314.33203125 210.004882812 321 211.337890625 327 214.004882812 c 0
 333 216.671875 337.666015625 221.338867188 341 228.005859375 c 0
 349 242.672851562 353.666015625 268.005859375 355 304.005859375 c 0
 355.666015625 320.005859375 366.666015625 332.338867188 388 341.005859375 c 0
 399.2578125 345.74609375 409.462890625 348.116210938 418.614257812 348.116210938 c 0
 419.758789062 348.116210938 420.887695312 348.079101562 422 348.004882812 c 0
 430 348.004882812 437 347.004882812 443 345.004882812 c 0
 456.33203125 339.671875 463.33203125 330.004882812 464 316.004882812 c 0
 464 314.671875 463.666015625 313.338867188 463 312.005859375 c 0
 460.865234375 293.340820312 459.798828125 277.021484375 459.798828125 263.048828125 c 0
 459.798828125 259.5546875 459.865234375 256.20703125 460 253.005859375 c 0
 460 234.338867188 461.666015625 219.005859375 465 207.005859375 c 0
 466.33203125 202.338867188 467.665039062 199.005859375 468.998046875 197.005859375 c 0
 470.998046875 193.672851562 473.665039062 192.005859375 476.998046875 192.005859375 c 0
 478.33203125 193.338867188 479.6640625 195.338867188 480.997070312 198.005859375 c 0
 484.330078125 206.005859375 486.997070312 216.338867188 488.997070312 229.005859375 c 0
 491.6640625 253.005859375 492.997070312 275.005859375 492.997070312 295.005859375 c 0
 492.997070312 328.338867188 491.330078125 359.338867188 487.997070312 388.005859375 c 0
 485.330078125 416.005859375 481.6640625 440.005859375 476.99609375 460.005859375 c 0
 472.329101562 480.005859375 466.662109375 497.672851562 459.99609375 513.005859375 c 0
 452.662109375 529.005859375 446.329101562 541.672851562 440.99609375 551.005859375 c 0
 434.99609375 560.338867188 427.6640625 568.338867188 418.99609375 575.005859375 c 0
 410.329101562 581.672851562 402.99609375 586.672851562 396.99609375 590.005859375 c 0
 390.99609375 593.338867188 383.99609375 595.671875 375.99609375 597.004882812 c 0
 367.99609375 599.004882812 361.6640625 600.004882812 356.99609375 600.004882812 c 0
 352.99609375 600.004882812 347.6640625 600.337890625 340.99609375 601.004882812 c 0
 316.99609375 601.004882812 294.329101562 593.337890625 272.99609375 578.004882812 c 0
 251.6640625 562.671875 232.6640625 540.671875 215.99609375 512.004882812 c 0
 199.329101562 483.337890625 185.99609375 447.670898438 175.99609375 405.00390625 c 0
 165.99609375 362.336914062 160.99609375 315.336914062 160.99609375 264.00390625 c 0
 160.99609375 219.336914062 164.329101562 179.336914062 170.99609375 144.00390625 c 0
 177.6640625 108.670898438 186.330078125 80.337890625 196.997070312 59.0048828125 c 0
 207.6640625 37.671875 219.997070312 20.0048828125 233.997070312 6.0048828125 c 0
 247.997070312 -7.9951171875 261.6640625 -17.9951171875 274.997070312 -23.9951171875 c 0
 288.330078125 -29.328125 302.997070312 -31.9951171875 318.997070312 -31.9951171875 c 0
 334.997070312 -31.9951171875 349.6640625 -30.328125 362.997070312 -26.9951171875 c 0
 376.330078125 -23.662109375 387.330078125 -19.9951171875 395.997070312 -15.9951171875 c 0
 404.6640625 -11.9951171875 412.6640625 -6.328125 419.997070312 1.0048828125 c 0
 427.997070312 8.337890625 434.330078125 15.337890625 438.997070312 22.0048828125 c 0
 443.6640625 28.671875 448.997070312 36.671875 454.997070312 46.0048828125 c 0
 457.6640625 51.337890625 459.997070312 55.337890625 461.997070312 58.0048828125 c 0
 463.997070312 60.671875 466.6640625 64.0048828125 469.997070312 68.0048828125 c 0
 472.6640625 72.0048828125 475.33203125 75.337890625 477.998046875 78.0048828125 c 0
 480.665039062 80.0048828125 483.998046875 82.0048828125 487.998046875 84.0048828125 c 0
 491.998046875 86.0048828125 496.665039062 87.0048828125 501.998046875 87.0048828125 c 0
 506.665039062 87.0048828125 511.665039062 86.0048828125 516.998046875 84.0048828125 c 0
 523.665039062 81.337890625 529.33203125 78.0048828125 534 74.0048828125 c 0
 538.666015625 70.0048828125 542.333007812 65.0048828125 545 59.0048828125 c 0
 547.66796875 53.671875 548.66796875 48.0048828125 548 42.0048828125 c 0
 548 30.671875 545 17.0048828125 539 1.0048828125 c 0
 535 -8.9951171875 531.333007812 -17.662109375 528 -24.9951171875 c 0
 524 -32.328125 518.66796875 -41.328125 512 -51.9951171875 c 0
 505.333007812 -62.662109375 498 -71.9951171875 490 -79.9951171875 c 0
 482 -87.9951171875 472.333007812 -95.9951171875 461 -103.995117188 c 0
 449 -111.995117188 436 -118.995117188 422 -124.995117188 c 0
 408 -130.328125 392 -134.328125 374 -136.995117188 c 0
 356 -140.328125 337.333007812 -141.995117188 318 -141.995117188 c 2
 312 -141.995117188 l 2
 274.66796875 -141.995117188 240 -132.662109375 208 -113.995117188 c 0
 175.333007812 -95.328125 147.333007812 -69.9951171875 124 -37.9951171875 c 0
 100.666992188 -5.9951171875 82.6669921875 33.0048828125 70 79.0048828125 c 0
 56.6669921875 125.004882812 50 174.671875 50 228.004882812 c 0
 50 287.337890625 54.6669921875 342.670898438 64 394.00390625 c 0
 73.3330078125 445.336914062 86.3330078125 490.669921875 103 530.002929688 c 0
 120.333007812 568.669921875 140.666015625 602.002929688 164 630.002929688 c 0
 187.33203125 658.002929688 213.33203125 679.002929688 242 693.002929688 c 0
 270.666015625 707.002929688 301.333007812 714.3359375 334 715.002929688 c 0
 357.333007812 715.002929688 378.333007812 713.002929688 397 709.002929688 c 0
 416.333007812 705.669921875 435 699.669921875 453 691.002929688 c 0
 471 681.669921875 487 669.669921875 501 655.002929688 c 0
 515 640.3359375 527.66796875 622.002929688 539 600.002929688 c 0
 550.333007812 578.002929688 559.666015625 552.3359375 567 523.002929688 c 0
 582.33203125 461.669921875 590 385.002929688 590 293.002929688 c 0
 590 242.3359375 582.666015625 197.668945312 568 159.001953125 c 0
 560 138.334960938 548.33203125 121.66796875 533 109.000976562 c 0
 517.666015625 96.333984375 499.333007812 89.6669921875 478 89 c 0
 447.333007812 89 424 99.3330078125 408 120 c 0
 402 128 397 137.333007812 393 148 c 1
EndSplineSet
Validated: 1
EndChar

StartChar: A
Encoding: 65 65 33
Width: 640
GlyphClass: 2
Flags: W
HStem: -5.99902 21G<79.999 87.999 547.668 553.668> 251.001 91.998<257.713 413.998>
LayerCount: 2
Fore
SplineSet
254.998046875 331.999023438 m 1
 312.998046875 337.999023438 365.998046875 341.666015625 413.998046875 342.999023438 c 1
 363.998046875 568.999023438 l 1
 335.331054688 520.33203125 298.998046875 441.33203125 254.998046875 331.999023438 c 1
143.002929688 49 m 0
 135.669921875 25 124.33203125 8.9990234375 108.999023438 0.9990234375 c 0
 100.33203125 -3.66796875 91.9990234375 -5.9990234375 83.9990234375 -5.9990234375 c 0
 75.9990234375 -5.9990234375 68.33203125 -4.333984375 60.9990234375 -1.0009765625 c 0
 48.9990234375 4.33203125 40.33203125 12.6650390625 34.9990234375 23.998046875 c 0
 30.9990234375 32.6650390625 28.9990234375 42.1650390625 28.9990234375 52.498046875 c 0
 28.9990234375 62.8310546875 30.33203125 73.998046875 32.9990234375 85.998046875 c 0
 36.9990234375 106.665039062 55.33203125 154.665039062 87.9990234375 229.998046875 c 1
 78.666015625 238.665039062 73.3330078125 249.33203125 72 261.999023438 c 2
 72 263.999023438 l 2
 72 275.33203125 77.6669921875 285.999023438 89 295.999023438 c 0
 98.3330078125 304.666015625 110 311.333007812 124 316 c 1
 210 498.666992188 276.666992188 621 324 683 c 0
 335.333007812 697 346 707.333007812 356 714 c 0
 366 721.333007812 377.333007812 725 390 725 c 2
 398 725 l 2
 411.333007812 725 423.333007812 722 434 716 c 0
 448.666992188 708 457.666992188 695.333007812 461 678 c 0
 475.666992188 598 499.666992188 485 533 339 c 0
 551.666992188 257.666992188 566.333984375 197.833984375 577.000976562 159.500976562 c 0
 587.66796875 121.16796875 595.66796875 97.66796875 601.000976562 89.0009765625 c 0
 607.66796875 77.0009765625 611.000976562 65.66796875 611.000976562 55.0009765625 c 2
 611.000976562 49 l 2
 609.66796875 37 605.500976562 26.66796875 598.500976562 18.0009765625 c 0
 591.500976562 9.333984375 583.333984375 2.9990234375 574.000976562 -1.0009765625 c 0
 562.66796875 -4.333984375 555.334960938 -5.9990234375 552.001953125 -5.9990234375 c 0
 543.334960938 -5.9990234375 534.66796875 -3.66796875 526.000976562 0.9990234375 c 0
 510.66796875 8.9990234375 498.334960938 24.66796875 489.001953125 48.0009765625 c 0
 479.668945312 69.333984375 462.001953125 137.000976562 436.001953125 251.000976562 c 1
 352.668945312 247.66796875 277.3359375 241.000976562 210.002929688 231.000976562 c 1
 187.3359375 178.333984375 165.002929688 117.666992188 143.002929688 49 c 0
EndSplineSet
Validated: 1
EndChar

StartChar: B
Encoding: 66 66 34
Width: 640
GlyphClass: 2
Flags: W
HStem: -23 21G<133.333 140.666> -9.65137 90.1543<225.37 265.727> 285.003 96.4492<177 368.74> 605.004 103.999<181.532 373>
VStem: 53 121<82.114 137.826 144.104 285.003 383.002 598.597> 428 119<431.807 557.715> 465 124<157.259 228.28>
LayerCount: 2
Fore
SplineSet
56 41 m 2xba
 57.3330078125 60.3330078125 58.3330078125 93.3369140625 59 140.00390625 c 0
 59 227.336914062 57 324.00390625 53 430.00390625 c 1
 51.6669921875 473.336914062 51 502.50390625 51 517.50390625 c 0
 51 532.50390625 51.5 552.50390625 52.5 577.50390625 c 0
 53.5 602.50390625 54 620.00390625 54 630.00390625 c 0
 54.6669921875 650.670898438 60.833984375 666.50390625 72.5009765625 677.50390625 c 0
 84.16796875 688.50390625 98.66796875 694.00390625 116.000976562 694.00390625 c 2
 119.000976562 694.00390625 l 1
 137 699.336914062 159.333984375 703.336914062 186 706.00390625 c 0
 196.66796875 707.336914062 208.16796875 708.169921875 220.5 708.502929688 c 0
 232.833984375 708.8359375 242.333984375 709.002929688 249 709.002929688 c 2
 271 709.002929688 l 1
 283 709.002929688 l 2
 334.333984375 709.002929688 380.333984375 700.669921875 421 684.002929688 c 0
 461 666.669921875 491.66796875 642.002929688 513 610.002929688 c 0
 535.66796875 576.669921875 547 537.669921875 547 493.002929688 c 0xbc
 547 455.002929688 537.66796875 422.002929688 519 394.002929688 c 0
 504.333984375 372.669921875 486 355.669921875 464 343.002929688 c 1
 478.66796875 336.3359375 493 328.668945312 507 320.001953125 c 0
 529.66796875 305.334960938 549 288.66796875 565 270.000976562 c 0
 581 251.333984375 589 233.000976562 589 215.000976562 c 2
 589 214.000976562 l 2
 589 188.000976562 582.16796875 162.333984375 568.5 137.000976562 c 0
 554.833984375 111.66796875 535.166992188 88.5009765625 509.5 67.5009765625 c 0
 483.83203125 46.5009765625 449.666015625 28.66796875 406.999023438 14.0009765625 c 0
 364.33203125 -0.666015625 317.33203125 -9.9990234375 265.999023438 -13.9990234375 c 1
 260.202148438 -11.1005859375 254.341796875 -9.6513671875 248.41796875 -9.6513671875 c 0x7a
 240.71875 -9.6513671875 232.912109375 -12.1005859375 224.999023438 -16.9990234375 c 1
 190.33203125 -19.666015625 168.999023438 -21.3330078125 160.999023438 -22 c 0
 152.33203125 -22.6669921875 144.33203125 -23 136.999023438 -23 c 0
 129.666015625 -23 122.333007812 -22.3330078125 115 -21 c 2
 113 -21 l 2
 96.3330078125 -21 82.3330078125 -15.3330078125 71 -4 c 0
 61 6 56 19 56 35 c 2
 56 41 l 2xba
174 403.00390625 m 2
 174 383.001953125 l 1
 203.33203125 382.334960938 230 381.834960938 254 381.501953125 c 0
 256.3984375 381.46875 258.76171875 381.452148438 261.08984375 381.452148438 c 0
 282.0625 381.452148438 300.19921875 382.801757812 315.5 385.501953125 c 0
 332.5 388.501953125 346.666992188 392.334960938 358 397.001953125 c 0
 369.33203125 401.668945312 379.33203125 407.3359375 388 414.002929688 c 0
 396.666992188 420.669921875 403.333984375 427.336914062 408 434.00390625 c 0
 412.66796875 440.670898438 416.5 448.170898438 419.5 456.50390625 c 0
 422.5 464.836914062 424.66796875 472.336914062 426 479.00390625 c 0
 427.333984375 485.670898438 428 492.670898438 428 500.00390625 c 0
 428 514.670898438 424.66796875 528.170898438 418 540.50390625 c 0
 411.333984375 552.836914062 402.833984375 563.00390625 392.5 571.00390625 c 0
 382.16796875 579.00390625 370.334960938 585.670898438 357.001953125 591.00390625 c 0
 334.502929688 600.37890625 310.831054688 605.06640625 285.98828125 605.06640625 c 0
 284.331054688 605.06640625 282.66796875 605.045898438 281.001953125 605.00390625 c 0
 246.334960938 605.00390625 212.66796875 602.00390625 180 596.00390625 c 1
 179.333984375 584.00390625 178.666992188 566.00390625 178 542.00390625 c 0
 175.33203125 493.336914062 174 447.00390625 174 403.00390625 c 2
450.5 165.501953125 m 0
 460.166992188 177.834960938 465 189.004882812 465 199.004882812 c 0
 465 204.337890625 461.666992188 210.670898438 455 218.00390625 c 0
 448.33203125 225.336914062 437.666015625 233.169921875 422.999023438 241.502929688 c 0
 408.33203125 249.8359375 387.33203125 258.002929688 359.999023438 266.002929688 c 0
 332.666015625 274.002929688 301.33203125 280.3359375 266 285.002929688 c 1
 177 285.002929688 l 1
 179.666992188 193.002929688 182 124.669921875 184 80.0029296875 c 1
 191.33203125 80.0029296875 202 80.169921875 216 80.5029296875 c 0x7a
 230 80.8359375 242 81.3359375 252 82.0029296875 c 0
 284 83.3359375 314 88.3359375 342 97.0029296875 c 0
 370 105.669921875 392.666992188 116.169921875 410 128.502929688 c 0
 427.33203125 140.8359375 440.83203125 153.168945312 450.5 165.501953125 c 0
EndSplineSet
Validated: 1
EndChar

StartChar: C
Encoding: 67 67 35
Width: 640
GlyphClass: 2
Flags: W
HStem: -30.998 114.001<232.458 412.021> 494.006 246.994<486.917 577.658> 608.006 104.995<348.245 474.259>
VStem: 38 123.999<159.984 372.712> 474 127<517.69 584.105>
LayerCount: 2
Fore
SplineSet
592.998046875 692 m 0xd8
 598.998046875 666 602 638.338867188 602 609.005859375 c 0
 602 589.005859375 601.666992188 577.005859375 601 573.005859375 c 0
 601 556.338867188 595 539.505859375 583 522.505859375 c 0
 571 505.505859375 558 496.338867188 544 495.005859375 c 0
 541.333984375 494.338867188 538.333984375 494.005859375 535 494.005859375 c 0xd8
 523 494.005859375 511 498.005859375 499 506.005859375 c 0
 482.333984375 516.672851562 474 531.005859375 474 549.005859375 c 0
 474 553.672851562 474.666992188 565.672851562 476 585.005859375 c 1
 466.666992188 591.005859375 460.666992188 594.672851562 458 596.005859375 c 0
 455.333984375 597.338867188 451.666015625 599.338867188 446.999023438 602.005859375 c 0
 438.33203125 606.005859375 429.666015625 608.005859375 420.998046875 608.005859375 c 0
 400.998046875 608.005859375 378.998046875 602.005859375 354.998046875 590.005859375 c 0
 330.998046875 578.005859375 307.666015625 560.505859375 284.998046875 537.505859375 c 0
 262.331054688 514.505859375 241.831054688 488.172851562 223.498046875 458.505859375 c 0
 205.166015625 428.838867188 190.33203125 395.171875 178.999023438 357.504882812 c 0
 167.666015625 319.837890625 161.999023438 282.004882812 161.999023438 244.004882812 c 0
 161.999023438 217.337890625 167.999023438 191.670898438 179.999023438 167.00390625 c 0
 191.999023438 142.336914062 208.499023438 122.169921875 229.499023438 106.502929688 c 0
 250.499023438 90.8359375 272.33203125 83.0029296875 294.999023438 83.0029296875 c 0
 317.666015625 83.0029296875 339.666015625 85.169921875 360.999023438 89.5029296875 c 0
 382.33203125 93.8359375 401.499023438 99.3359375 418.499023438 106.002929688 c 0
 435.499023438 112.669921875 450.166015625 119.502929688 462.499023438 126.502929688 c 0
 474.83203125 133.502929688 485.666015625 140.669921875 494.998046875 148.002929688 c 0
 504.331054688 154.669921875 512.6640625 159.669921875 519.998046875 163.002929688 c 0
 527.998046875 167.002929688 536.830078125 169.002929688 546.498046875 169.002929688 c 0
 556.1640625 169.002929688 565.331054688 166.002929688 573.998046875 160.002929688 c 0
 588.666015625 148.669921875 595.998046875 135.169921875 595.998046875 119.502929688 c 0
 595.998046875 103.8359375 587.666015625 86.6689453125 570.998046875 68.001953125 c 0
 512.998046875 2.001953125 420.331054688 -30.998046875 292.998046875 -30.998046875 c 2
 282.998046875 -30.998046875 l 2
 251.666015625 -30.998046875 222.33203125 -26.3310546875 194.999023438 -16.998046875 c 0
 167.666015625 -7.6650390625 144.666015625 5.16796875 125.999023438 21.5009765625 c 0
 107.33203125 37.833984375 91.33203125 56.333984375 78 77.0009765625 c 0
 64.666015625 97.66796875 54.666015625 119.500976562 48 142.500976562 c 0
 41.33203125 165.500976562 38 188.66796875 38 212.000976562 c 0
 38 260.000976562 43.166015625 306.500976562 53.5 351.500976562 c 0
 63.83203125 396.500976562 77.666015625 437.000976562 94.998046875 473.000976562 c 0
 112.33203125 509.000976562 132.6640625 542.333984375 155.998046875 573.000976562 c 0
 181.330078125 603.66796875 207.998046875 629.000976562 235.998046875 649.000976562 c 0
 263.998046875 669.000976562 293.330078125 684.66796875 323.998046875 696.000976562 c 0
 354.6640625 707.333984375 384.331054688 713.000976562 412.998046875 713.000976562 c 0xb8
 436.331054688 713.000976562 457.998046875 711.000976562 477.998046875 707.000976562 c 1
 481.998046875 714.333984375 486.998046875 720.666992188 492.998046875 726 c 0
 502.331054688 734 512.6640625 738.666992188 523.998046875 740 c 0
 528.6640625 740.666992188 531.331054688 741 531.998046875 741 c 2
 532.998046875 741 l 2
 543.666015625 741 554.666015625 737.666992188 565.998046875 731 c 0
 579.998046875 721.666992188 588.998046875 708.666992188 592.998046875 692 c 0xd8
EndSplineSet
Validated: 1
EndChar

StartChar: D
Encoding: 68 68 36
Width: 640
GlyphClass: 2
Flags: W
HStem: -31 109.998<188.756 413.349> 694 20G<91.6353 111.635>
VStem: 35.7031 121.477<109.381 166.726 194.179 614.997> 43.3027 125<100.593 519.491> 484.305 119.992<169.195 388.265>
LayerCount: 2
Fore
SplineSet
41.298828125 62 m 2xe8
 42.6318359375 84.6669921875 43.302734375 120.331054688 43.302734375 168.998046875 c 0xd8
 43.302734375 256.998046875 41.302734375 361.331054688 37.302734375 481.998046875 c 1
 36.6357421875 517.998046875 36.1357421875 541.831054688 35.802734375 553.498046875 c 0
 35.736328125 555.830078125 35.703125 558.401367188 35.703125 561.212890625 c 0
 35.703125 572.467773438 36.236328125 587.5625 37.302734375 606.499023438 c 0
 38.6357421875 630.166015625 39.302734375 644.666015625 39.302734375 649.999023438 c 1
 39.9697265625 670.666015625 45.9697265625 686.333007812 57.302734375 697 c 0
 68.6357421875 708.333007812 82.96875 714 100.301757812 714 c 0
 122.96875 714 152.96875 710.666992188 190.301757812 704 c 0
 213.634765625 700 237.467773438 694.5 261.80078125 687.5 c 0
 286.133789062 680.5 312.466796875 670.666992188 340.799804688 658 c 0
 369.1328125 645.333007812 395.965820312 630.833007812 421.298828125 614.5 c 0
 446.631835938 598.166992188 470.96484375 577.333984375 494.297851562 552.000976562 c 0
 516.297851562 527.333984375 535.46484375 500.166992188 551.797851562 470.5 c 0
 568.130859375 440.833007812 580.963867188 405.833007812 590.296875 365.5 c 0
 599.629882812 325.166992188 604.296875 281.666992188 604.296875 235 c 0
 604.296875 211.666992188 600.963867188 187.666992188 594.296875 163 c 0
 587.629882812 138.333007812 577.629882812 114.666015625 564.296875 91.9990234375 c 0
 550.963867188 69.33203125 535.130859375 48.83203125 516.797851562 30.4990234375 c 0
 498.46484375 12.166015625 475.631835938 -2.6669921875 448.298828125 -14 c 0
 420.298828125 -25.3330078125 390.631835938 -31 359.298828125 -31 c 2
 349.298828125 -31 l 2
 316.631835938 -31 283.631835938 -29.5 250.298828125 -26.5 c 0
 216.965820312 -23.5 190.298828125 -20 170.298828125 -16 c 0
 150.298828125 -12 133.798828125 -8.3330078125 120.798828125 -5 c 0
 107.798828125 -1.6669921875 99.9658203125 0 97.298828125 0 c 0
 80.6318359375 0 66.6318359375 5.6669921875 55.298828125 17 c 0
 45.923828125 26.375 41.236328125 38.09375 41.236328125 52.1552734375 c 0
 41.236328125 53.0927734375 41.2568359375 54.041015625 41.298828125 55 c 2
 41.298828125 62 l 2xe8
252.802734375 85.9970703125 m 0
 283.135742188 81.330078125 318.3046875 78.998046875 358.3046875 78.998046875 c 0
 375.637695312 78.998046875 392.137695312 84.6650390625 407.8046875 95.998046875 c 0
 423.471679688 107.331054688 436.8046875 122.1640625 447.8046875 140.497070312 c 0
 458.8046875 158.830078125 467.637695312 179.330078125 474.3046875 201.997070312 c 0
 480.971679688 224.6640625 484.3046875 246.6640625 484.3046875 267.997070312 c 0
 484.3046875 388.6640625 430.971679688 480.997070312 324.3046875 544.997070312 c 0
 286.3046875 567.6640625 230.971679688 590.997070312 158.3046875 614.997070312 c 1
 157.5546875 584.499023438 157.1796875 553.485351562 157.1796875 521.955078125 c 0xe8
 157.1796875 469.401367188 158.221679688 415.416015625 160.3046875 359.997070312 c 0
 161.637695312 331.330078125 162.970703125 289.497070312 164.303710938 234.497070312 c 0
 165.63671875 179.497070312 166.969726562 137.330078125 168.302734375 107.997070312 c 1
 194.302734375 97.9970703125 222.469726562 90.6640625 252.802734375 85.9970703125 c 0
EndSplineSet
Validated: 1
EndChar

StartChar: E
Encoding: 69 69 37
Width: 640
GlyphClass: 2
Flags: W
HStem: -20 112.001<175.549 519.752> -6 115<259.729 577.326> 301.002 108.999<170.799 444.434> 319.002 106<251.647 563.904> 590 107.999<175.994 579.505>
VStem: 47.7979 124.001<95.1892 301.002 410.001 581.907>
LayerCount: 2
Fore
SplineSet
114.796875 704 m 2x8c
 131.463867188 704 145.469726562 698.666015625 156.802734375 687.999023438 c 1
 214.135742188 694.666015625 287.799804688 697.999023438 377.799804688 697.999023438 c 0
 401.1328125 697.999023438 422.802734375 697.666015625 442.802734375 696.999023438 c 0
 484.135742188 695.666015625 516.46875 693.666015625 539.801757812 690.999023438 c 0
 558.46875 688.999023438 571.96875 683.83203125 580.301757812 675.499023438 c 0
 588.634765625 667.166015625 593.134765625 655.999023438 593.801757812 641.999023438 c 0
 593.801757812 634.666015625 592.96875 627.833007812 591.301757812 621.5 c 0
 589.634765625 615.166992188 587.134765625 609.333984375 583.801757812 604.000976562 c 0
 579.801757812 597.333984375 573.46875 592.333984375 564.801757812 589.000976562 c 0
 558.801757812 586.333984375 552.46875 585.000976562 545.801757812 585.000976562 c 0
 543.134765625 585.000976562 540.467773438 585.333984375 537.80078125 586.000976562 c 0
 499.470703125 588.778320312 459.521484375 590.166992188 417.952148438 590.166992188 c 0
 409.6328125 590.166992188 401.249023438 590.111328125 392.80078125 590 c 2
 338.80078125 590 l 2
 275.467773438 588.666992188 220.467773438 585.333984375 173.80078125 580.000976562 c 1
 171.133789062 522.000976562 169.80078125 465.333984375 169.80078125 410.000976562 c 1xac
 221.133789062 410.66796875 290.466796875 413.334960938 377.799804688 418.001953125 c 0
 463.799804688 422.668945312 512.131835938 425.001953125 522.798828125 425.001953125 c 0
 542.131835938 425.001953125 555.965820312 420.334960938 564.298828125 411.001953125 c 0
 572.631835938 401.668945312 576.798828125 390.001953125 576.798828125 376.001953125 c 0
 576.798828125 360.001953125 573.465820312 347.334960938 566.798828125 338.001953125 c 0
 557.465820312 326.001953125 542.798828125 319.668945312 522.798828125 319.001953125 c 0x1c
 510.798828125 319.001953125 459.131835938 316.334960938 367.798828125 311.001953125 c 0
 274.465820312 305.001953125 208.798828125 301.668945312 170.798828125 301.001953125 c 1
 171.465820312 284.334960938 171.798828125 268.16796875 171.798828125 252.500976562 c 2
 171.798828125 203.000976562 l 2
 172.465820312 158.333984375 173.798828125 127.333984375 175.798828125 110.000976562 c 0
 176.465820312 104.000976562 177.1328125 99.0009765625 177.799804688 95.0009765625 c 0
 191.1328125 93.0009765625 210.965820312 92.0009765625 237.298828125 92.0009765625 c 0xac
 263.631835938 92.0009765625 296.798828125 92.66796875 336.798828125 94.0009765625 c 0
 430.131835938 97.333984375 488.798828125 101.666992188 512.798828125 107 c 0
 522.798828125 108.333007812 531.965820312 109 540.298828125 109 c 0
 548.631835938 109 555.96484375 107.333007812 562.297851562 104 c 0
 568.630859375 100.666992188 573.797851562 97.1669921875 577.797851562 93.5 c 0
 581.797851562 89.8330078125 584.96484375 85.3330078125 587.297851562 80 c 0
 589.630859375 74.6669921875 591.297851562 70 592.297851562 66 c 0
 593.297851562 62 593.801757812 57.6669921875 593.801757812 53 c 0
 593.801757812 37 588.46484375 23 577.797851562 11 c 0
 567.797851562 -0.3330078125 553.797851562 -6.3330078125 535.797851562 -7 c 1
 530.46484375 1.6669921875 525.131835938 2 519.798828125 -6 c 1
 516.798828125 -6 l 2x4c
 501.465820312 -6 472.465820312 -7.3330078125 429.798828125 -10 c 0
 385.798828125 -12.6669921875 340.965820312 -15 295.298828125 -17 c 0
 249.631835938 -19 215.131835938 -20 191.798828125 -20 c 0
 169.131835938 -20 150.46484375 -19.3330078125 135.797851562 -18 c 0
 117.130859375 -16.6669921875 99.130859375 -8 81.7978515625 8 c 0
 64.46484375 24 54.46484375 43 51.7978515625 65 c 0
 49.7978515625 81 48.46484375 109 47.7978515625 149 c 0
 47.7978515625 185.666992188 48.130859375 222.5 48.7978515625 259.5 c 0
 49.46484375 296.5 49.7978515625 327.833007812 49.7978515625 353.5 c 0
 49.7978515625 379.166992188 49.130859375 415 47.7978515625 461 c 0
 47.130859375 499.666992188 46.630859375 525.5 46.2978515625 538.5 c 0
 46.2314453125 541.098632812 46.1982421875 543.916992188 46.1982421875 546.955078125 c 0
 46.1982421875 559.115234375 46.7314453125 574.796875 47.7978515625 594 c 0
 49.130859375 618 49.7978515625 633 49.7978515625 639 c 2
 49.7978515625 640 l 2
 50.46484375 660.666992188 56.46484375 676.5 67.7978515625 687.5 c 0
 79.130859375 698.5 93.4638671875 704 110.796875 704 c 2
 114.796875 704 l 2x8c
EndSplineSet
Validated: 1
EndChar

StartChar: F
Encoding: 70 70 38
Width: 640
GlyphClass: 2
Flags: W
HStem: -22.002 21G<110.333 118.666> 313.498 106.502<170.999 527.152> 597 109.099<177.966 579.043> 695 20G<115.667 124.667>
VStem: 48 121.749<39.4946 142.728 166.745 310.581 416 589> 52 127.999<-3.56057 304.932>
LayerCount: 2
Fore
SplineSet
116 715 m 0xd8
 133.333007812 715 147.333007812 709.33203125 158 697.999023438 c 1
 235.397460938 703.3984375 310.905273438 706.098632812 384.522460938 706.098632812 c 0
 392.705078125 706.098632812 400.864257812 706.065429688 409 705.999023438 c 0
 462.333007812 705.999023438 506 704.666015625 540 701.999023438 c 0
 558.666992188 700.666015625 572.166992188 695.666015625 580.5 686.999023438 c 0
 588.833007812 678.33203125 593.333007812 666.999023438 594 652.999023438 c 2
 594 651.999023438 l 2
 594 636.666015625 589.166992188 623.333007812 579.5 612 c 0
 569.833007812 600.666992188 555.333007812 595 536 595 c 2
 534 595 l 2
 506.500976562 596.5 477.688476562 597.25 447.565429688 597.25 c 0
 437.522460938 597.25 427.333984375 597.166992188 417 597 c 0
 339.666992188 597 258.666992188 594.333007812 174 589 c 1
 173.333007812 579 172.666015625 563.666992188 171.999023438 543 c 0
 170.499023438 513.500976562 169.749023438 485.501953125 169.749023438 459.002929688 c 0xe8
 169.749023438 450.16796875 169.83203125 441.500976562 169.999023438 433 c 2
 169.999023438 416 l 1
 197.33203125 418.666992188 226.999023438 420 258.999023438 420 c 0
 267.666015625 420 276.333007812 419.666992188 285 419 c 0
 333 418.333007812 376.333007812 416.666015625 415 413.999023438 c 0
 454.333007812 411.33203125 483.833007812 408.165039062 503.5 404.498046875 c 0
 523.166992188 400.831054688 536.833984375 395.1640625 544.500976562 387.497070312 c 0
 552.16796875 379.830078125 556.66796875 369.330078125 558.000976562 355.997070312 c 0
 558.000976562 341.997070312 554.66796875 329.6640625 548.000976562 318.997070312 c 0
 543.333984375 312.330078125 536.666992188 307.330078125 528 303.997070312 c 0
 522 301.997070312 515.333007812 300.997070312 508 300.997070312 c 2
 501 300.997070312 l 2
 480.333007812 304.330078125 450.333007812 307.330078125 411 309.997070312 c 0
 373.662109375 312.368164062 335.270507812 313.553710938 295.825195312 313.553710938 c 0
 290.899414062 313.553710938 285.958007812 313.53515625 281 313.498046875 c 0
 236.333007812 313.165039062 199.666015625 311.665039062 170.999023438 308.998046875 c 1
 174.33203125 222.331054688 177.33203125 130.998046875 179.999023438 34.998046875 c 0
 177.999023438 16.998046875 169.33203125 2.998046875 153.999023438 -7.001953125 c 0
 140.666015625 -16.3349609375 126.33203125 -21.3349609375 110.999023438 -22.001953125 c 0
 109.666015625 -22.001953125 108.666992188 -21.6689453125 108 -21.001953125 c 0
 91.3330078125 -21.001953125 77.3330078125 -15.3349609375 66 -4.001953125 c 0
 56.625 5.373046875 51.9375 17.3837890625 51.9375 32.0322265625 c 0
 51.9375 33.0087890625 51.9580078125 33.998046875 52 34.998046875 c 2
 52 40.998046875 l 2xe4
 53.3330078125 61.6650390625 54 96.33203125 54 144.999023438 c 0
 54 236.999023438 52 338.999023438 48 450.999023438 c 0
 46.6669921875 494.33203125 46 523.499023438 46 538.499023438 c 0
 46 553.499023438 46.5 573.499023438 47.5 598.499023438 c 0
 48.5 623.499023438 49.3330078125 640.666015625 50 649.999023438 c 0
 50.6669921875 670.666015625 56.6669921875 686.333007812 68 697 c 0
 79.3330078125 708.333007812 93.666015625 714 110.999023438 714 c 0
 113.666015625 714.666992188 115.333007812 715 116 715 c 0xd8
EndSplineSet
Validated: 1
EndChar

StartChar: G
Encoding: 71 71 39
Width: 640
GlyphClass: 2
Flags: W
HStem: -30.9951 113.997<230.073 354.129> 619.005 104.999<347.592 485.141>
VStem: 36.002 123.998<160.189 376.151>
LayerCount: 2
Fore
SplineSet
363.99609375 -16 m 0
 337.329101562 -26 310.66796875 -30.9951171875 284.000976562 -30.9951171875 c 0
 251.333984375 -30.9951171875 221.000976562 -26.328125 193.000976562 -16.9951171875 c 0
 165.66796875 -7.662109375 142.8359375 5.1708984375 124.501953125 21.50390625 c 0
 106.169921875 37.8369140625 90.169921875 56.3369140625 76.501953125 77.00390625 c 0
 62.8359375 97.6708984375 52.66796875 119.50390625 46.001953125 142.50390625 c 0
 39.333984375 165.50390625 36.001953125 188.670898438 36.001953125 212.00390625 c 0
 36.001953125 260.670898438 41.16796875 308.00390625 51.501953125 354.00390625 c 0
 61.833984375 400.00390625 75.66796875 441.336914062 93 478.00390625 c 0
 110.333984375 514.670898438 130.666015625 548.670898438 154 580.00390625 c 0
 179.33203125 610.670898438 206.165039062 636.50390625 234.498046875 657.50390625 c 0
 262.83203125 678.50390625 291.998046875 694.670898438 321.998046875 706.00390625 c 0
 352.665039062 718.00390625 382.998046875 724.00390625 412.998046875 724.00390625 c 0
 442.998046875 724.00390625 476.665039062 717.336914062 513.998046875 704.00390625 c 0
 549.998046875 690.670898438 573.665039062 678.337890625 584.998046875 667.004882812 c 0
 596.998046875 655.004882812 603.33203125 640.671875 603.998046875 624.004882812 c 0
 603.998046875 616.004882812 602.33203125 607.337890625 598.998046875 598.004882812 c 0
 594.998046875 586.004882812 586.33203125 577.337890625 572.998046875 572.004882812 c 0
 566.33203125 569.337890625 559.6640625 568.004882812 552.997070312 568.004882812 c 0
 545.6640625 568.004882812 539.33203125 569.004882812 533.998046875 571.004882812 c 0
 528.665039062 573.004882812 518.665039062 578.337890625 503.998046875 587.004882812 c 0
 489.33203125 595.671875 474.33203125 603.171875 458.998046875 609.504882812 c 0
 443.665039062 615.837890625 430.33203125 619.004882812 419 619.004882812 c 0
 399 619.004882812 377 612.837890625 353 600.504882812 c 0
 329 588.171875 305.83203125 570.171875 283.5 546.504882812 c 0
 261.166015625 522.837890625 240.666015625 495.670898438 222 465.00390625 c 0
 203.33203125 434.336914062 188.33203125 399.669921875 177 361.002929688 c 0
 165.666015625 322.3359375 160 283.668945312 160 245.001953125 c 0
 160 218.334960938 166 192.501953125 178 167.501953125 c 0
 190 142.501953125 206.5 122.168945312 227.5 106.501953125 c 0
 248.5 90.8349609375 270.666015625 83.001953125 294 83.001953125 c 0
 309.33203125 83.001953125 325 87.501953125 341 96.501953125 c 0
 357 105.501953125 372 117.334960938 386 132.001953125 c 0
 400 146.668945312 413.33203125 163.3359375 426 182.002929688 c 0
 445.33203125 210.669921875 460.665039062 240.002929688 471.998046875 270.002929688 c 1
 433.33203125 268.002929688 394.33203125 264.502929688 354.998046875 259.502929688 c 0
 315.665039062 254.502929688 288.33203125 248.3359375 273 241.002929688 c 0
 265 237.002929688 257 235.002929688 249 235.002929688 c 0
 241 235.002929688 233 237.3359375 225 242.002929688 c 0
 210.33203125 250.002929688 201.665039062 261.3359375 198.998046875 276.002929688 c 0
 198.33203125 279.3359375 197.998046875 282.668945312 197.998046875 286.001953125 c 0
 197.998046875 300.001953125 203.665039062 312.668945312 214.998046875 324.001953125 c 0
 222.998046875 332.001953125 233.998046875 339.001953125 247.998046875 345.001953125 c 0
 269.998046875 355.001953125 315.33203125 362.334960938 383.998046875 367.001953125 c 0
 433.33203125 370.334960938 474.6640625 372.001953125 507.997070312 372.001953125 c 2
 540.997070312 372.001953125 l 2
 560.330078125 370.668945312 574.330078125 366.668945312 582.997070312 360.001953125 c 0
 594.330078125 351.334960938 599.997070312 337.66796875 599.997070312 319.000976562 c 0
 599.997070312 299.000976562 592.6640625 284.66796875 577.997070312 276.000976562 c 0
 577.997070312 274.000976562 577.330078125 270.000976562 575.997070312 264.000976562 c 0
 575.330078125 260.66796875 574.6640625 255.000976562 573.99609375 247.000976562 c 0
 570.6640625 218.333984375 557.330078125 181.666992188 533.997070312 137 c 0
 522.6640625 116.333007812 508.6640625 96 491.997070312 76 c 0
 474.6640625 56 455.6640625 38.1669921875 434.997070312 22.5 c 0
 414.330078125 6.8330078125 390.6640625 -6 363.99609375 -16 c 0
EndSplineSet
Validated: 1
EndChar

StartChar: H
Encoding: 72 72 40
Width: 640
GlyphClass: 2
Flags: W
HStem: -21.999 21G<115.334 123.667 507.335 516.001> 312.001 86.0049<187.998 394.945> 694.003 20G<118.332 137.998 510.667 530.334>
VStem: 63.499 122.499<-3.04591 184.934 189.06 312.001 398.006 696.499> 448.001 128<-5.04489 337.626> 455.999 124.335<44.0761 341.001 420.471 696.468>
LayerCount: 2
Fore
SplineSet
56.9990234375 33 m 2xf8
 56.9990234375 41.0048828125 l 2
 58.33203125 59.0048828125 58.9990234375 103.671875 58.9990234375 175.004882812 c 0
 58.9990234375 215.671875 59.83203125 265.171875 61.4990234375 323.504882812 c 0
 63.166015625 381.837890625 63.9990234375 416.837890625 63.9990234375 428.504882812 c 2
 63.9990234375 463.504882812 l 2
 63.9990234375 475.171875 63.83203125 494.671875 63.4990234375 522.004882812 c 0
 63.166015625 549.337890625 62.9990234375 567.504882812 62.9990234375 576.504882812 c 0
 62.9990234375 585.504882812 63.166015625 594.671875 63.4990234375 604.004882812 c 0
 63.83203125 613.337890625 63.9990234375 619.004882812 63.9990234375 621.004882812 c 0
 63.9990234375 623.004882812 64.166015625 625.671875 64.4990234375 629.004882812 c 0
 64.83203125 632.337890625 64.9990234375 635.504882812 64.9990234375 638.504882812 c 2
 64.9990234375 646.504882812 l 1
 64.9990234375 650.004882812 l 2
 65.666015625 670.671875 71.9990234375 686.3359375 83.9990234375 697.002929688 c 0
 95.33203125 708.3359375 109.665039062 714.002929688 126.998046875 714.002929688 c 2
 129.998046875 714.002929688 l 2
 145.998046875 714.002929688 159.665039062 709.3359375 170.998046875 700.002929688 c 0
 184.331054688 689.3359375 191.331054688 673.005859375 191.998046875 651.005859375 c 0
 191.998046875 643.672851562 190.998046875 629.005859375 188.998046875 607.005859375 c 0
 186.998046875 585.005859375 185.998046875 565.172851562 185.998046875 547.505859375 c 0
 185.998046875 529.838867188 186.331054688 505.005859375 186.998046875 473.005859375 c 0
 187.665039062 441.005859375 187.998046875 416.005859375 187.998046875 398.005859375 c 1
 245.998046875 399.338867188 316.665039062 405.338867188 399.998046875 416.005859375 c 0
 424.665039062 419.338867188 443.333007812 421.671875 455.999023438 423.004882812 c 0
 455.999023438 425.671875 455.833007812 430.171875 455.499023438 436.504882812 c 0
 455.166015625 442.837890625 454.833007812 457.670898438 454.500976562 481.00390625 c 0
 454.166992188 504.336914062 454.000976562 522.50390625 454.000976562 535.50390625 c 0
 454.000976562 548.50390625 454.499023438 569.00390625 455.499023438 597.00390625 c 0
 456.499023438 625.00390625 457.333007812 642.00390625 458.000976562 648.00390625 c 0
 458.666992188 669.336914062 464.666992188 685.669921875 476.000976562 697.002929688 c 0
 488.000976562 708.3359375 502.333007812 714.002929688 519.000976562 714.002929688 c 2
 522.000976562 714.002929688 l 2
 538.666992188 714.002929688 552.666992188 709.3359375 564.000976562 700.002929688 c 0
 576.666992188 689.3359375 583.000976562 673.668945312 583.000976562 653.001953125 c 0
 583.000976562 640.334960938 582.666992188 615.001953125 582.000976562 577.001953125 c 0
 581.333007812 530.334960938 580.833007812 488.501953125 580.500976562 451.501953125 c 0
 580.388671875 439.180664062 580.333984375 427.709960938 580.333984375 417.088867188 c 0xf4
 580.333984375 395.815429688 580.555664062 377.954101562 581.000976562 363.501953125 c 0
 581.668945312 341.834960938 582.000976562 321.66796875 582.000976562 303.000976562 c 0
 582.000976562 266.333984375 581.000976562 219.500976562 579.000976562 162.500976562 c 0
 577.000976562 105.500976562 576.000976562 65.66796875 576.000976562 43.0009765625 c 2
 576.000976562 35.0009765625 l 2
 574.000976562 17.0009765625 566.000976562 3.0009765625 552.000976562 -6.9990234375 c 0
 538.668945312 -16.33203125 524.000976562 -21.33203125 508.000976562 -21.9990234375 c 0
 506.668945312 -21.9990234375 505.668945312 -21.666015625 505.000976562 -20.9990234375 c 0
 488.333984375 -20.9990234375 474.666992188 -15.33203125 464.000976562 -3.9990234375 c 0
 453.333007812 6.0009765625 448.000976562 19.333984375 448.000976562 36.0009765625 c 2
 448.000976562 43.0009765625 l 1
 454.666992188 127.000976562 458.000976562 220.333984375 458.000976562 323.000976562 c 2
 458.000976562 341.000976562 l 1
 436.000976562 339.000976562 393.500976562 333.833984375 330.500976562 325.500976562 c 0
 267.500976562 317.16796875 219.000976562 312.66796875 185.000976562 312.000976562 c 1
 185.000976562 303.000976562 l 2
 183.000976562 269.66796875 182.000976562 231.000976562 182.000976562 187.000976562 c 0
 182.000976562 143.000976562 183.000976562 92.66796875 185.000976562 36.0009765625 c 0
 183.000976562 17.333984375 174.333007812 3.0009765625 159.000976562 -6.9990234375 c 0
 145.666992188 -16.33203125 131.333984375 -21.33203125 116.000976562 -21.9990234375 c 0
 114.66796875 -21.9990234375 113.66796875 -21.666015625 113.000976562 -20.9990234375 c 0
 96.333984375 -20.9990234375 82.333984375 -15.33203125 71.0009765625 -3.9990234375 c 0
 61.66796875 5.333984375 56.9990234375 17.6669921875 56.9990234375 33 c 2xf8
EndSplineSet
Validated: 1
EndChar

StartChar: I
Encoding: 73 73 41
Width: 640
GlyphClass: 2
Flags: W
HStem: -11.001 102.999<62.5044 241.312 385 445.94 449.959 536 539 581.104> -7.00098 98.999<385 536 539 581.104> 599.998 110.001<70.0194 255.002>
VStem: 249.002 135.998<92.998 192.728> 256.002 134.999<94.249 597.999>
LayerCount: 2
Fore
SplineSet
199 -12 m 1x70
 155 -13.3330078125 124.66796875 -14.001953125 108.000976562 -14.001953125 c 0
 88.0009765625 -14.001953125 72.66796875 -9.6689453125 62.0009765625 -1.001953125 c 0
 50.66796875 7.6650390625 45.0009765625 18.998046875 45.0009765625 32.998046875 c 2
 45.0009765625 35.998046875 l 2
 45.0009765625 49.3310546875 49.833984375 60.998046875 59.5009765625 70.998046875 c 0
 69.16796875 80.998046875 84.3349609375 86.3310546875 105.001953125 86.998046875 c 0
 131.668945312 88.3310546875 179.668945312 89.6640625 249.001953125 90.9970703125 c 1x70
 253.668945312 160.330078125 256.001953125 232.330078125 256.001953125 306.997070312 c 0
 256.001953125 346.330078125 255.334960938 386.330078125 254.001953125 426.997070312 c 0
 252.668945312 455.6640625 252.001953125 486.6640625 252.001953125 519.997070312 c 2
 252.001953125 540.997070312 l 2
 252.001953125 547.6640625 252.501953125 557.831054688 253.501953125 571.498046875 c 0
 254.501953125 585.165039062 255.001953125 594.665039062 255.001953125 599.998046875 c 1
 216.334960938 600.665039062 187.66796875 600.998046875 169.000976562 600.998046875 c 0
 151.66796875 600.998046875 134.000976562 600.665039062 116.000976562 599.998046875 c 2
 114.000976562 599.998046875 l 2
 95.333984375 599.998046875 80.5009765625 604.665039062 69.5009765625 613.998046875 c 0
 58.5009765625 623.331054688 52.66796875 635.998046875 52.0009765625 651.998046875 c 2
 52.0009765625 653.998046875 l 2
 52.0009765625 667.998046875 57.16796875 680.331054688 67.5009765625 690.998046875 c 0
 77.833984375 701.665039062 93.333984375 707.33203125 114.000976562 707.999023438 c 0
 171.333984375 709.33203125 226.333984375 709.999023438 279.000976562 709.999023438 c 0
 383.66796875 709.999023438 469.333007812 706.999023438 536 700.999023438 c 0
 551.333007812 699.666015625 563.66796875 695.333007812 573.000976562 688 c 0
 585.66796875 678.666992188 592.334960938 665.666992188 593.001953125 649 c 2
 593.001953125 648 l 2
 593.001953125 633.333007812 588.668945312 619.666015625 580.001953125 606.999023438 c 0
 575.334960938 599.666015625 568.66796875 593.999023438 560.000976562 589.999023438 c 0
 554.66796875 587.33203125 548.66796875 585.999023438 542.000976562 585.999023438 c 0
 538.66796875 585.999023438 534.66796875 586.666015625 530.000976562 587.999023438 c 0
 511.333984375 590.666015625 465.333984375 593.999023438 392.000976562 597.999023438 c 1
 392.000976562 590.666015625 391.333984375 577.333007812 390.000976562 558 c 0
 389.333984375 539.333007812 389.000976562 524.833007812 389.000976562 514.5 c 2
 389.000976562 484 l 2
 389.000976562 444.666992188 389.333984375 412.166992188 390.000976562 386.5 c 0
 390.66796875 360.833007812 391.000976562 334.666015625 391.000976562 307.999023438 c 0x68
 391.000976562 281.33203125 390.16796875 243.665039062 388.500976562 194.998046875 c 0
 386.833984375 146.331054688 385.666992188 112.331054688 385 92.998046875 c 1
 413 92.998046875 436 92.6650390625 454 91.998046875 c 2
 536 91.998046875 l 1xb0
 536 97.3310546875 536.333007812 97.3310546875 537 91.998046875 c 1
 537 97.3310546875 537.33203125 97.3310546875 537.999023438 91.998046875 c 1
 537.999023438 97.3310546875 538.333007812 97.3310546875 539 91.998046875 c 1x70
 539 97.3310546875 539.333007812 97.3310546875 540 91.998046875 c 1
 559.333007812 91.998046875 573.166015625 87.498046875 581.499023438 78.498046875 c 0
 589.83203125 69.498046875 594.33203125 58.3310546875 594.999023438 44.998046875 c 2
 594.999023438 43.9990234375 l 2
 594.999023438 37.33203125 594.334960938 30.9990234375 593.001953125 24.9990234375 c 0
 591.668945312 18.9990234375 589.333007812 12.9990234375 586 6.9990234375 c 0
 581.333007812 -0.333984375 574.666015625 -5.333984375 565.999023438 -8.0009765625 c 0
 560.666015625 -10.0009765625 555.666015625 -11.0009765625 550.999023438 -11.0009765625 c 2
 537.999023438 -11.0009765625 l 2xb0
 519.999023438 -8.333984375 489.999023438 -7.0009765625 447.999023438 -7.0009765625 c 0
 403.999023438 -7.0009765625 364.33203125 -7.333984375 328.999023438 -8.0009765625 c 1
 310.942382812 -5.22265625 292.88671875 -3.833984375 274.830078125 -3.833984375 c 0
 199 -12 l 1x70
EndSplineSet
Validated: 1
EndChar

StartChar: J
Encoding: 74 74 42
Width: 640
GlyphClass: 2
Flags: W
HStem: -35 125.998<214.068 316.458> 599.998 110.002<74.5029 317 437.998 545.842>
VStem: 42.502 114.498<150.857 256.964> 316.75 121.248<425.658 596.001> 320 125.998<103.937 595.189>
LayerCount: 2
Fore
SplineSet
442.998046875 217 m 0xe8
 431.666015625 101 408.001953125 26.3330078125 372.001953125 -7 c 0
 352.66796875 -25.6669921875 329.66796875 -35 303.001953125 -35 c 0
 276.333984375 -35 250.501953125 -30.6669921875 225.501953125 -22 c 0
 200.501953125 -13.3330078125 179.001953125 -2.3330078125 161.001953125 11 c 0
 143.66796875 25 127.834960938 40.1669921875 113.501953125 56.5 c 0
 99.169921875 72.8330078125 87.169921875 89 77.501953125 105 c 0
 67.8359375 121 60.16796875 135.666992188 54.501953125 149 c 0
 48.833984375 162.333007812 45.333984375 173 44.001953125 181 c 0
 42.001953125 188.333007812 41.501953125 196.5 42.501953125 205.5 c 0
 43.501953125 214.5 45.001953125 223 47.001953125 231 c 0
 49.66796875 240.333007812 55.001953125 248.666015625 63.001953125 255.999023438 c 0
 71.001953125 263.33203125 81.333984375 267.999023438 94.001953125 269.999023438 c 0
 98.001953125 270.666015625 102.001953125 270.999023438 106.001953125 270.999023438 c 0
 119.333984375 270.999023438 130.666992188 266.999023438 140 258.999023438 c 0
 151.333984375 248.33203125 157 234.665039062 157 217.998046875 c 0
 157 201.998046875 162.333984375 182.998046875 173 160.998046875 c 0
 179.666992188 148.331054688 187.666992188 136.998046875 197 126.998046875 c 0
 206.333984375 116.998046875 219 108.498046875 235 101.498046875 c 0
 251 94.498046875 269 90.998046875 289 90.998046875 c 0
 289.666992188 90.998046875 290.333984375 91.3310546875 291.001953125 91.998046875 c 0
 295.66796875 95.3310546875 300.001953125 102.998046875 304.001953125 114.998046875 c 0
 313.333984375 143.665039062 318.666992188 186.998046875 320 244.998046875 c 2
 320 246.998046875 l 1
 320 267.498046875 l 2xe8
 320 279.831054688 319.666992188 312.998046875 319 366.998046875 c 0
 317.5 426.99609375 316.75 485.682617188 316.75 543.055664062 c 0
 316.75 562.182617188 316.833984375 581.163085938 317 599.998046875 c 1
 279.333984375 600.998046875 244.083984375 601.498046875 211.25 601.498046875 c 0
 178.416992188 601.498046875 148 600.998046875 120 599.998046875 c 2
 118 599.998046875 l 2
 99.333984375 599.998046875 84.666015625 604.665039062 74 613.998046875 c 0
 63.33203125 623.331054688 57.666015625 635.998046875 56.998046875 651.998046875 c 0
 56.998046875 652.665039062 56.666015625 653.33203125 55.998046875 653.999023438 c 0
 55.998046875 667.999023438 61.33203125 680.33203125 71.998046875 690.999023438 c 0
 82.666015625 701.666015625 98.33203125 707.333007812 119 708 c 0
 176.999023438 709.333007812 231.999023438 710 283.999023438 710 c 0
 387.999023438 710 473.33203125 707 539.999023438 701 c 0
 555.33203125 699.666992188 567.666015625 695.333984375 576.998046875 688.000976562 c 0
 589.666015625 678.66796875 596.666015625 665.334960938 597.998046875 648.001953125 c 0
 597.998046875 633.334960938 593.666015625 619.66796875 584.998046875 607.000976562 c 0
 580.331054688 599.66796875 573.331054688 594.000976562 563.998046875 590.000976562 c 0
 558.666015625 587.333984375 552.666015625 586.000976562 545.998046875 586.000976562 c 0
 542.666015625 586.000976562 538.998046875 586.66796875 534.998046875 588.000976562 c 0
 514.331054688 591.333984375 481.998046875 594.000976562 437.998046875 596.000976562 c 1xf0
 437.998046875 579.333984375 440.331054688 521.000976562 444.998046875 421.000976562 c 0
 446.064453125 399.131835938 446.59765625 380.036132812 446.59765625 363.713867188 c 0
 446.59765625 359.63671875 446.564453125 355.732421875 446.498046875 352.000976562 c 0
 446.166015625 333.333984375 445.998046875 321.666992188 445.998046875 317 c 0
 445.998046875 275 444.998046875 241.666992188 442.998046875 217 c 0xe8
EndSplineSet
Validated: 1
EndChar

StartChar: K
Encoding: 75 75 43
Width: 640
GlyphClass: 2
Flags: W
HStem: -22 21G<112.233 120.899 536.054 538.903> 694.065 20G<101.569 110.036 500.566 505.233>
VStem: 55.9004 116.999<107.028 271.001 452.999 540.271 541.723 700.529>
LayerCount: 2
Fore
SplineSet
112.899414062 -22 m 0
 111.56640625 -22 110.234375 -21.666015625 108.901367188 -20.9990234375 c 0
 92.234375 -20.9990234375 78.5673828125 -16.666015625 67.900390625 -7.9990234375 c 0
 57.900390625 0.0009765625 52.900390625 10.66796875 52.900390625 24.0009765625 c 0
 52.900390625 26.66796875 53.2333984375 29.3349609375 53.900390625 32.001953125 c 0
 55.2333984375 53.3349609375 55.900390625 88.66796875 55.900390625 138.000976562 c 0
 55.900390625 233.333984375 53.900390625 338.666992188 49.900390625 454 c 0
 48.5673828125 496.666992188 47.900390625 525.666992188 47.900390625 541 c 0
 47.900390625 556.333007812 48.5673828125 578 49.900390625 606 c 0
 51.2333984375 634.666992188 51.900390625 652.666992188 51.900390625 660 c 1
 52.5673828125 677.333007812 58.5673828125 691 69.900390625 701 c 0
 80.4775390625 709.7109375 93.66796875 714.065429688 109.470703125 714.065429688 c 0
 110.600585938 714.065429688 111.743164062 714.043945312 112.899414062 713.999023438 c 2
 115.899414062 713.999023438 l 2
 131.899414062 713.999023438 145.899414062 710.33203125 157.899414062 702.999023438 c 0
 170.59765625 694.745117188 176.946289062 682.258789062 176.946289062 665.540039062 c 0
 176.946289062 651.19921875 176.309570312 618.120117188 174.8984375 567.999023438 c 0
 173.565429688 521.33203125 172.565429688 482.999023438 171.8984375 452.999023438 c 1
 196.565429688 472.999023438 231.8984375 501.666015625 277.8984375 538.999023438 c 0
 376.565429688 627.666015625 434.8984375 679.333007812 452.8984375 694 c 0
 464.231445312 702.666992188 475.231445312 708.666992188 485.8984375 712 c 0
 492.565429688 714 498.232421875 715 502.899414062 715 c 0
 507.56640625 715 511.899414062 714.666992188 515.899414062 714 c 0
 524.56640625 712 532.233398438 708 538.900390625 702 c 0
 548.233398438 694 552.900390625 685.333007812 552.900390625 676 c 0
 552.900390625 658 545.567382812 638.666992188 530.900390625 618 c 0
 520.900390625 605.333007812 484.900390625 569 422.900390625 509 c 1
 358.900390625 453 302.567382812 404.333007812 253.900390625 363 c 1
 279.233398438 339 319.56640625 303.333007812 374.899414062 256 c 0
 430.232421875 211.333007812 478.232421875 171 518.899414062 135 c 0
 541.56640625 113 558.233398438 95.6669921875 568.900390625 83 c 0
 580.233398438 67.6669921875 586.900390625 57 588.900390625 51 c 0
 591.567382812 42.3330078125 592.567382812 34 591.900390625 26 c 0
 591.900390625 20.6669921875 590.900390625 15.333984375 588.900390625 10.0009765625 c 0
 584.233398438 0.66796875 576.56640625 -6.6650390625 565.899414062 -11.998046875 c 0
 551.354492188 -18.05859375 541.493164062 -21.0888671875 536.313476562 -21.0888671875 c 0
 535.794921875 -21.0888671875 535.32421875 -21.05859375 534.899414062 -20.998046875 c 2
 533.899414062 -20.998046875 l 2
 515.899414062 -20.998046875 498.899414062 -12.6650390625 482.899414062 4.001953125 c 0
 476.232421875 12.001953125 450.899414062 35.001953125 406.899414062 73.001953125 c 0
 362.899414062 110.334960938 314.899414062 151.66796875 262.899414062 197.000976562 c 0
 225.56640625 226.333984375 195.56640625 251.000976562 172.899414062 271.000976562 c 1
 181.899414062 25.0009765625 l 2
 179.899414062 10.333984375 171.232421875 -1.3330078125 155.899414062 -10 c 0
 143.232421875 -18 128.899414062 -22 112.899414062 -22 c 0
EndSplineSet
Validated: 1
EndChar

StartChar: L
Encoding: 76 76 44
Width: 640
GlyphClass: 2
Flags: W
HStem: -14.999 116.996<176.044 177.029 178.029 460.668>
VStem: 48.0312 127.997<95.9971 265.875> 77.3652 118.668<163.162 688.982>
LayerCount: 2
Fore
SplineSet
183.033203125 209 m 0xa0
 179.033203125 161 176.6953125 123.330078125 176.028320312 95.9970703125 c 1
 176.361328125 99.9970703125 176.6953125 101.997070312 177.029296875 101.997070312 c 0
 178.029296875 95.9970703125 l 1
 235.361328125 95.9970703125 302.361328125 99.330078125 379.029296875 105.997070312 c 0
 454.361328125 112.6640625 504.029296875 119.331054688 528.029296875 125.998046875 c 0
 531.763671875 127.064453125 535.498046875 127.59765625 539.231445312 127.59765625 c 0
 542.029296875 127.498046875 l 0
 546.697265625 127.165039062 551.364257812 125.998046875 556.03125 123.998046875 c 0
 564.697265625 120.665039062 572.03125 115.33203125 578.03125 107.999023438 c 0
 582.697265625 101.33203125 586.03125 94.33203125 588.03125 86.9990234375 c 0
 590.697265625 78.9990234375 592.03125 71.9990234375 592.03125 65.9990234375 c 0
 592.03125 50.666015625 588.03125 38.3330078125 580.03125 29 c 0
 572.03125 19.6669921875 558.364257812 13.333984375 539.03125 10.0009765625 c 0
 493.03125 1.333984375 419.864257812 -4.9990234375 319.53125 -8.9990234375 c 0
 219.197265625 -12.9990234375 147.365234375 -14.9990234375 104.03125 -14.9990234375 c 0
 87.365234375 -14.9990234375 73.365234375 -9.33203125 62.03125 2.0009765625 c 0
 52.65625 11.3759765625 47.96875 23.38671875 47.96875 38.03515625 c 0
 47.96875 39.01171875 47.990234375 40.0009765625 48.03125 41.0009765625 c 2
 48.03125 50.0009765625 l 2xc0
 48.03125 54.0009765625 51.865234375 90.333984375 59.53125 159.000976562 c 0
 67.19921875 227.66796875 72.69921875 293.66796875 76.03125 357.000976562 c 0
 76.919921875 369.88671875 77.365234375 384.697265625 77.365234375 401.432617188 c 0
 77.365234375 409.806640625 77.25390625 418.663085938 77.03125 428.000976562 c 0
 77.03125 452.66796875 76.36328125 523.66796875 75.03125 641.000976562 c 2
 75.03125 642.000976562 l 2
 75.697265625 662.66796875 81.865234375 678.500976562 93.53125 689.500976562 c 0
 105.19921875 700.500976562 119.365234375 706.000976562 136.033203125 706.000976562 c 2
 139.033203125 706.000976562 l 2
 155.033203125 706.000976562 169.365234375 701.333984375 182.033203125 692.000976562 c 0
 195.396484375 681.819335938 202.079101562 667.081054688 202.079101562 647.788085938 c 0
 202.079101562 647 202.068359375 618.723632812 201.033203125 569 c 0
 199.700195312 525.666992188 198.033203125 485 196.033203125 447 c 0
 194.033203125 405 192.365234375 363 191.033203125 321 c 0
 189.700195312 294.333007812 187.033203125 257 183.033203125 209 c 0xa0
EndSplineSet
Validated: 1
EndChar

StartChar: M
Encoding: 77 77 45
Width: 640
GlyphClass: 2
Flags: W
HStem: -10.001 21G<74.3315 87.3315 303.002 334.002>
VStem: 29.998 108<16.5645 315.532>
LayerCount: 2
Fore
SplineSet
137.998046875 63.9990234375 m 2
 137.998046875 52.9990234375 l 2
 137.998046875 34.9990234375 132.666015625 19.9990234375 121.998046875 7.9990234375 c 0
 109.998046875 -4.0009765625 95.6650390625 -10.0009765625 78.998046875 -10.0009765625 c 2
 77.998046875 -10.0009765625 l 2
 70.6650390625 -10.0009765625 63.998046875 -8.66796875 57.998046875 -6.0009765625 c 0
 49.3310546875 -2.0009765625 42.3310546875 5.33203125 36.998046875 15.9990234375 c 0
 32.3310546875 27.9990234375 29.998046875 43.9990234375 29.998046875 63.9990234375 c 0
 29.998046875 72.666015625 30.998046875 86.9990234375 32.998046875 106.999023438 c 0
 34.998046875 126.33203125 37.3310546875 151.999023438 39.998046875 183.999023438 c 0
 43.3310546875 217.999023438 46.998046875 258.33203125 50.998046875 304.999023438 c 0
 54.998046875 352.33203125 57.998046875 389.665039062 59.998046875 416.998046875 c 0
 68.6650390625 512.998046875 76.33203125 579.331054688 82.9990234375 615.998046875 c 0
 87.666015625 639.331054688 92.666015625 655.6640625 97.9990234375 664.997070312 c 0
 105.999023438 678.997070312 118.33203125 689.330078125 134.999023438 695.997070312 c 0
 148.999023438 701.330078125 162.999023438 703.998046875 176.999023438 703.998046875 c 2
 182.999023438 703.998046875 l 2
 199.666015625 703.998046875 213.333984375 701.6640625 224 696.997070312 c 0
 238.666992188 690.997070312 248.666992188 680.997070312 254 666.997070312 c 0
 262.666992188 637.6640625 272 589.331054688 282 521.998046875 c 0
 292 454.665039062 302.666992188 377.665039062 314 290.998046875 c 0
 316.666992188 271.665039062 318.666992188 254.33203125 320 238.999023438 c 1
 324.666992188 286.999023438 329.333984375 331.666015625 334.001953125 372.999023438 c 0
 340.66796875 428.33203125 349.66796875 483.665039062 361.001953125 538.998046875 c 0
 372.333984375 594.331054688 382.001953125 636.997070312 390.001953125 666.997070312 c 0
 393.333984375 676.997070312 401.001953125 685.331054688 413.001953125 691.998046875 c 0
 423.66796875 697.998046875 435.001953125 701.665039062 447.001953125 702.998046875 c 0
 454.333984375 704.331054688 460.501953125 704.831054688 465.501953125 704.498046875 c 0
 470.501953125 704.165039062 474.66796875 703.998046875 478.001953125 703.998046875 c 2
 481.001953125 703.998046875 l 1
 496.501953125 703.998046875 l 2
 500.833984375 703.998046875 506.666992188 702.998046875 514 700.998046875 c 0
 521.333984375 699.665039062 527.5 697.665039062 532.5 694.998046875 c 0
 537.5 692.331054688 542.333984375 688.331054688 547 682.998046875 c 0
 551.666992188 676.998046875 554.666992188 669.998046875 556 661.998046875 c 0
 558.666992188 641.998046875 566.333984375 544.998046875 579.001953125 370.998046875 c 0
 591.66796875 197.665039062 600.66796875 99.6650390625 606.001953125 76.998046875 c 0
 608.66796875 63.6650390625 610.001953125 51.33203125 610.001953125 39.9990234375 c 0
 610.001953125 30.666015625 608.001953125 22.666015625 604.001953125 15.9990234375 c 0
 598.66796875 6.666015625 589.66796875 -0.0009765625 577.001953125 -4.0009765625 c 0
 569.66796875 -6.0009765625 562.001953125 -7.16796875 554.001953125 -7.5009765625 c 0
 546.001953125 -7.833984375 537.66796875 -6.0009765625 529.001953125 -2.0009765625 c 0
 513.66796875 4.666015625 502.334960938 18.3330078125 495.001953125 39 c 0
 481.669921875 79 469.669921875 234 459.001953125 504 c 1
 450.334960938 452.666992188 444.334960938 404 441.001953125 358 c 0
 434.334960938 282 425.334960938 210 414.001953125 142 c 0
 402.669921875 74 393.669921875 32.3330078125 387.001953125 17 c 0
 377.001953125 1 353.001953125 -7 315.001953125 -7 c 2
 310.001953125 -7 l 2
 296.001953125 -7 283.669921875 -5 273.001953125 -1 c 0
 260.334960938 3.6669921875 252.334960938 10.333984375 249.001953125 19.0009765625 c 0
 240.334960938 51.0009765625 226.001953125 124.000976562 206.001953125 238.000976562 c 0
 192.669921875 316.000976562 180.001953125 391.66796875 168.001953125 465.000976562 c 1
 166.669921875 451.66796875 165.001953125 427.66796875 163.001953125 393.000976562 c 2
 159.001953125 340.000976562 l 1
 153.001953125 253.000976562 l 2
 151.001953125 225.66796875 148.669921875 197.000976562 146.001953125 167.000976562 c 0
 144.001953125 144.333984375 141.669921875 120.666992188 139.001953125 96 c 0
 138.334960938 82 137.998046875 71.33203125 137.998046875 63.9990234375 c 2
EndSplineSet
Validated: 1
EndChar

StartChar: N
Encoding: 78 78 46
Width: 640
GlyphClass: 2
Flags: W
HStem: -11.998 21G<90.1675 108.501 494.167 522.167>
VStem: 49.501 108<6.53685 180.455> 57.501 107<79.7041 486> 483.834 106.665<187.325 656.813>
LayerCount: 2
Fore
SplineSet
162.500976562 486 m 1xb0
 163.833984375 456 164.500976562 431.002929688 164.500976562 411.002929688 c 0xb0
 164.500976562 389.669921875 164.16796875 359.669921875 163.500976562 321.002929688 c 0
 162.833984375 283.669921875 161.833984375 237.669921875 160.500976562 183.002929688 c 0
 158.500976562 128.3359375 157.500976562 93.6689453125 157.500976562 79.001953125 c 2
 157.500976562 52.001953125 l 1
 157.500976562 44.001953125 l 2
 157.500976562 26.001953125 152.16796875 12.001953125 141.500976562 2.001953125 c 0
 130.16796875 -7.3310546875 116.500976562 -11.998046875 100.500976562 -11.998046875 c 0
 79.833984375 -11.998046875 65.833984375 -5.998046875 58.5009765625 6.001953125 c 0
 52.5009765625 17.3349609375 49.5009765625 33.66796875 49.5009765625 55.0009765625 c 0xd0
 49.5009765625 68.333984375 50.5009765625 120.000976562 52.5009765625 210.000976562 c 0
 55.833984375 348.66796875 57.5009765625 444.000976562 57.5009765625 496.000976562 c 0
 57.5009765625 547.333984375 56.833984375 594.666992188 55.5009765625 638 c 2
 55.5009765625 647 l 2
 55.5009765625 657 57.16796875 666 60.5009765625 674 c 0
 65.833984375 683.333007812 73.1669921875 690 82.5 694 c 0
 95.8330078125 701.333007812 110.833007812 705 127.5 705 c 0
 130.833007812 705 134.5 704.666992188 138.5 704 c 0
 153.166992188 704 165.833984375 701.666992188 176.500976562 697 c 0
 191.16796875 691 201.500976562 681 207.500976562 667 c 0
 222.833984375 624.333007812 264.500976562 545.333007812 332.500976562 430 c 0
 390.500976562 332.666992188 440.500976562 251.333984375 482.500976562 186.000976562 c 1
 483.389648438 224.213867188 483.833984375 270.274414062 483.833984375 324.18359375 c 0
 483.833984375 351.158203125 483.72265625 380.096679688 483.5 411.000976562 c 0
 482.166992188 529.000976562 479.166992188 607.000976562 474.5 645.000976562 c 0
 473.833007812 649.000976562 473.5 653.000976562 473.5 657.000976562 c 0
 473.5 669.000976562 477.833007812 679.66796875 486.5 689.000976562 c 0
 497.166992188 699.66796875 511.166992188 705.000976562 528.5 705.000976562 c 0
 544.5 705.000976562 557.5 702.333984375 567.5 697.000976562 c 0
 572.833007812 694.333984375 576.5 690.333984375 578.5 685.000976562 c 0
 580.5 679.66796875 582.166992188 675.000976562 583.5 671.000976562 c 0
 584.833007812 666.333984375 586.166015625 659.333984375 587.499023438 650.000976562 c 0
 589.499023438 638.66796875 590.499023438 585.334960938 590.499023438 490.001953125 c 2
 590.499023438 448.001953125 l 2
 590.499023438 364.668945312 589.499023438 278.668945312 587.499023438 190.001953125 c 0
 586.166015625 132.668945312 583.833007812 90.001953125 580.5 62.001953125 c 0
 577.833007812 35.3349609375 574.833007812 18.3349609375 571.5 11.001953125 c 0
 562.166992188 -4.998046875 539.833984375 -13.3310546875 504.500976562 -13.998046875 c 2
 500.500976562 -13.998046875 l 2
 487.833984375 -13.998046875 476.500976562 -11.6650390625 466.500976562 -6.998046875 c 0
 454.500976562 -1.6650390625 446.500976562 5.001953125 442.500976562 13.001953125 c 0
 435.833984375 26.3349609375 418.500976562 55.66796875 390.500976562 101.000976562 c 0
 361.16796875 148.333984375 332.16796875 193.666992188 303.500976562 237 c 0
 273.500976562 286.333007812 241.833984375 341.333007812 208.500976562 402 c 0
 190.500976562 432 175.16796875 460 162.500976562 486 c 1xb0
EndSplineSet
Validated: 1
EndChar

StartChar: O
Encoding: 79 79 47
Width: 640
GlyphClass: 2
Flags: W
HStem: -23.9951 108<225.601 378.091> 612.006 105.995<260.497 402.922>
VStem: 50.9688 121<154.456 486.5> 468.969 120.062<178.33 537.54>
LayerCount: 2
Fore
SplineSet
241.96875 94.005859375 m 0
 253.96875 87.3388671875 267.635742188 84.0048828125 282.96875 84.0048828125 c 0
 320.96875 84.0048828125 354.635742188 92.337890625 383.96875 109.004882812 c 0
 399.30078125 117.004882812 412.96875 128.171875 424.96875 142.504882812 c 0
 436.96875 156.837890625 446.30078125 173.337890625 452.96875 192.004882812 c 0
 455.635742188 199.337890625 458.46875 217.837890625 461.46875 247.504882812 c 0
 464.46875 277.171875 466.96875 312.671875 468.96875 354.004882812 c 0
 469.302734375 360.004882812 469.46875 366.004882812 469.46875 372.004882812 c 0
 469.46875 378.004882812 469.302734375 384.004882812 468.96875 390.004882812 c 0
 468.96875 418.671875 467.635742188 447.338867188 464.96875 476.005859375 c 0
 460.96875 515.338867188 446.635742188 548.005859375 421.96875 574.005859375 c 0
 397.96875 599.338867188 368.46875 612.005859375 333.46875 612.005859375 c 0
 298.46875 612.005859375 268.96875 600.672851562 244.96875 578.005859375 c 0
 220.30078125 554.005859375 202.30078125 520.672851562 190.96875 478.005859375 c 0
 178.30078125 430.005859375 171.96875 375.005859375 171.96875 313.005859375 c 0
 171.96875 274.338867188 173.96875 240.338867188 177.96875 211.005859375 c 0
 180.635742188 194.338867188 184.96875 177.838867188 190.96875 161.505859375 c 0
 196.96875 145.172851562 203.96875 131.505859375 211.96875 120.505859375 c 0
 219.96875 109.505859375 229.96875 100.672851562 241.96875 94.005859375 c 0
583.96875 480 m 0
 587.34375 438.375 589.03125 397.172851562 589.03125 356.392578125 c 0
 589.03125 324.67578125 588.010742188 293.213867188 585.96875 262.005859375 c 0
 583.30078125 222.672851562 578.634765625 192.33984375 571.967773438 171.006835938 c 0
 563.30078125 139.673828125 552.30078125 112.673828125 538.967773438 90.0068359375 c 0
 525.634765625 67.33984375 510.80078125 48.6728515625 494.46875 34.005859375 c 0
 478.135742188 19.3388671875 458.302734375 7.671875 434.96875 -0.9951171875 c 0
 411.63671875 -9.662109375 388.13671875 -15.662109375 364.46875 -18.9951171875 c 0
 340.802734375 -22.328125 313.635742188 -23.9951171875 282.96875 -23.9951171875 c 0
 235.635742188 -23.328125 193.302734375 -10.6611328125 155.96875 14.005859375 c 0
 121.302734375 39.3388671875 94.96875 72.671875 76.96875 114.004882812 c 0
 59.63671875 154.004882812 50.96875 197.337890625 50.96875 244.004882812 c 2
 50.96875 249.004882812 l 1
 50.96875 266.004882812 l 2
 50.96875 295.337890625 51.13671875 318.670898438 51.46875 336.00390625 c 0
 51.802734375 353.336914062 52.96875 376.669921875 54.96875 406.002929688 c 0
 58.96875 463.3359375 70.63671875 516.668945312 89.96875 566.001953125 c 1
 89.96875 567.000976562 l 1
 107.96875 611.66796875 139.302734375 648.000976562 183.96875 676.000976562 c 0
 231.96875 704.000976562 286.302734375 718.000976562 346.96875 718.000976562 c 0
 377.63671875 718.000976562 406.96875 712.333984375 434.96875 701.000976562 c 0
 462.96875 690.333984375 487.302734375 675.166992188 507.96875 655.5 c 0
 528.63671875 635.833007812 545.63671875 611 558.96875 581 c 0
 572.302734375 551 580.635742188 517.333007812 583.96875 480 c 0
EndSplineSet
Validated: 1
EndChar

StartChar: P
Encoding: 80 80 48
Width: 640
GlyphClass: 2
Flags: W
HStem: -18.9971 21G<127.72 144.72> 218 105.918<190.556 393.305> 605.004 105.999<194.183 410.508>
VStem: 75.0537 129.999<-2.55739 224.218> 75.0537 113.996<32.1765 93.9443 96.7622 226 328.472 599.255> 464.055 115.995<391.836 558.239>
LayerCount: 2
Fore
SplineSet
198.049804688 109 m 0xec
 202.716796875 61 205.052734375 35.3369140625 205.052734375 32.00390625 c 0
 205.052734375 15.3369140625 196.719726562 2.669921875 180.052734375 -5.9970703125 c 0
 166.719726562 -14.6640625 152.38671875 -18.9970703125 137.053710938 -18.9970703125 c 0
 118.38671875 -18.9970703125 103.053710938 -13.6640625 91.0537109375 -2.9970703125 c 0
 80.38671875 6.3359375 75.0537109375 18.6689453125 75.0537109375 34.001953125 c 0xf4
 75.0537109375 36.6689453125 75.38671875 41.001953125 76.0537109375 47.001953125 c 0
 76.720703125 56.3349609375 77.0537109375 72.3349609375 77.0537109375 95.001953125 c 0
 77.0537109375 132.334960938 76.38671875 183.66796875 75.0537109375 249.000976562 c 0
 72.38671875 359.66796875 70.7197265625 425.334960938 70.052734375 446.001953125 c 0
 69.830078125 463.56640625 69.71875 481.538085938 69.71875 499.91796875 c 0
 69.71875 536.650390625 70.1630859375 575.01171875 71.0517578125 615.001953125 c 1
 70.384765625 609.668945312 69.7177734375 610.3359375 69.05078125 617.002929688 c 1
 69.05078125 611.669921875 68.7177734375 611.669921875 68.05078125 617.002929688 c 0
 62.05078125 625.669921875 59.3837890625 634.336914062 60.05078125 643.00390625 c 2
 60.05078125 651.00390625 l 2
 62.05078125 661.00390625 66.7177734375 670.00390625 74.05078125 678.00390625 c 0
 81.3837890625 686.00390625 89.716796875 691.00390625 99.0498046875 693.00390625 c 0
 123.716796875 698.336914062 160.383789062 702.669921875 209.05078125 706.002929688 c 0
 260.383789062 709.3359375 296.383789062 711.002929688 317.05078125 711.002929688 c 0
 369.05078125 711.002929688 415.383789062 703.002929688 456.05078125 687.002929688 c 0
 493.383789062 670.3359375 523.216796875 645.168945312 545.549804688 611.501953125 c 0
 567.8828125 577.834960938 579.3828125 538.001953125 580.049804688 492.001953125 c 1
 580.049804688 454.668945312 573.716796875 419.168945312 561.049804688 385.501953125 c 0
 548.3828125 351.834960938 531.049804688 322.66796875 509.049804688 298.000976562 c 0
 487.049804688 273.333984375 458.716796875 253.666992188 424.049804688 239 c 0
 390.25390625 224.970703125 354.017578125 217.956054688 315.341796875 217.956054688 c 0
 313.583007812 217.956054688 311.818359375 217.970703125 310.049804688 218 c 0
 261.3828125 218 221.049804688 220.666992188 189.049804688 226 c 1
 191.049804688 188 194.049804688 149 198.049804688 109 c 0xec
186.052734375 334.00390625 m 1
 209.88671875 327.28125 237.3671875 323.91796875 268.485351562 323.91796875 c 0
 271.313476562 323.91796875 274.170898438 323.9453125 277.05859375 324.000976562 c 0
 297.05859375 324.000976562 315.391601562 325.333984375 332.05859375 328.000976562 c 0
 348.725585938 330.66796875 363.05859375 334.000976562 375.05859375 338.000976562 c 0
 387.05859375 342.000976562 397.55859375 347.333984375 406.55859375 354.000976562 c 0
 415.55859375 360.66796875 423.225585938 367.334960938 429.55859375 374.001953125 c 0
 435.891601562 380.668945312 441.224609375 388.501953125 445.557617188 397.501953125 c 0
 449.890625 406.501953125 453.223632812 414.668945312 455.556640625 422.001953125 c 0
 457.889648438 429.334960938 459.72265625 438.16796875 461.055664062 448.500976562 c 0
 462.388671875 458.833984375 463.221679688 467.333984375 463.5546875 474.000976562 c 0
 463.887695312 480.66796875 464.0546875 488.334960938 464.0546875 497.001953125 c 0
 464.0546875 513.668945312 460.721679688 528.3359375 454.0546875 541.002929688 c 0
 447.387695312 553.669921875 439.0546875 563.836914062 429.0546875 571.50390625 c 0
 419.0546875 579.170898438 407.221679688 585.670898438 393.5546875 591.00390625 c 0
 379.887695312 596.336914062 366.720703125 600.00390625 354.053710938 602.00390625 c 0
 341.38671875 604.00390625 329.053710938 605.00390625 317.053710938 605.00390625 c 0
 293.720703125 605.00390625 252.053710938 602.670898438 192.053710938 598.00390625 c 1
 189.38671875 518.00390625 187.719726562 464.336914062 187.052734375 437.00390625 c 0
 186.385742188 400.336914062 186.052734375 366.00390625 186.052734375 334.00390625 c 1
EndSplineSet
Validated: 1
EndChar

StartChar: Q
Encoding: 81 81 49
Width: 640
GlyphClass: 2
Flags: W
HStem: -24 21G<290 317> 612 106<256.162 399.668>
VStem: 45.999 120.952<161.037 483.098> 257.999 106<138.764 207.502> 467.999 118.145<137.38 526.522>
LayerCount: 2
Fore
SplineSet
564.001953125 -204 m 0
 555.334960938 -209.333007812 546 -212 536 -212 c 0
 531.333007812 -212 526 -211.333007812 520 -210 c 0
 504.666992188 -206 492.333984375 -197.666992188 483.000976562 -185 c 0
 472.333984375 -172.333007812 455.166992188 -150 431.5 -118 c 0
 407.833007812 -86 385 -53.6669921875 363 -21 c 1
 345.666992188 -23 327 -24 307 -24 c 0
 273 -24 241.666992188 -19 213 -9 c 0
 184.333007812 0.3330078125 160.333007812 13.666015625 141 30.9990234375 c 0
 121.666992188 48.33203125 105 68.33203125 91 90.9990234375 c 0
 64.3330078125 134.999023438 49.666015625 187.666015625 46.9990234375 248.999023438 c 0
 46.33203125 266.33203125 45.9990234375 282.999023438 45.9990234375 298.999023438 c 0
 45.9990234375 403.666015625 59.666015625 491.333007812 86.9990234375 562 c 1
 104.999023438 606.666992188 136.666015625 644 181.999023438 674 c 0
 229.999023438 703.333007812 283.666015625 718 342.999023438 718 c 0
 406.33203125 718 459.33203125 699 501.999023438 661 c 0
 522.666015625 642.333007812 539.833007812 617.5 553.5 586.5 c 0
 567.166992188 555.5 576.333984375 520 581.000976562 480 c 0
 584.4296875 449.14453125 586.143554688 413.879882812 586.143554688 374.208984375 c 0
 586.143554688 367.594726562 586.096679688 360.858398438 586.000976562 354 c 0
 586.000976562 269.333007812 581.66796875 206.333007812 573.000976562 165 c 0
 559.000976562 97 528.000976562 47 480.000976562 15 c 1
 501.333984375 -14.3330078125 527.333984375 -48 558.000976562 -86 c 0
 576.66796875 -109.333007812 586.000976562 -121.333007812 586.000976562 -122 c 0
 591.333984375 -130 594.000976562 -138.333007812 594.000976562 -147 c 0
 594.000976562 -149.666992188 593.66796875 -152 593.000976562 -154 c 0
 591.66796875 -164 588.334960938 -173.666992188 583.001953125 -183 c 0
 577.001953125 -192.333007812 570.668945312 -199.333007812 564.001953125 -204 c 0
269 114 m 0
 261.666992188 131.333007812 257.999023438 147 257.999023438 161 c 0
 257.999023438 182.333007812 266.666015625 199 283.999023438 211 c 0
 293.999023438 218.333007812 304.666015625 222.333007812 315.999023438 223 c 0
 325.33203125 223 334.33203125 220 342.999023438 214 c 0
 351.666015625 208 358.666015625 198.666992188 363.999023438 186 c 0
 375.33203125 156.666992188 391.33203125 125 411.999023438 91 c 1
 433.999023438 108.333007812 448.999023438 134 456.999023438 168 c 0
 458.999023438 177.333007812 461.166015625 197 463.499023438 227 c 0
 465.83203125 257 467.33203125 294.666992188 467.999023438 340 c 2
 467.999023438 356 l 2
 467.999023438 395.333007812 465.666015625 433 460.999023438 469 c 0
 454.999023438 513.666992188 440.33203125 549 416.999023438 575 c 0
 394.33203125 599.666992188 365.165039062 612 329.498046875 612 c 0
 293.831054688 612 263.998046875 600.333007812 239.998046875 577 c 0
 215.331054688 553 197.331054688 518.666992188 185.998046875 474 c 0
 173.299804688 425.112304688 166.951171875 374.108398438 166.951171875 320.98828125 c 0
 166.951171875 318.331054688 166.966796875 315.66796875 166.999023438 313 c 0
 166.999023438 293 167.666015625 272.333007812 168.999023438 251 c 1
 171.666015625 214.333007812 179.333007812 181.5 192 152.5 c 0
 204.666992188 123.5 221 100.666992188 241 84 c 0
 257.666992188 70.6669921875 276 63 296 61 c 1
 284 82.3330078125 275 100 269 114 c 0
EndSplineSet
Validated: 1
EndChar

StartChar: R
Encoding: 82 82 50
Width: 640
GlyphClass: 2
Flags: W
HStem: -18.9961 21G<106.167 126.501 521.501 537.167> 694.002 20G<103.833 120.499>
VStem: 56.501 118.999<129 609.003> 61.167 123.334<-2.55641 249.432> 61.5 115.001<371.653 607.007> 61.5 104.999<34.426 251 369.003 497.376> 461.501 116.998<408.488 493.809>
LayerCount: 2
Fore
SplineSet
173.500976562 449.00390625 m 0xca
 172.16796875 431.670898438 169.83203125 405.3359375 166.499023438 370.002929688 c 1xc6
 171.83203125 369.3359375 178.83203125 369.002929688 187.499023438 369.002929688 c 0
 196.166015625 369.002929688 206.833007812 369.669921875 219.5 371.002929688 c 0
 248.833007812 372.3359375 273.5 373.668945312 293.5 375.001953125 c 0
 344.166992188 379.001953125 380.833984375 384.334960938 403.500976562 391.001953125 c 0
 415.500976562 395.001953125 426.16796875 399.668945312 435.500976562 405.001953125 c 0
 444.833984375 410.334960938 451.500976562 416.16796875 455.500976562 422.500976562 c 0
 459.500976562 428.833984375 461.500976562 436.333984375 461.500976562 445.000976562 c 0
 461.500976562 461.000976562 454.66796875 476.833984375 441.000976562 492.500976562 c 0
 427.333984375 508.16796875 409.500976562 522.334960938 387.500976562 535.001953125 c 0
 365.500976562 547.668945312 340.333984375 559.3359375 312.000976562 570.002929688 c 0
 283.66796875 580.669921875 257.834960938 589.002929688 234.501953125 595.002929688 c 0
 211.168945312 601.002929688 190.501953125 605.669921875 172.501953125 609.002929688 c 1
 173.834960938 566.3359375 175.16796875 529.3359375 176.500976562 498.002929688 c 0
 176.500976562 484.669921875 175.500976562 468.336914062 173.500976562 449.00390625 c 0xca
175.5 129 m 0xe2
 181.5 74.3330078125 184.500976562 42.669921875 184.500976562 34.0029296875 c 0xd2
 184.500976562 16.669921875 176.833984375 3.3369140625 161.500976562 -5.99609375 c 0
 148.833984375 -14.6630859375 134.500976562 -18.99609375 118.500976562 -18.99609375 c 2
 114.500976562 -18.99609375 l 2
 97.833984375 -18.3291015625 83.833984375 -12.99609375 72.5009765625 -2.99609375 c 0
 61.833984375 6.3369140625 56.5009765625 18.669921875 56.5009765625 34.0029296875 c 2
 56.5009765625 42.0029296875 l 2xe2
 59.16796875 75.3359375 60.5 103.3359375 60.5 126.002929688 c 0
 60.5 132.002929688 60.66796875 145.169921875 61.0009765625 165.502929688 c 0
 61.1123046875 172.274414062 61.1669921875 179.895507812 61.1669921875 188.3671875 c 0xd2
 61.1669921875 205.334960938 60.9453125 225.712890625 60.5 249.502929688 c 0
 59.8330078125 285.169921875 59.5 307.502929688 59.5 316.502929688 c 0
 59.5 325.502929688 60.1669921875 343.3359375 61.5 370.002929688 c 0xc6
 62.5 393.002929688 63 414.752929688 63 435.252929688 c 0
 63 455.752929688 62.5 475.002929688 61.5 493.002929688 c 0xca
 60.8330078125 515.002929688 59.16796875 544.66796875 56.5009765625 582.000976562 c 0
 53.833984375 619.333984375 52.4990234375 642.002929688 52.4990234375 650.002929688 c 2
 52.4990234375 655.002929688 l 2
 52.4990234375 656.3359375 52.166015625 657.668945312 51.4990234375 659.001953125 c 0
 51.4990234375 671.001953125 56.9990234375 683.168945312 67.9990234375 695.501953125 c 0
 78.9990234375 707.834960938 94.166015625 714.001953125 113.499023438 714.001953125 c 0
 127.499023438 714.001953125 139.166015625 711.334960938 148.499023438 706.001953125 c 1
 206.499023438 703.334960938 260.499023438 696.16796875 310.499023438 684.500976562 c 0
 360.499023438 672.833984375 402.499023438 658.333984375 436.499023438 641.000976562 c 0
 469.166015625 623.66796875 496.166015625 604.000976562 517.499023438 582.000976562 c 0
 538.83203125 560.000976562 554.33203125 537.66796875 563.999023438 515.000976562 c 0
 573.666015625 492.333984375 578.499023438 469.333984375 578.499023438 446.000976562 c 0
 578.499023438 394.000976562 557.83203125 355.000976562 516.499023438 329.000976562 c 0
 503.166015625 321.000976562 488.833007812 314.000976562 473.5 308.000976562 c 0
 457.5 302.66796875 438.666992188 297.834960938 417 293.501953125 c 0
 395.333007812 289.168945312 376.833007812 286.168945312 361.5 284.501953125 c 0
 346.166992188 282.834960938 333.5 281.66796875 323.5 281.000976562 c 1
 382.166992188 251.000976562 434.5 217.333984375 480.5 180.000976562 c 0
 533.166992188 134.66796875 567.833984375 95.0009765625 584.500976562 61.0009765625 c 0
 587.16796875 53.66796875 588.500976562 46.66796875 588.500976562 40.0009765625 c 0
 588.500976562 33.333984375 587.500976562 27.0009765625 585.500976562 21.0009765625 c 0
 580.833984375 9.0009765625 573.166992188 -0.666015625 562.5 -7.9990234375 c 0
 553.166992188 -14.666015625 542.833984375 -17.9990234375 531.500976562 -17.9990234375 c 0
 511.500976562 -17.9990234375 494.16796875 -7.9990234375 479.500976562 12.0009765625 c 0
 468.833984375 25.333984375 453.000976562 42.1669921875 432.000976562 62.5 c 0
 411.000976562 82.8330078125 385.500976562 105.333007812 355.500976562 130 c 0
 325.500976562 154.666992188 291.500976562 179 253.500976562 203 c 0
 222.833984375 222.333007812 193.166992188 238.333007812 164.5 251 c 1
 166.5 217.666992188 170.166992188 177 175.5 129 c 0xe2
EndSplineSet
Validated: 1
EndChar

StartChar: S
Encoding: 83 83 51
Width: 640
GlyphClass: 2
Flags: W
HStem: -29 108.995<194.656 375.49> 620.998 102.998<270.853 535.886>
VStem: 44.96 10.0801<80.1222 81> 75.0439 127.998<475.646 569.182> 471.045 123.995<155.55 280.464>
LayerCount: 2
Fore
SplineSet
55.0400390625 73 m 1
 48.318359375 87.0537109375 44.9599609375 99.705078125 44.9599609375 110.958984375 c 0
 44.9599609375 115.76953125 45.2177734375 120.87109375 46.04296875 124.99609375 c 0
 50.04296875 140.329101562 59.3759765625 151.662109375 74.04296875 158.995117188 c 0
 82.7099609375 162.995117188 89.376953125 165.495117188 94.0439453125 166.495117188 c 0
 98.7109375 167.495117188 102.877929688 167.995117188 106.544921875 167.995117188 c 2
 115.044921875 167.995117188 l 2
 123.044921875 167.328125 130.544921875 163.995117188 137.544921875 157.995117188 c 0
 144.544921875 151.995117188 151.377929688 144.328125 158.044921875 134.995117188 c 0
 169.377929688 118.328125 185.544921875 104.995117188 206.544921875 94.9951171875 c 0
 227.544921875 84.9951171875 251.377929688 79.9951171875 278.044921875 79.9951171875 c 0
 294.044921875 79.9951171875 311.044921875 81.9951171875 329.044921875 85.9951171875 c 0
 347.044921875 89.9951171875 364.544921875 96.162109375 381.544921875 104.495117188 c 0
 398.544921875 112.828125 413.711914062 122.328125 427.044921875 132.995117188 c 0
 440.377929688 143.662109375 451.044921875 155.995117188 459.044921875 169.995117188 c 0
 467.044921875 183.995117188 471.044921875 198.995117188 471.044921875 214.995117188 c 0
 471.044921875 223.662109375 470.377929688 231.495117188 469.044921875 238.495117188 c 0
 467.711914062 245.495117188 465.211914062 252.995117188 461.544921875 260.995117188 c 0
 457.877929688 268.995117188 453.044921875 276.328125 447.044921875 282.995117188 c 0
 441.044921875 289.662109375 432.377929688 296.495117188 421.044921875 303.495117188 c 0
 409.711914062 310.495117188 396.211914062 316.662109375 380.544921875 321.995117188 c 0
 364.877929688 327.328125 345.2109375 332.328125 321.543945312 336.995117188 c 0
 297.876953125 341.662109375 271.876953125 345.329101562 243.543945312 347.99609375 c 0
 215.2109375 350.663085938 189.7109375 356.99609375 167.043945312 366.99609375 c 0
 145.7109375 376.99609375 128.543945312 389.49609375 115.543945312 404.49609375 c 0
 102.543945312 419.49609375 92.5439453125 435.329101562 85.5439453125 451.99609375 c 0
 78.5439453125 468.663085938 75.0439453125 485.330078125 75.0439453125 501.997070312 c 0
 75.0439453125 525.330078125 79.2109375 547.663085938 87.5439453125 568.99609375 c 0
 95.876953125 590.329101562 108.543945312 610.49609375 125.543945312 629.49609375 c 0
 142.543945312 648.49609375 163.376953125 664.99609375 188.043945312 678.99609375 c 0
 213.376953125 692.99609375 243.709960938 703.99609375 279.04296875 711.99609375 c 0
 314.375976562 719.99609375 352.375976562 723.99609375 393.04296875 723.99609375 c 0
 413.04296875 723.99609375 440.375976562 722.329101562 475.04296875 718.99609375 c 0
 507.04296875 715.663085938 529.375976562 711.663085938 542.04296875 706.99609375 c 0
 557.375976562 701.663085938 568.708984375 692.663085938 576.041992188 679.99609375 c 0
 581.375 670.663085938 584.041992188 660.330078125 584.041992188 648.997070312 c 0
 584.041992188 634.330078125 580.041992188 622.997070312 572.041992188 614.997070312 c 0
 565.375 608.330078125 557.375 604.330078125 548.041992188 602.997070312 c 0
 543.375 602.330078125 539.375 601.997070312 536.041992188 601.997070312 c 0
 532.708984375 601.997070312 529.041992188 602.330078125 525.041992188 602.997070312 c 0
 517.708984375 603.6640625 510.041992188 605.331054688 502.041992188 607.998046875 c 0
 490.708984375 610.665039062 481.708984375 612.665039062 475.041992188 613.998046875 c 0
 467.708984375 615.331054688 456.041992188 616.831054688 440.041992188 618.498046875 c 0
 424.041992188 620.165039062 405.375 620.998046875 384.041992188 620.998046875 c 0
 352.041992188 620.998046875 322.375 616.831054688 295.041992188 608.498046875 c 0
 267.708984375 600.165039062 245.541992188 588.33203125 228.541992188 572.999023438 c 0
 211.541992188 557.666015625 203.041992188 540.666015625 203.041992188 521.999023438 c 0
 203.041992188 500.666015625 213.375 482.666015625 234.041992188 467.999023438 c 0
 256.708984375 452.666015625 289.041992188 443.999023438 331.041992188 441.999023438 c 0
 372.375 439.999023438 409.375 434.33203125 442.041992188 424.999023438 c 0
 474.041992188 415.666015625 499.208984375 403.999023438 517.541992188 389.999023438 c 0
 535.875 375.999023438 551.208007812 359.499023438 563.541015625 340.499023438 c 0
 575.874023438 321.499023438 584.20703125 302.999023438 588.540039062 284.999023438 c 0
 592.873046875 266.999023438 595.040039062 247.666015625 595.040039062 226.999023438 c 0
 595.040039062 196.33203125 589.540039062 167.33203125 578.540039062 139.999023438 c 0
 567.540039062 112.666015625 552.373046875 88.8330078125 533.040039062 68.5 c 0
 513.70703125 48.1669921875 491.040039062 30.6669921875 465.040039062 16 c 0
 437.040039062 1.3330078125 407.040039062 -9.6669921875 375.040039062 -17 c 0
 342.373046875 -24.3330078125 308.706054688 -28.3330078125 274.0390625 -29 c 0
 220.706054688 -29 174.373046875 -19 135.040039062 1 c 0
 97.0400390625 20.3330078125 70.70703125 44.3330078125 56.0400390625 73 c 0
 55.373046875 81 55.0400390625 81 55.0400390625 73 c 1
EndSplineSet
Validated: 1
EndChar

StartChar: T
Encoding: 84 84 52
Width: 640
GlyphClass: 2
Flags: W
HStem: -13.002 21G<316.002 337.668> 591 110<398.266 580.528> 622 92<59.4397 249.029>
VStem: 253.002 135.998<346.537 596> 266.002 136.998<4.95311 342.594>
LayerCount: 2
Fore
SplineSet
376 1 m 0xc8
 362 -8.3330078125 346.334960938 -13.001953125 329.001953125 -13.001953125 c 2
 325.001953125 -13.001953125 l 2
 307.001953125 -13.001953125 292.001953125 -7.3349609375 280.001953125 3.998046875 c 0
 269.334960938 13.3310546875 264.001953125 25.998046875 264.001953125 41.998046875 c 0
 264.001953125 44.6650390625 264.334960938 48.83203125 265.001953125 54.4990234375 c 0
 265.66796875 60.166015625 266.001953125 73.3330078125 266.001953125 94 c 0xc8
 266.001953125 140 263.834960938 222.333007812 259.501953125 341 c 0
 255.16796875 459.666992188 253.001953125 544 253.001953125 594 c 2
 253.001953125 600 l 1
 167.66796875 604 118.66796875 607 106.001953125 609 c 0
 89.333984375 611.666992188 75.66796875 616 65 622 c 0
 51 630.666992188 44 642.666992188 44 658 c 2
 44 661 l 2
 44 675 49 687.666992188 59 699 c 0
 68.333984375 709 80.666015625 714 96 714 c 0xb0
 100 714 104.33203125 713.666992188 109 713 c 0
 145 707 287.666992188 703 537 701 c 0
 556.33203125 701 571 696 581 686 c 0
 591 676 596 664 596 650 c 0
 596 634.666992188 591 621 581 609 c 0
 571 597 557 591 539 591 c 0
 538.33203125 591 488.33203125 592.666992188 389 596 c 1xd0
 390.33203125 465.333007812 395 281.333007812 403 44 c 0
 401 25.3330078125 392 11 376 1 c 0xc8
EndSplineSet
Validated: 1
EndChar

StartChar: U
Encoding: 85 85 53
Width: 640
GlyphClass: 2
Flags: W
HStem: -28.9971 114.999<231.955 399.214> 689.002 20G<95.938 114.271 535.272 547.606>
VStem: 39.7275 118.544<176.994 688.531> 482.771 117.501<180.084 691.435>
LayerCount: 2
Fore
SplineSet
470.272460938 17 m 0
 452.272460938 7 433.268554688 -1.6640625 413.268554688 -8.9970703125 c 0
 393.935546875 -16.330078125 375.102539062 -21.4970703125 356.76953125 -24.4970703125 c 0
 338.436523438 -27.4970703125 319.103515625 -28.9970703125 298.770507812 -28.9970703125 c 0
 278.4375 -28.9970703125 256.9375 -26.1640625 234.270507812 -20.4970703125 c 0
 211.603515625 -14.830078125 188.603515625 -5.330078125 165.270507812 8.0029296875 c 0
 143.270507812 21.3359375 123.603515625 38.1689453125 106.270507812 58.501953125 c 0
 88.9375 78.8349609375 74.6044921875 104.834960938 63.271484375 136.501953125 c 0
 51.9384765625 168.168945312 45.60546875 203.668945312 44.2724609375 243.001953125 c 0
 41.2421875 352.708007812 39.7275390625 437.065429688 39.7275390625 496.07421875 c 0
 39.7275390625 501.969726562 39.7421875 507.612304688 39.7724609375 513.001953125 c 0
 40.10546875 572.334960938 40.9384765625 615.66796875 42.271484375 643.000976562 c 0
 42.9384765625 663.66796875 49.271484375 679.834960938 61.271484375 691.501953125 c 0
 73.271484375 703.168945312 87.6044921875 709.001953125 104.271484375 709.001953125 c 0
 124.271484375 709.001953125 138.938476562 702.334960938 148.271484375 689.001953125 c 0
 154.938476562 679.001953125 158.271484375 665.334960938 158.271484375 648.001953125 c 0
 158.271484375 430.668945312 159.938476562 299.668945312 163.271484375 255.001953125 c 0
 164.604492188 236.334960938 167.104492188 219.66796875 170.771484375 205.000976562 c 0
 174.438476562 190.333984375 179.938476562 175.333984375 187.271484375 160.000976562 c 0
 194.604492188 144.66796875 203.604492188 131.834960938 214.271484375 121.501953125 c 0
 224.938476562 111.168945312 238.438476562 102.668945312 254.771484375 96.001953125 c 0
 271.104492188 89.3349609375 289.604492188 86.001953125 310.271484375 86.001953125 c 0
 358.271484375 86.001953125 397.104492188 100.168945312 426.771484375 128.501953125 c 0
 456.438476562 156.168945312 473.271484375 200.001953125 477.271484375 260.001953125 c 0
 479.271484375 287.334960938 480.938476562 318.334960938 482.271484375 353.001953125 c 0
 482.604492188 376.3359375 482.771484375 397.8359375 482.771484375 417.501953125 c 0
 482.771484375 437.168945312 482.604492188 455.001953125 482.271484375 471.001953125 c 0
 481.604492188 538.334960938 481.271484375 577.16796875 481.271484375 587.500976562 c 2
 481.271484375 634.000976562 l 2
 481.271484375 649.333984375 482.604492188 662.500976562 485.271484375 673.500976562 c 0
 487.938476562 684.500976562 492.60546875 692.66796875 499.272460938 698.000976562 c 0
 505.939453125 703.333984375 512.272460938 706.666992188 518.272460938 708 c 0
 524.272460938 709.333007812 531.272460938 710 539.272460938 710 c 0
 555.939453125 710 569.439453125 704 579.772460938 692 c 0
 590.10546875 680 595.60546875 664.333007812 596.272460938 645 c 0
 598.939453125 594.333007812 600.272460938 537.166015625 600.272460938 473.499023438 c 0
 600.272460938 409.83203125 598.939453125 339.33203125 596.272460938 261.999023438 c 0
 594.939453125 231.999023438 590.772460938 203.83203125 583.772460938 177.499023438 c 0
 576.772460938 151.166015625 567.772460938 128.333007812 556.772460938 109 c 0
 545.772460938 89.6669921875 532.939453125 72 518.272460938 56 c 0
 503.60546875 40 487.60546875 27 470.272460938 17 c 0
EndSplineSet
Validated: 1
EndChar

StartChar: V
Encoding: 86 86 54
Width: 640
GlyphClass: 2
Flags: W
HStem: -12 21G<318.503 335.499> 691.001 20G<81.501 89.501>
LayerCount: 2
Fore
SplineSet
326.499023438 -12 m 2
 318.502929688 -11.9990234375 l 2
 302.502929688 -11.9990234375 288.8359375 -9.666015625 277.502929688 -4.9990234375 c 0
 262.169921875 1.0009765625 251.169921875 11.0009765625 244.502929688 25.0009765625 c 0
 214.502929688 95.66796875 173.169921875 205.000976562 120.502929688 353.000976562 c 0
 69.8359375 502.333984375 41.1689453125 593.333984375 34.501953125 626.000976562 c 0
 31.8349609375 639.333984375 30.16796875 651.666992188 29.5009765625 663 c 0
 29.5009765625 671.666992188 31.833984375 679.666992188 36.5009765625 687 c 0
 41.833984375 695.666992188 50.5009765625 702.333984375 62.5009765625 707.000976562 c 0
 69.833984375 709.66796875 77.5009765625 711.000976562 85.5009765625 711.000976562 c 0
 93.5009765625 711.000976562 101.833984375 709.333984375 110.500976562 706.000976562 c 0
 125.833984375 699.333984375 137.166992188 685.333984375 144.5 664.000976562 c 0
 148.5 649.333984375 182.166992188 549.000976562 245.5 363.000976562 c 0
 274.833007812 278.333984375 297.5 214.000976562 313.5 170.000976562 c 1
 339.5 240.66796875 373.5 335.66796875 415.5 455.000976562 c 2
 489.5 664.000976562 l 2
 497.5 684.66796875 509.5 698.334960938 525.5 705.001953125 c 0
 534.166992188 708.334960938 542.666992188 710.16796875 551 710.500976562 c 0
 559.333007812 710.833984375 567.166015625 709.666992188 574.499023438 707 c 0
 583.83203125 703.666992188 591.83203125 698.666992188 598.499023438 692 c 0
 604.499023438 684.666992188 608.499023438 676 610.499023438 666 c 2
 610.499023438 660 l 2
 610.499023438 648 607.83203125 635 602.499023438 621 c 0
 587.83203125 587 553.499023438 494 499.499023438 342 c 0
 442.166015625 188 405.499023438 83 389.499023438 27 c 0
 385.499023438 15.6669921875 379.166015625 6.6669921875 370.499023438 0 c 0
 359.166015625 -8 344.499023438 -12 326.499023438 -12 c 2
EndSplineSet
Validated: 1
EndChar

StartChar: W
Encoding: 87 87 55
Width: 640
GlyphClass: 2
Flags: W
HStem: -11 21G<447.49 469.157> 693.053 20.9482G<84.1577 97.4912 312.415 330.876 338.824 346.824 548.117 556.31>
VStem: 31.4912 112.001<400.659 693.625> 501.49 107.019<369.179 695.466>
LayerCount: 2
Fore
SplineSet
501.490234375 632 m 0
 501.490234375 638 501.15625 644.333007812 500.489257812 651 c 0
 500.489257812 669.666992188 505.822265625 684.666992188 516.489257812 696 c 0
 527.225585938 707.368164062 540.35546875 713.052734375 555.87890625 713.052734375 c 0
 556.741210938 713.052734375 557.611328125 713.03515625 558.489257812 713 c 0
 591.834960938 713 608.508789062 689.594726562 608.508789062 642.782226562 c 0
 608.508789062 601.635742188 604.71484375 546.993164062 598.489257812 481 c 0
 590.489257812 391.666992188 586.489257812 345.333984375 586.489257812 342.000976562 c 0
 583.822265625 313.333984375 579.822265625 271.666992188 574.489257812 217 c 0
 568.489257812 161.666992188 562.822265625 118.666992188 557.489257812 88 c 0
 552.15625 58.6669921875 546.823242188 38.6669921875 541.490234375 28 c 0
 533.490234375 14 520.823242188 3.6669921875 503.490234375 -3 c 0
 489.490234375 -8.3330078125 475.823242188 -11 462.490234375 -11 c 2
 455.490234375 -11 l 2
 439.490234375 -11 425.823242188 -8.6669921875 414.490234375 -4 c 0
 399.823242188 2 389.823242188 12 384.490234375 26 c 0
 366.490234375 89.3330078125 352.490234375 174 342.490234375 280 c 2
 325.490234375 459 l 1
 318.157226562 390.333007812 310.157226562 320.333007812 301.490234375 249 c 0
 287.490234375 134.333007812 275.490234375 60 265.490234375 26 c 0
 262.157226562 16 254.157226562 8 241.490234375 2 c 0
 230.157226562 -4 218.82421875 -8 207.491210938 -10 c 0
 200.158203125 -11.3330078125 193.825195312 -11.8330078125 188.4921875 -11.5 c 0
 183.159179688 -11.1669921875 179.159179688 -11 176.4921875 -11 c 2
 172.4921875 -11 l 2
 166.4921875 -11 161.4921875 -10.6669921875 157.4921875 -10 c 0
 153.4921875 -10 147.4921875 -9.3330078125 139.4921875 -8 c 0
 132.159179688 -6.6669921875 125.826171875 -4.6669921875 120.493164062 -2 c 0
 115.16015625 0.6669921875 110.493164062 5 106.493164062 11 c 0
 101.826171875 17 98.826171875 24 97.4931640625 32 c 1
 96.826171875 36.6669921875 93.1591796875 58.333984375 86.4921875 97.0009765625 c 0
 79.8251953125 135.000976562 75.158203125 170.000976562 72.4912109375 202.000976562 c 0
 64.4912109375 278.000976562 51.158203125 420.66796875 32.4912109375 630.000976562 c 0
 31.82421875 636.000976562 31.4912109375 642.000976562 31.4912109375 648.000976562 c 0
 31.4912109375 679.333984375 43.82421875 700.333984375 68.4912109375 711.000976562 c 0
 74.4912109375 713.000976562 80.82421875 714.000976562 87.4912109375 714.000976562 c 2
 93.4912109375 714.000976562 l 2
 101.491210938 713.333984375 109.158203125 711.333984375 116.491210938 708.000976562 c 0
 125.158203125 705.333984375 131.825195312 700.666992188 136.4921875 694 c 0
 141.159179688 686 143.4921875 677.333007812 143.4921875 668 c 2
 143.4921875 660 l 2
 143.4921875 615.333007812 154.825195312 475.666015625 177.4921875 240.999023438 c 0
 178.825195312 224.999023438 181.158203125 204.666015625 184.491210938 179.999023438 c 1
 185.82421875 189.999023438 188.157226562 207.666015625 191.490234375 232.999023438 c 0
 201.490234375 309.666015625 207.823242188 359.333007812 210.490234375 382 c 0
 235.157226562 562.666992188 252.490234375 664.333984375 262.490234375 687.000976562 c 0
 272.10546875 703.026367188 294.6640625 711.0390625 330.166015625 711.0390625 c 0
 331.586914062 711.0390625 333.028320312 711.026367188 334.490234375 711.000976562 c 0
 336.490234375 711.000976562 338.157226562 711.333984375 339.490234375 712.000976562 c 0
 354.157226562 712.000976562 366.490234375 709.66796875 376.490234375 705.000976562 c 0
 389.157226562 700.333984375 397.157226562 693.666992188 400.490234375 685 c 0
 403.823242188 673 407.823242188 653 412.490234375 625 c 0
 420.490234375 573.666992188 428.490234375 515.666992188 436.490234375 451 c 0
 444.490234375 385.666992188 450.490234375 339.666992188 454.490234375 313 c 0
 458.490234375 281.666992188 463.823242188 246.666992188 470.490234375 208 c 1
 479.157226562 287.333007812 487.157226562 382.333007812 494.490234375 493 c 0
 499.157226562 559.666992188 501.490234375 606 501.490234375 632 c 0
EndSplineSet
Validated: 1
EndChar

